<?xml version="1.0" encoding="UTF-8"?>
<svg width="48" height="48" enable-background="new 0 0 64 64" version="1.1" viewBox="0 0 48 48" xml:space="preserve" xmlns="http://www.w3.org/2000/svg" xmlns:cc="http://creativecommons.org/ns#" xmlns:dc="http://purl.org/dc/elements/1.1/" xmlns:rdf="http://www.w3.org/1999/02/22-rdf-syntax-ns#"><metadata><rdf:RDF><cc:Work rdf:about=""><dc:format>image/svg+xml</dc:format><dc:type rdf:resource="http://purl.org/dc/dcmitype/StillImage"/><dc:title/></cc:Work></rdf:RDF></metadata>
<rect id="icon-m-add_3_" x="-8" y="-8" width="64" height="64" opacity="0"/>
		<circle cx="24" cy="24" r="24" fill="#fff" opacity=".2"/>
		
		
	<path d="m13.377 11.154 12.864-1e-6v21.556h-12.684z" fill-opacity="0" stroke="#fff" stroke-linecap="round" stroke-linejoin="round" stroke-width="1.808"/><g transform="translate(-8,-8)" fill="#fff" fill-rule="evenodd" shape-rendering="auto" stroke-width="0"><path d="m20.587 40.826c-13.725-27.217-6.8624-13.609 0 0z" color="#000000" color-rendering="auto" dominant-baseline="auto" enable-background="accumulate" image-rendering="auto" solid-color="#000000" stop-color="#000000" style="font-feature-settings:normal;font-variant-alternates:normal;font-variant-caps:normal;font-variant-east-asian:normal;font-variant-ligatures:normal;font-variant-numeric:normal;font-variant-position:normal;font-variation-settings:normal;inline-size:0;isolation:auto;mix-blend-mode:normal;shape-margin:0;shape-padding:0;text-decoration-color:#000000;text-decoration-line:none;text-decoration-style:solid;text-indent:0;text-orientation:mixed;text-transform:none;white-space:normal"/><path d="m39.5 28.141a0.85009 0.85009 0 0 0-0.47266 0.12891l-18.871 11.824a0.85 0.85 0 0 0-0.01172 0.0059l-0.0078 0.0059a0.85 0.85 0 0 0-0.06445 0.04492 0.85 0.85 0 0 0-0.05078 0.04102 0.85009 0.85009 0 0 0-0.0078 0.0078 0.85 0.85 0 0 0-0.04883 0.04687 0.85009 0.85009 0 0 0-0.0059 0.0078 0.85 0.85 0 0 0-0.04883 0.06055 0.85 0.85 0 0 0-0.03906 0.05469 0.85009 0.85009 0 0 0-0.02148 0.03516 0.85 0.85 0 0 0-0.01758 0.03125 0.85009 0.85009 0 0 0-0.0039 0.0098 0.85 0.85 0 0 0-0.05664 0.14453 0.85 0.85 0 0 0-0.0293 0.15234 0.85 0.85 0 0 0-0.0059 0.08398v2.4863a0.85009 0.85009 0 0 0 0.32422 0.66797l9.0254 7.1172a0.85009 0.85009 0 0 0 0.97852 0.05078l19.088-12.031a0.85009 0.85009 0 0 0 0.39648-0.71289l0.01563-2.1699a0.85 0.85 0 0 0-0.05469-0.30273 0.85 0.85 0 0 0-0.0059-0.01367 0.85009 0.85009 0 0 0-0.02344-0.05859 0.85009 0.85009 0 0 0-0.25586-0.33789l-9.2227-7.2012a0.85009 0.85009 0 0 0-0.50195-0.17969zm-0.07227 1.8867 7.7871 6.082-17.479 10.781-7.6699-5.9883 17.361-10.875zm8.4277 7.6836-2e-3 0.2168-18.188 11.463-8.2285-6.4902v-0.33203l7.7188 6.0273a0.85009 0.85009 0 0 0 0.96875 0.05273l17.73-10.938z" color="#000000" color-rendering="auto" dominant-baseline="auto" enable-background="accumulate" fill-opacity=".67843" image-rendering="auto" solid-color="#000000" stop-color="#000000" style="font-feature-settings:normal;font-variant-alternates:normal;font-variant-caps:normal;font-variant-east-asian:normal;font-variant-ligatures:normal;font-variant-numeric:normal;font-variant-position:normal;font-variation-settings:normal;inline-size:0;isolation:auto;mix-blend-mode:normal;shape-margin:0;shape-padding:0;text-decoration-color:#000000;text-decoration-line:none;text-decoration-style:solid;text-indent:0;text-orientation:mixed;text-transform:none;white-space:normal"/></g>
</svg>
