<?xml version="1.0" encoding="UTF-8"?>
<svg width="48" height="48" enable-background="new 0 0 64 64" version="1.1" viewBox="0 0 48 48" xml:space="preserve" xmlns="http://www.w3.org/2000/svg" xmlns:cc="http://creativecommons.org/ns#" xmlns:dc="http://purl.org/dc/elements/1.1/" xmlns:rdf="http://www.w3.org/1999/02/22-rdf-syntax-ns#"><metadata><rdf:RDF><cc:Work rdf:about=""><dc:format>image/svg+xml</dc:format><dc:type rdf:resource="http://purl.org/dc/dcmitype/StillImage"/><dc:title/></cc:Work></rdf:RDF></metadata>
<rect id="icon-m-add_3_" x="-8" y="-8" width="64" height="64" opacity="0"/>
		<circle cx="24" cy="24" r="24" fill="#fff" opacity=".2"/>
		
		
	<g id="icon-m-refresh" transform="matrix(-.78125 0 0 .78125 49 -1)">
	<rect id="icon-m-refresh_1_" width="64" height="64" opacity="0"/>
	<path d="m31.997 51.563c-10.77 0-19.532-8.762-19.532-19.53 0-10.771 8.762-19.533 19.532-19.533 5.048 0 9.838 1.92 13.489 5.406 0.399 0.381 0.414 1.014 0.033 1.414-0.382 0.4-1.015 0.415-1.414 0.033-3.277-3.129-7.578-4.853-12.108-4.853-9.667 0-17.532 7.865-17.532 17.533 0 9.666 7.865 17.53 17.532 17.53 4.098 0 8.086-1.447 11.23-4.076 0.426-0.354 1.056-0.296 1.409 0.126 0.354 0.424 0.298 1.055-0.126 1.409-3.504 2.929-7.947 4.541-12.513 4.541z" fill="#fff" opacity=".6"/>
	<path d="m39.586 27.713c-1.518 0-2.046-0.726-2.226-1.159s-0.321-1.321 0.753-2.399l10.665-10.704c0.583-0.585 1.18-0.882 1.774-0.882 0.823 0 1.785 0.615 1.789 2.35l0.016 9.15c2e-3 0.964-0.374 1.874-1.058 2.56-0.685 0.687-1.593 1.066-2.557 1.067zm-0.186-2.006c0.054 4e-3 0.115 7e-3 0.186 7e-3v1l4e-3 -1 9.149-0.016c0.431-1e-3 0.836-0.171 1.144-0.479 0.307-0.308 0.476-0.715 0.475-1.145l-0.016-9.15c0-0.073-3e-3 -0.136-8e-3 -0.19-0.041 0.035-0.088 0.078-0.14 0.129l-10.665 10.704c-0.05 0.051-0.093 0.098-0.129 0.14z" fill="#fff"/>
</g>
</svg>
