<?xml version="1.0" encoding="UTF-8"?>
<svg width="48" height="48" enable-background="new 0 0 64 64" version="1.1" viewBox="0 0 48 48" xml:space="preserve" xmlns="http://www.w3.org/2000/svg" xmlns:cc="http://creativecommons.org/ns#" xmlns:dc="http://purl.org/dc/elements/1.1/" xmlns:rdf="http://www.w3.org/1999/02/22-rdf-syntax-ns#"><metadata><rdf:RDF><cc:Work rdf:about=""><dc:format>image/svg+xml</dc:format><dc:type rdf:resource="http://purl.org/dc/dcmitype/StillImage"/><dc:title/></cc:Work></rdf:RDF></metadata>
<rect id="icon-m-add_3_" x="-8" y="-8" width="64" height="64" opacity="0"/>
		<circle cx="24" cy="24" r="24" fill="#fff" opacity=".2"/>
		
		
	<rect id="icon-m-refresh_1_" x="-1" y="-1" width="50" height="50" opacity="0" stroke-width=".78125"/><path d="m11.178 18.819c-0.91019 0.8692-0.22438 1.7322 0.47155 2.4567l8.8303 8.8612c0.93001 0.93388 2.1732 1.4501 3.4977 1.4521 1.3264 0.0019 2.5706-0.50948 3.5035-1.4405 0 0 8.5249-8.4844 8.868-8.8351s1.4763-1.3321 0.49158-2.3678-1.823-0.20954-2.2511 0.2487c0 0 0.02425-0.02807 6.3e-5 -4.9e-5 -2.1242 2.1566-6.0773 6.1455-9.037 9.0197-0.4177 0.41569-0.97358 0.64288-1.5691 0.64288-0.59455-9.66e-4 -1.1514-0.23105-1.5661-0.64772-2.9932-3.0168-6.036-6.0318-9.0063-9.0526-0.33634-0.35098-1.3227-1.2068-2.2329-0.33761z" fill="#fff" stroke-width="1.3672"/>
</svg>
