<?xml version="1.0" encoding="UTF-8" standalone="no"?>
<!-- Created with Inkscape (http://www.inkscape.org/) -->

<svg
   width="128mm"
   height="128mm"
   viewBox="0 0 128 128"
   version="1.1"
   id="svg16"
   inkscape:version="1.2.1 (9c6d41e410, 2022-07-14)"
   sodipodi:docname="icon-m-magnify.svg"
   xml:space="preserve"
   xmlns:inkscape="http://www.inkscape.org/namespaces/inkscape"
   xmlns:sodipodi="http://sodipodi.sourceforge.net/DTD/sodipodi-0.dtd"
   xmlns="http://www.w3.org/2000/svg"
   xmlns:svg="http://www.w3.org/2000/svg"><sodipodi:namedview
     id="namedview18"
     pagecolor="#ffffff"
     bordercolor="#666666"
     borderopacity="1.0"
     inkscape:pageshadow="2"
     inkscape:pageopacity="0.0"
     inkscape:pagecheckerboard="true"
     inkscape:document-units="mm"
     showgrid="false"
     inkscape:snap-object-midpoints="true"
     inkscape:zoom="1.024173"
     inkscape:cx="13.181366"
     inkscape:cy="233.359"
     inkscape:window-width="1920"
     inkscape:window-height="1131"
     inkscape:window-x="0"
     inkscape:window-y="0"
     inkscape:window-maximized="1"
     inkscape:current-layer="layer1"
     inkscape:showpageshadow="2"
     inkscape:deskcolor="#d1d1d1"
     showguides="false" /><defs
     id="defs13" /><g
     inkscape:label="Taso 1"
     inkscape:groupmode="layer"
     id="layer1"><circle
       style="fill:#ffffff;fill-opacity:0.2;fill-rule:evenodd;stroke:#ffffff;stroke-width:0;stroke-linecap:round;stroke-linejoin:round"
       id="path286-3"
       cx="61.683704"
       cy="61.663593"
       r="50" /><circle
       style="fill:none;fill-opacity:0.2;fill-rule:evenodd;stroke:#ffffff;stroke-width:0;stroke-linecap:round;stroke-linejoin:round"
       id="path286"
       cx="64"
       cy="64"
       r="50" /><path
       id="path6955"
       style="color:#000000;fill:#ffffff;stroke-linecap:square;stroke-linejoin:round;-inkscape-stroke:none;fill-opacity:0.60000002"
       d="M 55.539246 32.747872 C 43.10882 32.747929 33.00011 42.856639 33.000053 55.287065 C 33.00011 67.717492 43.108819 77.8262 55.539246 77.826257 A 1.50015 1.50015 0 0 0 55.541313 77.826257 C 59.628113 77.823257 63.589681 76.655749 67.068258 74.574259 L 81.351624 88.855558 C 82.594778 90.247065 84.498285 90.86127 86.320312 90.457011 C 88.142338 90.052751 89.610371 88.689336 90.148503 86.902189 C 90.686555 85.115302 90.215828 83.170964 88.920154 81.82808 A 1.50015 1.50015 0 0 0 88.900517 81.808443 L 74.46884 67.376766 C 76.773265 63.771422 78.077348 59.604259 78.079989 55.289132 A 1.50015 1.50015 0 0 0 78.079989 55.288615 A 1.50015 1.50015 0 0 0 78.079989 55.288098 A 1.50015 1.50015 0 0 0 78.079989 55.287581 A 1.50015 1.50015 0 0 0 78.079989 55.287065 C 78.079932 42.856685 67.969673 32.747929 55.539246 32.747872 z M 55.539246 35.748206 C 66.348366 35.748255 75.080122 44.477945 75.080172 55.287065 C 75.077381 59.782326 73.524352 64.1367 70.684574 67.620162 L 70.597758 67.533346 L 67.470817 70.660286 L 67.530762 70.720231 A 1.50015 1.50015 0 0 0 67.48632 70.738318 C 64.066056 73.386154 59.864662 74.822792 55.539246 74.825924 C 44.730126 74.825874 35.999919 66.096185 35.99987 55.287065 C 35.99992 44.477945 44.730127 35.748256 55.539246 35.748206 z M 72.861186 69.681535 L 72.693237 69.845866 L 86.759562 83.912191 C 87.305307 84.477822 87.501883 85.286681 87.275293 86.039193 C 87.04878 86.791445 86.438812 87.357288 85.671773 87.527474 C 84.90474 87.697658 84.111381 87.441895 83.587663 86.85568 A 1.50015 1.50015 0 0 0 83.531335 86.794702 L 69.515653 72.779537 A 1.50015 1.50015 0 0 0 69.537358 72.726827 L 69.591618 72.781087 L 72.399715 69.975057 A 1.50015 1.50015 0 0 0 72.861186 69.681535 z " /><path
       id="path9198"
       style="color:#000000;fill:#ffffff;fill-opacity:1;stroke:none;stroke-linecap:round;stroke-opacity:1;-inkscape-stroke:none"
       d="M 55.480334 46.177543 A 1.5 1.5 0 0 0 53.99412 47.691146 L 54.047347 53.809635 L 47.929374 53.862862 A 1.5 1.5 0 0 0 46.441093 55.374398 A 1.5 1.5 0 0 0 47.954696 56.862679 L 54.073702 56.809452 L 54.126929 62.927425 A 1.5 1.5 0 0 0 55.638464 64.415706 A 1.5 1.5 0 0 0 57.126746 62.902104 L 57.073519 56.783097 L 63.190975 56.729871 A 1.5 1.5 0 0 0 64.679256 55.216268 A 1.5 1.5 0 0 0 63.165653 53.730054 L 57.047164 53.78328 L 56.993937 47.665824 A 1.5 1.5 0 0 0 55.480334 46.177543 z " /></g></svg>
