<?xml version="1.0" encoding="UTF-8" standalone="no"?>
<!-- Created with Inkscape (http://www.inkscape.org/) -->

<svg
   width="128mm"
   height="128mm"
   viewBox="0 0 128 128"
   version="1.1"
   id="svg16"
   inkscape:version="1.1.1 (3bf5ae0d25, 2021-09-20)"
   sodipodi:docname="icon-m-deal.svg"
   xmlns:inkscape="http://www.inkscape.org/namespaces/inkscape"
   xmlns:sodipodi="http://sodipodi.sourceforge.net/DTD/sodipodi-0.dtd"
   xmlns="http://www.w3.org/2000/svg"
   xmlns:svg="http://www.w3.org/2000/svg">
  <sodipodi:namedview
     id="namedview18"
     pagecolor="#ffffff"
     bordercolor="#666666"
     borderopacity="1.0"
     inkscape:pageshadow="2"
     inkscape:pageopacity="0.0"
     inkscape:pagecheckerboard="true"
     inkscape:document-units="mm"
     showgrid="false"
     inkscape:snap-object-midpoints="true"
     inkscape:zoom="1.835916"
     inkscape:cx="222.50473"
     inkscape:cy="228.76864"
     inkscape:window-width="1920"
     inkscape:window-height="1011"
     inkscape:window-x="0"
     inkscape:window-y="0"
     inkscape:window-maximized="1"
     inkscape:current-layer="layer1" />
  <defs
     id="defs13" />
  <g
     inkscape:label="Taso 1"
     inkscape:groupmode="layer"
     id="layer1">
    <circle
       style="fill:#ffffff;fill-opacity:0.2;fill-rule:evenodd;stroke:#ffffff;stroke-width:0;stroke-linecap:round;stroke-linejoin:round"
       id="path286"
       cx="64"
       cy="64"
       r="50" />
    <rect
       style="fill:none;fill-rule:evenodd;stroke:#ffffff;stroke-width:3;stroke-linecap:round;stroke-linejoin:round;stroke-miterlimit:4;stroke-dasharray:none"
       id="rect6265"
       width="29.652124"
       height="47.665031"
       x="38.129925"
       y="37.007568" />
    <path
       id="rect6265-3"
       style="color:#000000;opacity:0.6;fill:#ffffff;fill-rule:evenodd;stroke-width:3.77953;stroke-linecap:round;stroke-linejoin:round;-inkscape-stroke:none"
       d="M 268.25781 209.9082 A 5.6698583 5.6698583 0 0 0 264.44922 210.91602 L 161.11719 283.68555 A 5.6698583 5.6698583 0 0 0 158.76367 288.32227 L 158.71094 288.32227 L 158.71094 320.45508 L 158.75 320.45508 A 5.6692913 5.6692913 0 0 0 162.52734 325.80664 L 254.33594 357.51172 A 5.6698583 5.6698583 0 0 0 259.45117 356.78906 L 362.77539 284.01172 A 5.6692913 5.6692913 0 0 0 365.17578 279.375 L 365.18164 279.375 L 365.18164 247.3418 L 365.18164 247.24805 L 365.17578 247.24805 A 5.6698583 5.6698583 0 0 0 361.36523 241.89062 L 269.56445 210.19141 A 5.6698583 5.6698583 0 0 0 268.25781 209.9082 z M 268.60547 221.85547 L 347.19336 248.99023 L 255.29492 313.71484 L 176.70117 286.58008 L 268.60547 221.85547 z M 353.84375 258.17578 L 353.84375 276.43359 L 255.29492 345.84961 L 170.04883 316.41406 L 170.04883 296.2793 L 254.33594 325.37891 A 5.6698583 5.6698583 0 0 0 259.45117 324.65625 L 353.84375 258.17578 z "
       transform="scale(0.26458333)" />
  </g>
</svg>
