<?xml version="1.0" encoding="UTF-8" standalone="no"?>
<!-- Created with Inkscape (http://www.inkscape.org/) -->

<svg
   width="128mm"
   height="128mm"
   viewBox="0 0 128 128"
   version="1.1"
   id="svg16"
   inkscape:version="1.1.1 (3bf5ae0d25, 2021-09-20)"
   sodipodi:docname="icon-m-fireworks.svg"
   xmlns:inkscape="http://www.inkscape.org/namespaces/inkscape"
   xmlns:sodipodi="http://sodipodi.sourceforge.net/DTD/sodipodi-0.dtd"
   xmlns="http://www.w3.org/2000/svg"
   xmlns:svg="http://www.w3.org/2000/svg">
  <sodipodi:namedview
     id="namedview18"
     pagecolor="#ffffff"
     bordercolor="#666666"
     borderopacity="1.0"
     inkscape:pageshadow="2"
     inkscape:pageopacity="0.0"
     inkscape:pagecheckerboard="true"
     inkscape:document-units="mm"
     showgrid="false"
     inkscape:snap-object-midpoints="false"
     inkscape:zoom="1.6787453"
     inkscape:cx="202.23437"
     inkscape:cy="256.14368"
     inkscape:window-width="1920"
     inkscape:window-height="1131"
     inkscape:window-x="0"
     inkscape:window-y="0"
     inkscape:window-maximized="1"
     inkscape:current-layer="layer1"
     inkscape:snap-others="false"
     inkscape:snap-nodes="false" />
  <defs
     id="defs13" />
  <g
     inkscape:label="Taso 1"
     inkscape:groupmode="layer"
     id="layer1">
    <path
       style="fill:none;stroke:#ffffff;stroke-width:3;stroke-linecap:round;stroke-linejoin:miter;stroke-miterlimit:4;stroke-dasharray:none;stroke-opacity:1"
       d="M 44.652255,108.42092 C 47.568772,74.053345 76.215061,57.0297 76.215061,57.0297"
       id="path4251"
       sodipodi:nodetypes="cc" />
    <path
       style="color:#000000;fill:#ffffff;fill-opacity:1;stroke:none;stroke-linecap:round;stroke-opacity:1;-inkscape-stroke:none"
       d="m 48.400397,57.74984 c -0.801578,0.210357 -1.280692,1.030875 -1.069931,1.832351 0.211068,0.800362 1.030553,1.278484 1.831169,1.068377 10.287948,-6.165273 23.572177,-7.846957 26.925713,-8.622796 -6.743883,-1.548395 -21.623289,2.564183 -27.686951,5.722068 z"
       id="path4286"
       sodipodi:nodetypes="ccccc" />
    <path
       style="color:#000000;fill:#ffffff;fill-opacity:1;stroke:none;stroke-linecap:round;stroke-opacity:1;-inkscape-stroke:none"
       d="m 93.815645,84.96029 c 0.17642,0.809729 -0.33722,1.609093 -1.14704,1.785099 -0.80896,0.175226 -1.60698,-0.337891 -1.78317,-1.146687 0.82356,-11.965541 -3.70801,-24.565678 -4.53896,-27.905998 4.44089,5.306227 7.53053,20.431171 7.46917,27.267586 z"
       id="path5425"
       sodipodi:nodetypes="ccccc" />
    <path
       style="color:#000000;fill:#ffffff;fill-opacity:1;stroke:none;stroke-linecap:round;stroke-opacity:1;-inkscape-stroke:none"
       d="m 118.16975,53.125428 c 0.82204,0.105095 1.40308,0.856883 1.29757,1.678864 -0.10587,0.820918 -0.8568,1.40087 -1.6779,1.29587 -10.99788,-4.785242 -24.388045,-4.737551 -27.813709,-5.073876 6.487504,-2.406222 21.773379,-0.249348 28.194039,2.099142 z"
       id="path5440"
       sodipodi:nodetypes="ccccc" />
    <path
       style="color:#000000;fill:#ffffff;fill-opacity:1;stroke:none;stroke-linecap:round;stroke-opacity:1;-inkscape-stroke:none"
       d="m 70.106232,19.089262 c -0.362134,-0.745411 -1.260124,-1.05592 -2.005355,-0.693408 -0.744079,0.362595 -1.053816,1.259378 -0.692112,2.003893 8.047195,8.893542 12.278632,21.597626 13.691446,24.736432 0.20818,-6.916225 -6.717824,-20.71262 -10.993979,-26.046917 z"
       id="path5442"
       sodipodi:nodetypes="ccccc" />
    <path
       style="color:#000000;fill:#ffffff;fill-opacity:1;stroke:none;stroke-width:0.481811;stroke-linecap:round;stroke-opacity:1;-inkscape-stroke:none"
       d="m 65.989395,40.181301 c -0.342878,-0.204608 -0.786712,-0.0924 -0.991148,0.250582 -0.20395,0.342713 -0.09175,0.785854 0.250718,0.990217 5.59223,1.456411 10.65417,5.456353 12.052821,6.347544 -1.743822,-2.841383 -8.179989,-6.569317 -11.312391,-7.588343 z"
       id="path5444"
       sodipodi:nodetypes="ccccc" />
    <path
       style="color:#000000;fill:#ffffff;fill-opacity:1;stroke:none;stroke-width:0.481811;stroke-linecap:round;stroke-opacity:1;-inkscape-stroke:none"
       d="m 100.21075,62.415498 c 0.31279,0.24816 0.36508,0.702968 0.11675,1.015637 -0.24824,0.312124 -0.702385,0.36422 -1.014815,0.11631 -3.34291,-4.71372 -8.876578,-8.030543 -10.205428,-9.022826 3.27486,0.624258 9.040948,5.322547 11.103493,7.890879 z"
       id="path5925"
       sodipodi:nodetypes="ccccc" />
    <path
       style="color:#000000;fill:#ffffff;fill-opacity:1;stroke:none;stroke-width:0.481811;stroke-linecap:round;stroke-opacity:1;-inkscape-stroke:none"
       d="m 100.66052,41.748701 c 0.37232,-0.144219 0.79106,0.04082 0.93509,0.413223 0.1436,0.372052 -0.0412,0.790125 -0.41318,0.934156 -5.757265,0.498158 -11.41821,3.592752 -12.946497,4.236813 2.195556,-2.508774 9.165662,-5.104798 12.424587,-5.584192 z"
       id="path5927"
       sodipodi:nodetypes="ccccc" />
    <path
       style="color:#000000;fill:#ffffff;fill-opacity:1;stroke:none;stroke-width:0.481811;stroke-linecap:round;stroke-opacity:1;-inkscape-stroke:none"
       d="m 91.050326,32.718749 c 0.175214,-0.358792 0.608232,-0.507452 0.966916,-0.33202 0.35813,0.175473 0.50644,0.60787 0.3314,0.966213 -3.886417,4.276679 -5.938289,10.393264 -6.622241,11.904107 -0.09316,-3.332519 3.258122,-9.972601 5.323925,-12.5383 z"
       id="path5929"
       sodipodi:nodetypes="ccccc" />
    <path
       style="color:#000000;fill:#ffffff;fill-opacity:1;stroke:none;stroke-width:0.481811;stroke-linecap:round;stroke-opacity:1;-inkscape-stroke:none"
       d="m 76.976136,71.719114 c -0.08975,0.389058 0.153006,0.777198 0.54212,0.866749 0.388703,0.08919 0.776202,-0.153311 0.865829,-0.541949 -0.326426,-5.769545 1.930854,-11.813345 2.350817,-13.417746 -2.170704,2.530308 -3.748142,9.798968 -3.758766,13.092946 z"
       id="path6011"
       sodipodi:nodetypes="ccccc" />
    <path
       style="fill:none;stroke:#ffffff;stroke-width:1.41399;stroke-linecap:round;stroke-linejoin:miter;stroke-miterlimit:4;stroke-dasharray:none;stroke-opacity:1"
       d="M 44.594737,82.716658 C 42.856858,51.931456 29.978037,42.280519 29.978037,42.280519"
       id="path6025"
       sodipodi:nodetypes="cc" />
    <path
       style="color:#000000;fill:#ffffff;fill-opacity:1;stroke:none;stroke-width:0.47133;stroke-linecap:round;stroke-opacity:1;-inkscape-stroke:none"
       d="m 42.040575,45.553752 c 0.347456,0.178447 0.484373,0.60484 0.305753,0.952208 -0.178645,0.346827 -0.604467,0.483391 -0.951506,0.30516 -4.106532,-3.885041 -10.048584,-6.011928 -11.512846,-6.710519 3.261202,-0.02571 9.689762,3.382331 12.158599,5.453151 z"
       id="path6027"
       sodipodi:nodetypes="ccccc" />
    <path
       style="color:#000000;fill:#ffffff;fill-opacity:1;stroke:none;stroke-width:0.47133;stroke-linecap:round;stroke-opacity:1;-inkscape-stroke:none"
       d="m 22.133962,55.420212 c -0.08315,0.38165 0.158942,0.758414 0.540635,0.841371 0.381287,0.08259 0.757418,-0.159258 0.840462,-0.540468 -0.388169,-5.639722 1.747697,-11.578549 2.139349,-13.152943 -2.093126,2.500986 -3.549367,9.62983 -3.520446,12.85204 z"
       id="path6029"
       sodipodi:nodetypes="ccccc" />
    <path
       style="color:#000000;fill:#ffffff;fill-opacity:1;stroke:none;stroke-width:0.47133;stroke-linecap:round;stroke-opacity:1;-inkscape-stroke:none"
       d="m 11.26219,31.979571 c -0.366783,-0.134315 -0.772985,0.05427 -0.907107,0.421122 -0.133705,0.366503 0.05472,0.772045 0.421082,0.906187 5.640086,0.382826 11.233056,3.306906 12.739517,3.909146 C 21.322763,34.802062 14.45837,32.389359 11.26219,31.979571 Z"
       id="path6031"
       sodipodi:nodetypes="ccccc" />
    <path
       style="color:#000000;fill:#ffffff;fill-opacity:1;stroke:none;stroke-width:0.47133;stroke-linecap:round;stroke-opacity:1;-inkscape-stroke:none"
       d="m 35.989462,25.299583 c 0.240576,-0.307722 0.685107,-0.362049 0.992709,-0.121317 0.307062,0.240657 0.361153,0.684554 0.120863,0.991906 -4.587691,3.303064 -7.793589,8.739409 -8.754965,10.046257 0.587761,-3.207902 5.143421,-8.881267 7.641393,-10.916846 z"
       id="path6033"
       sodipodi:nodetypes="ccccc" />
    <path
       style="color:#000000;fill:#ffffff;fill-opacity:1;stroke:none;stroke-width:0.227092;stroke-linecap:round;stroke-opacity:1;-inkscape-stroke:none"
       d="m 35.963771,36.048875 c 0.183218,-0.04301 0.366593,0.07072 0.409506,0.253951 0.04274,0.183049 -0.07088,0.366113 -0.253881,0.409068 -2.719928,-0.143455 -5.564462,0.931356 -6.319897,1.13219 1.188683,-1.027673 4.611755,-1.784263 6.164272,-1.795209 z"
       id="path6035"
       sodipodi:nodetypes="ccccc" />
    <path
       style="color:#000000;fill:#ffffff;fill-opacity:1;stroke:none;stroke-width:0.227092;stroke-linecap:round;stroke-opacity:1;-inkscape-stroke:none"
       d="m 18.853819,45.443345 c -0.139408,0.126417 -0.14989,0.341938 -0.0234,0.481285 0.126433,0.139092 0.341636,0.149504 0.480883,0.02322 1.42595,-2.320617 3.925574,-4.052232 4.519756,-4.560139 -1.520825,0.395199 -4.086896,2.78374 -4.977241,4.055638 z"
       id="path6037"
       sodipodi:nodetypes="ccccc" />
    <path
       style="color:#000000;fill:#ffffff;fill-opacity:1;stroke:none;stroke-width:0.227092;stroke-linecap:round;stroke-opacity:1;-inkscape-stroke:none"
       d="m 16.732397,39.998024 c -0.186797,0.02286 -0.31967,0.192871 -0.296735,0.379643 0.02304,0.186551 0.192824,0.319193 0.379424,0.296353 2.503415,-1.073083 5.544114,-1.045699 6.322457,-1.117844 -1.470267,-0.554443 -4.944183,-0.08354 -6.405147,0.441845 z"
       id="path6039"
       sodipodi:nodetypes="ccccc" />
    <path
       style="color:#000000;fill:#ffffff;fill-opacity:1;stroke:none;stroke-width:0.227092;stroke-linecap:round;stroke-opacity:1;-inkscape-stroke:none"
       d="m 22.484014,30.08069 c -0.09431,-0.162862 -0.302862,-0.218324 -0.465656,-0.123898 -0.162518,0.09445 -0.217858,0.302658 -0.123629,0.465306 1.969641,1.881253 3.138043,4.688641 3.509924,5.376188 -0.06719,-1.569893 -1.863948,-4.580128 -2.920639,-5.717596 z"
       id="path6041"
       sodipodi:nodetypes="ccccc" />
    <path
       style="color:#000000;fill:#ffffff;fill-opacity:1;stroke:none;stroke-width:0.227092;stroke-linecap:round;stroke-opacity:1;-inkscape-stroke:none"
       d="m 29.360981,48.841111 c 0.03976,0.183942 -0.07719,0.36528 -0.26116,0.40494 -0.183767,0.03953 -0.36481,-0.07733 -0.404508,-0.261074 0.191569,-2.716964 -0.83273,-5.580078 -1.020161,-6.338955 1.006473,1.206692 1.702363,4.642618 1.685829,6.195089 z"
       id="path6043"
       sodipodi:nodetypes="ccccc" />
  </g>
</svg>
