<?xml version="1.0" encoding="UTF-8" standalone="no"?>
<!-- Created with Inkscape (http://www.inkscape.org/) -->

<svg
   width="128mm"
   height="128mm"
   viewBox="0 0 128 128"
   version="1.1"
   id="svg16"
   inkscape:version="1.1.1 (3bf5ae0d25, 2021-09-20, custom)"
   sodipodi:docname="icon-m-skull.svg"
   xmlns:inkscape="http://www.inkscape.org/namespaces/inkscape"
   xmlns:sodipodi="http://sodipodi.sourceforge.net/DTD/sodipodi-0.dtd"
   xmlns="http://www.w3.org/2000/svg"
   xmlns:svg="http://www.w3.org/2000/svg">
  <sodipodi:namedview
     id="namedview18"
     pagecolor="#ffffff"
     bordercolor="#666666"
     borderopacity="1.0"
     inkscape:pageshadow="2"
     inkscape:pageopacity="0.0"
     inkscape:pagecheckerboard="true"
     inkscape:document-units="mm"
     showgrid="false"
     inkscape:snap-object-midpoints="true"
     inkscape:zoom="1.6698465"
     inkscape:cx="136.83892"
     inkscape:cy="227.56582"
     inkscape:window-width="1920"
     inkscape:window-height="1011"
     inkscape:window-x="0"
     inkscape:window-y="0"
     inkscape:window-maximized="1"
     inkscape:current-layer="layer1"
     inkscape:snap-bbox="true"
     inkscape:snap-bbox-edge-midpoints="true"
     inkscape:snap-page="true" />
  <defs
     id="defs13" />
  <g
     inkscape:label="Taso 1"
     inkscape:groupmode="layer"
     id="layer1">
    <path
       id="path7694"
       style="fill:#ffffff;stroke:none;stroke-width:1.17902px;stroke-linecap:butt;stroke-linejoin:miter;stroke-opacity:1;fill-opacity:1"
       d="M 240.41211 46.34375 C 175.21419 46.814811 112.16855 99.98688 175.0293 209.35352 C 175.0293 209.35352 185.50125 206.45829 192.85352 213.81055 C 200.20577 221.16281 197.31055 233.34301 197.31055 249.45898 C 197.31055 257.5022 221.14501 261.2045 245.02344 261.05664 C 268.90187 261.20449 292.73633 257.5022 292.73633 249.45898 C 292.73633 233.34301 289.8411 221.16281 297.19336 213.81055 C 304.54562 206.45828 315.01758 209.35352 315.01758 209.35352 C 377.87833 99.986879 314.83269 46.814814 249.63477 46.34375 C 248.0982 46.332648 246.56078 46.384244 245.02344 46.431641 C 243.4861 46.384245 241.94868 46.332789 240.41211 46.34375 z M 197.88086 127.33203 L 230.40625 127.33203 C 234.59394 127.33203 238.51065 130.73866 237.96484 134.89062 L 234.18555 163.63477 C 233.63974 167.78676 230.81466 174.97461 226.62695 174.97461 L 201.66016 174.97461 C 197.47244 174.97461 191.18608 167.82104 191.07617 163.63477 L 190.32227 134.89062 C 190.21236 130.70437 193.69315 127.33203 197.88086 127.33203 z M 259.64062 127.33203 L 292.16602 127.33203 C 296.35373 127.33203 299.83452 130.70438 299.72461 134.89062 L 298.9707 163.63477 C 298.8608 167.82104 292.57444 174.97461 288.38672 174.97461 L 263.41992 174.97461 C 259.23221 174.97461 256.40714 167.78676 255.86133 163.63477 L 252.08203 134.89062 C 251.53622 130.73866 255.45294 127.33203 259.64062 127.33203 z M 237.0918 184.77734 A 4.7244091 4.7244091 0 0 1 239.02539 185.12305 A 4.7244091 4.7244091 0 0 1 241.625 191.27148 L 236.02148 205.09766 A 4.7244091 4.7244091 0 0 1 229.86523 207.69727 A 4.7244091 4.7244091 0 0 1 227.26562 201.54688 L 232.86914 187.7207 A 4.7244091 4.7244091 0 0 1 237.0918 184.77734 z M 252.95508 184.77734 A 4.7244092 4.7244092 0 0 1 257.17773 187.7207 L 262.78125 201.54688 A 4.7244092 4.7244092 0 0 1 260.18164 207.69727 A 4.7244092 4.7244092 0 0 1 254.02539 205.09766 L 248.42188 191.27148 A 4.7244092 4.7244092 0 0 1 251.02148 185.12305 A 4.7244092 4.7244092 0 0 1 252.95508 184.77734 z "
       transform="scale(0.26458333)" />
    <path
       id="rect11090"
       style="color:#000000;fill:#ffffff;fill-opacity:1;stroke:none;stroke-width:0.735642;stroke-linecap:round;-inkscape-stroke:none"
       d="m 33.639812,62.072191 c -0.546934,-0.005 -1.124776,0.08788 -1.733227,0.29559 -3.060214,1.044689 -4.706719,3.593785 -3.653007,6.916373 l -0.206189,-0.113689 c 0.02064,0.04411 0.03974,0.08804 0.0615,0.132291 -3.373288,0.877959 -4.653607,3.629383 -3.907772,6.775815 1.355814,5.719715 9.462178,4.145968 13.415719,2.268596 l 19.166271,10.58023 0.102836,-0.16536 0.939996,0.50953 -0.939996,0.50953 -0.102836,-0.16537 -19.166271,10.580233 c -3.953541,-1.87737 -12.059908,-3.45111 -13.415719,2.2686 -0.745837,3.14643 0.534483,5.89785 3.907772,6.77581 -0.02176,0.0443 -0.04086,0.0882 -0.0615,0.13229 l 0.206189,-0.11368 c -1.053711,3.32259 0.592793,5.87167 3.653007,6.91637 0.608451,0.20769 1.186293,0.30059 1.733227,0.29559 4.453608,-0.0406 6.87249,-6.57109 7.332886,-10.44174 l 3.096969,-1.71101 15.996438,-8.66975 4.763019,-2.581241 4.763015,2.581241 15.996439,8.66975 3.096969,1.71101 c 0.460396,3.87066 2.87928,10.40117 7.332887,10.44174 0.546931,0.005 1.124773,-0.0879 1.733223,-0.29559 3.060223,-1.0447 4.706733,-3.59378 3.653023,-6.91637 l 0.20618,0.11368 c -0.0206,-0.0441 -0.0397,-0.088 -0.0615,-0.13229 3.37328,-0.87796 4.6536,-3.62938 3.90776,-6.77581 -1.35581,-5.71971 -9.462178,-4.14597 -13.415717,-2.2686 l -19.166271,-10.580233 -0.102835,0.16537 -0.939993,-0.50953 0.939993,-0.50953 0.102835,0.16536 19.166271,-10.58023 c 3.953542,1.877372 12.059907,3.451119 13.415717,-2.268596 0.74584,-3.146432 -0.53448,-5.897856 -3.90776,-6.775815 0.0217,-0.04425 0.0409,-0.08818 0.0615,-0.132291 l -0.20618,0.113689 c 1.05371,-3.322588 -0.5928,-5.871684 -3.653023,-6.916373 -0.60845,-0.207711 -1.186289,-0.30059 -1.733223,-0.29559 -4.453607,0.04057 -6.872491,6.571078 -7.332887,10.441739 L 85.588578,74.224938 69.592139,82.894693 64.829124,85.475931 60.066105,82.894693 44.069667,74.224938 40.972698,72.51393 C 40.512302,68.643269 38.093417,62.112763 33.639812,62.072191 Z" />
  </g>
</svg>
