<?xml version="1.0" encoding="UTF-8" standalone="no"?>
<!DOCTYPE svg PUBLIC "-//W3C//DTD SVG 1.1//EN" "http://www.w3.org/Graphics/SVG/1.1/DTD/svg11.dtd">
<svg width="100%" height="100%" viewBox="0 0 86 86" version="1.1" xmlns="http://www.w3.org/2000/svg" xmlns:xlink="http://www.w3.org/1999/xlink" xml:space="preserve" xmlns:serif="http://www.serif.com/" style="fill-rule:evenodd;clip-rule:evenodd;stroke-linejoin:round;stroke-miterlimit:2;">
    <g id="Layer_1">
        <path d="M84.277,0.3L43,0.3C19.417,0.3 0.3,19.418 0.3,43L0.3,84.277C0.3,85.063 0.937,85.7 1.723,85.7L43,85.7C66.583,85.7 85.7,66.582 85.7,43L85.7,1.723C85.7,0.937 85.063,0.3 84.277,0.3Z" style="fill:url(#_Linear1);fill-rule:nonzero;"/>
    </g>
    <g transform="matrix(2.17423,0,0,2.17423,17.8761,16.8893)">
        <path d="M23.167,4.481L18.452,3.233L18.452,5.302L22.654,6.414C23.188,6.556 23.506,7.105 23.365,7.637L19.273,23.106C19.131,23.637 18.582,23.958 18.048,23.817L14.821,22.963C14.698,22.975 14.579,23 14.452,23L7.362,23C7.524,23.076 7.692,23.144 7.871,23.191L17.538,25.75C19.14,26.175 20.782,25.219 21.206,23.617L25.299,8.15C25.722,6.549 24.768,4.905 23.167,4.481Z" style="fill:rgb(3,1,4);fill-rule:nonzero;"/>
        <g transform="matrix(0.481935,0,0,0.47736,-9.41988,-8.87284)">
            <path d="M54.45,28.214C54.45,23.633 50.766,19.914 46.229,19.914L29.785,19.914C25.247,19.914 21.563,23.633 21.563,28.214L21.563,55.099C21.563,59.68 25.247,63.4 29.785,63.4L46.229,63.4C50.766,63.4 54.45,59.68 54.45,55.099L54.45,28.214Z" style="fill:white;"/>
        </g>
        <path d="M14.452,0L3.452,0C1.796,0 0.452,1.344 0.452,3L0.452,19C0.452,20.656 1.796,22 3.452,22L14.452,22C16.108,22 17.452,20.656 17.452,19L17.452,3C17.452,1.344 16.108,0 14.452,0ZM15.452,19C15.452,19.551 15.003,20 14.452,20L3.452,20C2.901,20 2.452,19.551 2.452,19L2.452,3C2.452,2.449 2.901,2 3.452,2L14.452,2C15.003,2 15.452,2.449 15.452,3L15.452,19ZM13.341,11.414C13.341,12.799 12.414,13.679 11.09,13.682C10.405,13.682 9.712,13.219 9.319,12.835C9.319,12.835 9.687,14.538 10.358,15.826C10.445,15.993 7.498,15.997 7.577,15.828C8.23,14.432 8.596,12.835 8.596,12.835C8.202,13.201 7.446,13.687 6.813,13.688C5.492,13.689 4.559,12.811 4.557,11.428C4.555,9.11 8.929,6.071 8.929,6.071L8.953,6.071C8.953,6.071 13.337,9.098 13.341,11.414ZM13.396,3.136C13.379,3.094 13.364,3.06 13.344,3.036C13.324,3.012 13.283,3 13.221,3L12.652,3C12.591,3 12.55,3.012 12.53,3.034C12.509,3.055 12.491,3.088 12.476,3.13L11.606,5.883C11.589,5.935 11.588,5.966 11.6,5.98C11.612,5.994 11.636,6 11.669,6L12.169,6C12.213,6 12.245,5.989 12.27,5.972C12.293,5.954 12.313,5.923 12.328,5.874L12.49,5.323L13.388,5.323L13.537,5.86C13.552,5.907 13.567,5.944 13.585,5.965C13.602,5.988 13.638,6 13.689,6L14.249,6C14.282,6 14.302,5.989 14.308,5.972C14.314,5.955 14.314,5.929 14.303,5.892L13.396,3.136ZM12.643,4.778L12.778,4.274L12.927,3.726L12.948,3.726L13.094,4.278L13.229,4.778L12.643,4.778ZM5.689,16C5.637,16 5.602,16.012 5.585,16.034C5.567,16.056 5.552,16.093 5.537,16.14L5.388,16.677L4.489,16.677L4.327,16.126C4.312,16.077 4.293,16.046 4.269,16.028C4.245,16.011 4.213,16 4.169,16L3.669,16C3.636,16 3.612,16.007 3.601,16.021C3.59,16.035 3.59,16.066 3.607,16.118L4.477,18.871C4.492,18.913 4.51,18.945 4.531,18.967C4.551,18.988 4.592,19 4.652,19L5.22,19C5.283,19 5.324,18.988 5.344,18.964C5.364,18.941 5.379,18.906 5.396,18.864L6.302,16.108C6.313,16.071 6.313,16.045 6.307,16.028C6.301,16.011 6.282,16 6.249,16L5.689,16ZM5.095,17.722L4.949,18.274L4.928,18.274L4.779,17.726L4.644,17.222L5.23,17.222L5.095,17.722Z" style="fill:rgb(3,1,4);fill-rule:nonzero;"/>
        <path d="M21.344,7.259C21.34,7.214 21.332,7.178 21.321,7.15C21.307,7.121 21.27,7.099 21.21,7.084L20.661,6.936C20.604,6.92 20.561,6.92 20.536,6.936C20.509,6.953 20.483,6.979 20.459,7.015L18.901,9.445C18.87,9.492 18.862,9.52 18.87,9.538C18.877,9.554 18.897,9.566 18.93,9.575L19.413,9.706C19.455,9.717 19.489,9.716 19.517,9.704C19.544,9.694 19.572,9.669 19.599,9.626L19.899,9.136L20.766,9.37L20.771,9.928C20.771,9.977 20.778,10.017 20.789,10.042C20.801,10.069 20.831,10.089 20.882,10.103L21.422,10.249C21.454,10.258 21.476,10.254 21.486,10.237C21.496,10.222 21.502,10.197 21.502,10.159L21.344,7.259ZM20.189,8.649L20.451,8.196L20.738,7.707L20.758,7.713L20.755,8.283L20.754,8.802L20.189,8.649Z" style="fill:rgb(3,1,4);fill-rule:nonzero;"/>
    </g>
    <defs>
        <linearGradient id="_Linear1" x1="0" y1="0" x2="1" y2="0" gradientUnits="userSpaceOnUse" gradientTransform="matrix(84.5662,-84.5662,84.5662,84.5662,0.7169,85.2831)"><stop offset="0" style="stop-color:rgb(38,93,10);stop-opacity:1"/><stop offset="1" style="stop-color:rgb(131,233,52);stop-opacity:1"/></linearGradient>
    </defs>
</svg>
