<?xml version="1.0" encoding="UTF-8" standalone="no"?>
<svg
   xmlns:dc="http://purl.org/dc/elements/1.1/"
   xmlns:cc="http://creativecommons.org/ns#"
   xmlns:rdf="http://www.w3.org/1999/02/22-rdf-syntax-ns#"
   xmlns:svg="http://www.w3.org/2000/svg"
   xmlns="http://www.w3.org/2000/svg"
   xmlns:xlink="http://www.w3.org/1999/xlink"
   xmlns:sodipodi="http://sodipodi.sourceforge.net/DTD/sodipodi-0.dtd"
   xmlns:inkscape="http://www.inkscape.org/namespaces/inkscape"
   width="86px"
   height="86px"
   enable-background="new 0 0 86 86"
   version="1.1"
   viewBox="0 0 86 86"
   xml:space="preserve"
   id="svg632"
   sodipodi:docname="patience-deck.svg"
   inkscape:version="1.0.1 (3bc2e813f5, 2020-09-07, custom)"><defs
   id="defs636" /><sodipodi:namedview
   pagecolor="#ffffff"
   bordercolor="#666666"
   borderopacity="1"
   objecttolerance="10"
   gridtolerance="10"
   guidetolerance="10"
   inkscape:pageopacity="0"
   inkscape:pageshadow="2"
   inkscape:window-width="1920"
   inkscape:window-height="1016"
   id="namedview634"
   showgrid="false"
   inkscape:zoom="9.2688773"
   inkscape:cx="46.185592"
   inkscape:cy="45.224919"
   inkscape:window-x="0"
   inkscape:window-y="0"
   inkscape:window-maximized="1"
   inkscape:current-layer="svg632"
   inkscape:document-rotation="0" /><metadata
   id="metadata10"><rdf:RDF><cc:Work
       rdf:about=""><dc:format>image/svg+xml</dc:format><dc:type
         rdf:resource="http://purl.org/dc/dcmitype/StillImage" /><dc:title /></cc:Work></rdf:RDF></metadata>

<path
   d="m0.3 1.723c0-0.786 0.637-1.423 1.423-1.423h41.276c23.584 0 42.701 19.117 42.701 42.7 0 23.582-19.117 42.7-42.7 42.7s-42.7-19.118-42.7-42.7v-41.277z"
   fill="#008000"
   id="path12" /><g
   id="spade_1-2"
   transform="matrix(0.12507736,0,0,0.12507736,17.998916,-104.19919)"><rect
     width="201.08269"
     height="313.5827"
     rx="8.6760731"
     ry="8.6760731"
     x="0.70866394"
     y="945.70862"
     style="fill:#ffffff;fill-rule:evenodd;stroke:#000000;stroke-width:2.4;stroke-linecap:round;stroke-linejoin:round"
     id="use9363-9" /><path
     d="m 26.40765,1070.225 h 5.813827 l 0.175879,-0.1896 c -1.634276,-2.747 -2.444497,-7.699 -2.444497,-14.847 l 0.04545,-0.7447 c 1.377371,4.28 4.551068,7.2562 9.206874,7.2562 5.576688,0 9.643602,-5.1737 9.732527,-10.6792 0,-8.4459 -11.153381,-14.5701 -19.623151,-29.4761 -8.469771,14.906 -19.6211774,21.0302 -19.6211774,29.4761 0.08695,5.5055 4.1538634,10.6792 9.7305574,10.6792 4.655802,0 7.829497,-2.9762 9.206874,-7.2562 l 0.04545,0.7447 c 0,7.148 -0.810223,12.1 -2.442518,14.847 z"
     id="path37946-1"
     style="stroke-width:1.97614" /><path
     d="m 93.430537,1164.9872 h 14.570873 l 0.43554,-0.4766 c -4.09033,-6.885 -6.12527,-19.2942 -6.12527,-37.2051 l 0.1149,-1.8658 c 3.45395,10.7261 11.406,18.1848 23.07335,18.1848 13.97684,0 24.16581,-12.9642 24.38476,-26.7635 0,-21.1619 -27.94403,-36.507 -49.16882,-73.8619 -21.224772,37.3549 -49.171224,52.7 -49.171224,73.8619 0.218972,13.7993 10.410356,26.7635 24.386003,26.7635 11.668549,0 19.618169,-7.4587 23.072179,-18.1848 l 0.114989,1.8658 c 0,17.9109 -2.034908,30.3201 -6.125249,37.2051 z"
     id="use22215-7"
     style="stroke-width:1.20983" /><path
     d="M 42.327836,1015.1246 28.851628,962.9848 15.37542,1014.4373 m -3.578712,1.724 h 7.159293 m 19.793126,0 h 7.157424 M 35.099431,995.57241 H 22.603822"
     style="fill:none;stroke:#000000;stroke-width:5.60342;stroke-linecap:square;stroke-linejoin:bevel"
     id="use20217-9" /></g>
<g
   transform="matrix(0.09048912,0.04015457,-0.10853887,0.04232497,154.01133,6.6681925)"
   id="back-3"><path
     id="rect3668-80"
     style="fill:#ffffff;fill-rule:evenodd;stroke:#000000;stroke-width:2.4;stroke-linecap:round;stroke-linejoin:round"
     d="M 46.041887,945.98853 H 229.77243 c 4.80654,0 8.67607,3.86952 8.67607,8.67607 v 296.2306 c 0,4.8065 -3.86953,8.676 -8.67607,8.676 H 46.041887 c -4.806544,0 -8.676073,-3.8695 -8.676073,-8.676 V 954.6646 c 0,-4.80655 3.869529,-8.67607 8.676073,-8.67607 z" /></g><g
   transform="matrix(0.09048912,0.04015457,-0.10853887,0.04232497,154.01133,6.1740822)"
   id="back-6-9"><path
     id="rect3668-8-0"
     style="fill:#ffffff;fill-rule:evenodd;stroke:#000000;stroke-width:2.4;stroke-linecap:round;stroke-linejoin:round"
     d="M 46.041887,945.98853 H 229.77243 c 4.80654,0 8.67607,3.86952 8.67607,8.67607 v 296.2306 c 0,4.8065 -3.86953,8.676 -8.67607,8.676 H 46.041887 c -4.806544,0 -8.676073,-3.8695 -8.676073,-8.676 V 954.6646 c 0,-4.80655 3.869529,-8.67607 8.676073,-8.67607 z" /></g><g
   transform="matrix(0.09048912,0.04015457,-0.10853887,0.04232497,154.01133,5.6799721)"
   id="back-4-2"><path
     id="rect3668-7-1"
     style="fill:#ffffff;fill-rule:evenodd;stroke:#000000;stroke-width:2.4;stroke-linecap:round;stroke-linejoin:round"
     d="M 46.041887,945.98853 H 229.77243 c 4.80654,0 8.67607,3.86952 8.67607,8.67607 v 296.2306 c 0,4.8065 -3.86953,8.676 -8.67607,8.676 H 46.041887 c -4.806544,0 -8.676073,-3.8695 -8.676073,-8.676 V 954.6646 c 0,-4.80655 3.869529,-8.67607 8.676073,-8.67607 z" /></g><g
   transform="matrix(0.09048912,0.04015457,-0.10853887,0.04232497,154.01133,5.1858617)"
   id="back-3-4"><path
     id="rect3668-80-5"
     style="fill:#ffffff;fill-rule:evenodd;stroke:#000000;stroke-width:2.4;stroke-linecap:round;stroke-linejoin:round"
     d="M 46.041887,945.98853 H 229.77243 c 4.80654,0 8.67607,3.86952 8.67607,8.67607 v 296.2306 c 0,4.8065 -3.86953,8.676 -8.67607,8.676 H 46.041887 c -4.806544,0 -8.676073,-3.8695 -8.676073,-8.676 V 954.6646 c 0,-4.80655 3.869529,-8.67607 8.676073,-8.67607 z" /></g><g
   transform="matrix(0.09048912,0.04015457,-0.10853887,0.04232497,154.01133,4.6917516)"
   id="back-6-9-2"><path
     id="rect3668-8-0-4"
     style="fill:#ffffff;fill-rule:evenodd;stroke:#000000;stroke-width:2.4;stroke-linecap:round;stroke-linejoin:round"
     d="M 46.041887,945.98853 H 229.77243 c 4.80654,0 8.67607,3.86952 8.67607,8.67607 v 296.2306 c 0,4.8065 -3.86953,8.676 -8.67607,8.676 H 46.041887 c -4.806544,0 -8.676073,-3.8695 -8.676073,-8.676 V 954.6646 c 0,-4.80655 3.869529,-8.67607 8.676073,-8.67607 z" /></g><g
   transform="matrix(0.09048912,0.04015457,-0.10853887,0.04232497,154.01133,4.1976413)"
   id="back-4-2-4"><path
     id="rect3668-7-1-9"
     style="fill:#ffffff;fill-rule:evenodd;stroke:#000000;stroke-width:2.4;stroke-linecap:round;stroke-linejoin:round"
     d="M 46.041887,945.98853 H 229.77243 c 4.80654,0 8.67607,3.86952 8.67607,8.67607 v 296.2306 c 0,4.8065 -3.86953,8.676 -8.67607,8.676 H 46.041887 c -4.806544,0 -8.676073,-3.8695 -8.676073,-8.676 V 954.6646 c 0,-4.80655 3.869529,-8.67607 8.676073,-8.67607 z" /></g><g
   transform="matrix(0.09048912,0.04015457,-0.10853887,0.04232497,154.01133,3.7035312)"
   id="back-3-6"><path
     id="rect3668-80-2"
     style="fill:#ffffff;fill-rule:evenodd;stroke:#000000;stroke-width:2.4;stroke-linecap:round;stroke-linejoin:round"
     d="M 46.041887,945.98853 H 229.77243 c 4.80654,0 8.67607,3.86952 8.67607,8.67607 v 296.2306 c 0,4.8065 -3.86953,8.676 -8.67607,8.676 H 46.041887 c -4.806544,0 -8.676073,-3.8695 -8.676073,-8.676 V 954.6646 c 0,-4.80655 3.869529,-8.67607 8.676073,-8.67607 z" /></g><g
   transform="matrix(0.09048912,0.04015457,-0.10853887,0.04232497,154.01133,3.2094209)"
   id="back-6-9-0"><path
     id="rect3668-8-0-3"
     style="fill:#ffffff;fill-rule:evenodd;stroke:#000000;stroke-width:2.4;stroke-linecap:round;stroke-linejoin:round"
     d="M 46.041887,945.98853 H 229.77243 c 4.80654,0 8.67607,3.86952 8.67607,8.67607 v 296.2306 c 0,4.8065 -3.86953,8.676 -8.67607,8.676 H 46.041887 c -4.806544,0 -8.676073,-3.8695 -8.676073,-8.676 V 954.6646 c 0,-4.80655 3.869529,-8.67607 8.676073,-8.67607 z" /></g><g
   transform="matrix(0.09048912,0.04015457,-0.10853887,0.04232497,154.01133,2.7153107)"
   id="back-4-2-1"><path
     id="rect3668-7-1-0"
     style="fill:#ffffff;fill-rule:evenodd;stroke:#000000;stroke-width:2.4;stroke-linecap:round;stroke-linejoin:round"
     d="M 46.041887,945.98853 H 229.77243 c 4.80654,0 8.67607,3.86952 8.67607,8.67607 v 296.2306 c 0,4.8065 -3.86953,8.676 -8.67607,8.676 H 46.041887 c -4.806544,0 -8.676073,-3.8695 -8.676073,-8.676 V 954.6646 c 0,-4.80655 3.869529,-8.67607 8.676073,-8.67607 z" /></g><g
   transform="matrix(0.09048912,0.04015457,-0.10853887,0.04232497,154.01133,2.2212003)"
   id="back-3-4-6"><path
     id="rect3668-80-5-8"
     style="fill:#ffffff;fill-rule:evenodd;stroke:#000000;stroke-width:2.4;stroke-linecap:round;stroke-linejoin:round"
     d="M 46.041887,945.98853 H 229.77243 c 4.80654,0 8.67607,3.86952 8.67607,8.67607 v 296.2306 c 0,4.8065 -3.86953,8.676 -8.67607,8.676 H 46.041887 c -4.806544,0 -8.676073,-3.8695 -8.676073,-8.676 V 954.6646 c 0,-4.80655 3.869529,-8.67607 8.676073,-8.67607 z" /></g><g
   transform="matrix(0.09048912,0.04015457,-0.10853887,0.04232497,154.01133,1.7270899)"
   id="back-6-9-2-8"><path
     id="rect3668-8-0-4-9"
     style="fill:#ffffff;fill-rule:evenodd;stroke:#000000;stroke-width:2.4;stroke-linecap:round;stroke-linejoin:round"
     d="M 46.041887,945.98853 H 229.77243 c 4.80654,0 8.67607,3.86952 8.67607,8.67607 v 296.2306 c 0,4.8065 -3.86953,8.676 -8.67607,8.676 H 46.041887 c -4.806544,0 -8.676073,-3.8695 -8.676073,-8.676 V 954.6646 c 0,-4.80655 3.869529,-8.67607 8.676073,-8.67607 z" /></g><g
   transform="matrix(0.09048912,0.04015457,-0.10853887,0.04232497,154.01133,1.2329797)"
   id="back-4-2-4-6"><path
     id="rect3668-7-1-9-3"
     style="fill:#ffffff;fill-rule:evenodd;stroke:#000000;stroke-width:2.4;stroke-linecap:round;stroke-linejoin:round"
     d="M 46.041887,945.98853 H 229.77243 c 4.80654,0 8.67607,3.86952 8.67607,8.67607 v 296.2306 c 0,4.8065 -3.86953,8.676 -8.67607,8.676 H 46.041887 c -4.806544,0 -8.676073,-3.8695 -8.676073,-8.676 V 954.6646 c 0,-4.80655 3.869529,-8.67607 8.676073,-8.67607 z" /></g><g
   transform="matrix(0.09048912,0.04015457,-0.10853887,0.04232497,154.01133,0.73886939)"
   id="back-3-45"><path
     id="rect3668-80-8"
     style="fill:#ffffff;fill-rule:evenodd;stroke:#000000;stroke-width:2.4;stroke-linecap:round;stroke-linejoin:round"
     d="M 46.041887,945.98853 H 229.77243 c 4.80654,0 8.67607,3.86952 8.67607,8.67607 v 296.2306 c 0,4.8065 -3.86953,8.676 -8.67607,8.676 H 46.041887 c -4.806544,0 -8.676073,-3.8695 -8.676073,-8.676 V 954.6646 c 0,-4.80655 3.869529,-8.67607 8.676073,-8.67607 z" /></g><g
   transform="matrix(0.09048912,0.04015457,-0.10853887,0.04232497,154.01133,0.24475909)"
   id="back-6-9-3"><path
     id="rect3668-8-0-6"
     style="fill:#ffffff;fill-rule:evenodd;stroke:#000000;stroke-width:2.4;stroke-linecap:round;stroke-linejoin:round"
     d="M 46.041887,945.98853 H 229.77243 c 4.80654,0 8.67607,3.86952 8.67607,8.67607 v 296.2306 c 0,4.8065 -3.86953,8.676 -8.67607,8.676 H 46.041887 c -4.806544,0 -8.676073,-3.8695 -8.676073,-8.676 V 954.6646 c 0,-4.80655 3.869529,-8.67607 8.676073,-8.67607 z" /></g><g
   transform="matrix(0.09048912,0.04015457,-0.10853887,0.04232497,154.01133,-0.24935111)"
   id="back-4-2-5"><path
     id="rect3668-7-1-4"
     style="fill:#ffffff;fill-rule:evenodd;stroke:#000000;stroke-width:2.4;stroke-linecap:round;stroke-linejoin:round"
     d="M 46.041887,945.98853 H 229.77243 c 4.80654,0 8.67607,3.86952 8.67607,8.67607 v 296.2306 c 0,4.8065 -3.86953,8.676 -8.67607,8.676 H 46.041887 c -4.806544,0 -8.676073,-3.8695 -8.676073,-8.676 V 954.6646 c 0,-4.80655 3.869529,-8.67607 8.676073,-8.67607 z" /></g><g
   transform="matrix(0.09048912,0.04015457,-0.10853887,0.04232497,154.01133,-0.74346139)"
   id="back-3-4-3"><path
     id="rect3668-80-5-3"
     style="fill:#ffffff;fill-rule:evenodd;stroke:#000000;stroke-width:2.4;stroke-linecap:round;stroke-linejoin:round"
     d="M 46.041887,945.98853 H 229.77243 c 4.80654,0 8.67607,3.86952 8.67607,8.67607 v 296.2306 c 0,4.8065 -3.86953,8.676 -8.67607,8.676 H 46.041887 c -4.806544,0 -8.676073,-3.8695 -8.676073,-8.676 V 954.6646 c 0,-4.80655 3.869529,-8.67607 8.676073,-8.67607 z" /></g><g
   transform="matrix(0.09048912,0.04015457,-0.10853887,0.04232497,154.01133,-1.2375716)"
   id="back-6-9-2-2"><path
     id="rect3668-8-0-4-8"
     style="fill:#ffffff;fill-rule:evenodd;stroke:#000000;stroke-width:2.4;stroke-linecap:round;stroke-linejoin:round"
     d="M 46.041887,945.98853 H 229.77243 c 4.80654,0 8.67607,3.86952 8.67607,8.67607 v 296.2306 c 0,4.8065 -3.86953,8.676 -8.67607,8.676 H 46.041887 c -4.806544,0 -8.676073,-3.8695 -8.676073,-8.676 V 954.6646 c 0,-4.80655 3.869529,-8.67607 8.676073,-8.67607 z" /></g><g
   transform="matrix(0.09048912,0.04015457,-0.10853887,0.04232497,154.01133,-1.7316819)"
   id="back-4-2-4-3"><path
     id="rect3668-7-1-9-7"
     style="fill:#ffffff;fill-rule:evenodd;stroke:#000000;stroke-width:2.4;stroke-linecap:round;stroke-linejoin:round"
     d="M 46.041887,945.98853 H 229.77243 c 4.80654,0 8.67607,3.86952 8.67607,8.67607 v 296.2306 c 0,4.8065 -3.86953,8.676 -8.67607,8.676 H 46.041887 c -4.806544,0 -8.676073,-3.8695 -8.676073,-8.676 V 954.6646 c 0,-4.80655 3.869529,-8.67607 8.676073,-8.67607 z" /></g><g
   transform="matrix(0.09048912,0.04015457,-0.10853887,0.04232497,154.01133,-2.2257922)"
   id="back-3-6-0"><path
     id="rect3668-80-2-3"
     style="fill:#ffffff;fill-rule:evenodd;stroke:#000000;stroke-width:2.4;stroke-linecap:round;stroke-linejoin:round"
     d="M 46.041887,945.98853 H 229.77243 c 4.80654,0 8.67607,3.86952 8.67607,8.67607 v 296.2306 c 0,4.8065 -3.86953,8.676 -8.67607,8.676 H 46.041887 c -4.806544,0 -8.676073,-3.8695 -8.676073,-8.676 V 954.6646 c 0,-4.80655 3.869529,-8.67607 8.676073,-8.67607 z" /></g><g
   transform="matrix(0.09048912,0.04015457,-0.10853887,0.04232497,154.01133,-2.7199024)"
   id="back-6-9-0-9"><path
     id="rect3668-8-0-3-0"
     style="fill:#ffffff;fill-rule:evenodd;stroke:#000000;stroke-width:2.4;stroke-linecap:round;stroke-linejoin:round"
     d="M 46.041887,945.98853 H 229.77243 c 4.80654,0 8.67607,3.86952 8.67607,8.67607 v 296.2306 c 0,4.8065 -3.86953,8.676 -8.67607,8.676 H 46.041887 c -4.806544,0 -8.676073,-3.8695 -8.676073,-8.676 V 954.6646 c 0,-4.80655 3.869529,-8.67607 8.676073,-8.67607 z" /></g><g
   transform="matrix(0.09048912,0.04015457,-0.10853887,0.04232497,154.01133,-3.2140127)"
   id="back-4-2-1-8"><path
     id="rect3668-7-1-0-7"
     style="fill:#ffffff;fill-rule:evenodd;stroke:#000000;stroke-width:2.4;stroke-linecap:round;stroke-linejoin:round"
     d="M 46.041887,945.98853 H 229.77243 c 4.80654,0 8.67607,3.86952 8.67607,8.67607 v 296.2306 c 0,4.8065 -3.86953,8.676 -8.67607,8.676 H 46.041887 c -4.806544,0 -8.676073,-3.8695 -8.676073,-8.676 V 954.6646 c 0,-4.80655 3.869529,-8.67607 8.676073,-8.67607 z" /></g><g
   transform="matrix(0.09048912,0.04015457,-0.10853887,0.04232497,154.01133,-3.7081229)"
   id="back-3-4-6-1"><path
     id="rect3668-80-5-8-7"
     style="fill:#ffffff;fill-rule:evenodd;stroke:#000000;stroke-width:2.4;stroke-linecap:round;stroke-linejoin:round"
     d="M 46.041887,945.98853 H 229.77243 c 4.80654,0 8.67607,3.86952 8.67607,8.67607 v 296.2306 c 0,4.8065 -3.86953,8.676 -8.67607,8.676 H 46.041887 c -4.806544,0 -8.676073,-3.8695 -8.676073,-8.676 V 954.6646 c 0,-4.80655 3.869529,-8.67607 8.676073,-8.67607 z" /></g><g
   transform="matrix(0.09048912,0.04015457,-0.10853887,0.04232497,154.01133,-4.2022336)"
   id="back-6-9-2-8-9"><path
     id="rect3668-8-0-4-9-2"
     style="fill:#ffffff;fill-rule:evenodd;stroke:#000000;stroke-width:2.4;stroke-linecap:round;stroke-linejoin:round"
     d="M 46.041887,945.98853 H 229.77243 c 4.80654,0 8.67607,3.86952 8.67607,8.67607 v 296.2306 c 0,4.8065 -3.86953,8.676 -8.67607,8.676 H 46.041887 c -4.806544,0 -8.676073,-3.8695 -8.676073,-8.676 V 954.6646 c 0,-4.80655 3.869529,-8.67607 8.676073,-8.67607 z" /></g><g
   transform="matrix(0.09048912,0.04015457,-0.10853887,0.04232497,154.01133,-4.6963436)"
   id="back-4-2-4-6-9"><path
     id="rect3668-7-1-9-3-1"
     style="fill:#ffffff;fill-rule:evenodd;stroke:#000000;stroke-width:2.4;stroke-linecap:round;stroke-linejoin:round"
     d="M 46.041887,945.98853 H 229.77243 c 4.80654,0 8.67607,3.86952 8.67607,8.67607 v 296.2306 c 0,4.8065 -3.86953,8.676 -8.67607,8.676 H 46.041887 c -4.806544,0 -8.676073,-3.8695 -8.676073,-8.676 V 954.6646 c 0,-4.80655 3.869529,-8.67607 8.676073,-8.67607 z" /></g><g
   transform="matrix(0.09048912,0.04015457,-0.10853887,0.04232497,154.01133,-5.1904536)"
   id="back-6-9-2-8-9-1"><path
     id="rect3668-8-0-4-9-2-4"
     style="fill:#ffffff;fill-rule:evenodd;stroke:#000000;stroke-width:2.4;stroke-linecap:round;stroke-linejoin:round"
     d="M 46.041887,945.98853 H 229.77243 c 4.80654,0 8.67607,3.86952 8.67607,8.67607 v 296.2306 c 0,4.8065 -3.86953,8.676 -8.67607,8.676 H 46.041887 c -4.806544,0 -8.676073,-3.8695 -8.676073,-8.676 V 954.6646 c 0,-4.80655 3.869529,-8.67607 8.676073,-8.67607 z" /></g><g
   transform="matrix(0.09048912,0.04015457,-0.10853887,0.04232497,154.01133,-5.6845636)"
   id="back-4-2-4-6-9-4"><path
     id="rect3668-7-1-9-3-1-9"
     style="fill:#ffffff;fill-rule:evenodd;stroke:#000000;stroke-width:2.4;stroke-linecap:round;stroke-linejoin:round"
     d="M 46.041887,945.98853 H 229.77243 c 4.80654,0 8.67607,3.86952 8.67607,8.67607 v 296.2306 c 0,4.8065 -3.86953,8.676 -8.67607,8.676 H 46.041887 c -4.806544,0 -8.676073,-3.8695 -8.676073,-8.676 V 954.6646 c 0,-4.80655 3.869529,-8.67607 8.676073,-8.67607 z" /><g
     transform="matrix(0.9639,0,0,0.9771,4.9827,25.3082)"
     id="g10474-9-7-4-9-9-9"><path
       id="rect6588-39-7-1-9-4-3"
       style="fill:#000055;fill-rule:evenodd;stroke:#ffffff;stroke-width:1.5;stroke-linecap:round;stroke-linejoin:round"
       d="M 49.538199,949.16418 H 226.27612 c 4.98671,0 9.00129,4.01458 9.00129,9.0013 v 289.22882 c 0,4.9868 -4.01458,9.0013 -9.00129,9.0013 H 49.538199 c -4.986718,0 -9.001296,-4.0145 -9.001296,-9.0013 V 958.16548 c 0,-4.98672 4.014578,-9.0013 9.001296,-9.0013 z" /><path
       d="m 234.929,1238.247 -10.173,17.798 M 40.885,1137.103 147.898,949.515 m 57.515,306.53 29.516,-51.768 m -68.264,51.768 68.264,-119.678 m -107.013,119.678 107.013,-187.588 m -145.7,187.588 145.7,-255.437 M 50.481,1256.045 225.333,949.515 m -184.448,255.437 145.7,-255.437 m -145.7,119.678 68.265,-119.678 m -68.265,51.768 29.517,-51.768 m -19.344,0 -10.173,17.828 m 48.891,-17.828 -48.891,85.708 m 87.639,-85.708 -87.639,153.618 M 167.242,949.515 40.885,1171.043 M 205.959,949.515 40.885,1238.922 M 234.929,966.638 69.855,1256.045 m 165.074,-221.497 -126.356,221.497 m 126.356,-153.618 -87.638,153.618 m 87.638,-85.708 -48.89,85.708"
       style="fill:none;stroke:#ffffff;stroke-width:1.5;stroke-linejoin:round"
       id="path3670-28-9-9-5-2-8" /><path
       d="m 40.8853,1238.247 10.173,17.798 m 183.871,-118.942 -107.013,-187.588 m -57.515,306.53 -29.516,-51.768 m 68.264,51.768 -68.264,-119.678 m 107.013,119.678 -107.013,-187.588 m 145.7,187.588 -145.7,-255.437 m 184.448,255.437 -174.852,-306.53 m 184.448,255.437 -145.7,-255.437 m 145.7,119.678 -68.265,-119.678 m 68.265,51.768 -29.517,-51.768 m 19.344,0 10.173,17.828 m -48.891,-17.828 48.891,85.708 m -87.639,-85.708 87.639,153.618 m -126.357,-153.618 126.357,221.528 m -165.074,-221.528 165.074,289.407 m -194.044,-272.284 165.074,289.407 m -165.074,-221.497 126.356,221.497 m -126.356,-153.618 87.638,153.618 m -87.638,-85.708 48.89,85.708"
       style="fill:none;stroke:#ffffff;stroke-width:1.5;stroke-linejoin:round"
       id="use6586-30-7-5-2-0-3" /></g></g></svg>
