<?xml version="1.0" encoding="UTF-8" standalone="no"?>
<!DOCTYPE svg PUBLIC "-//W3C//DTD SVG 1.1//EN" "http://www.w3.org/Graphics/SVG/1.1/DTD/svg11.dtd">
<svg width="100%" height="100%" viewBox="0 0 86 86" version="1.1" xmlns="http://www.w3.org/2000/svg" xmlns:xlink="http://www.w3.org/1999/xlink" xml:space="preserve" xmlns:serif="http://www.serif.com/" style="fill-rule:evenodd;clip-rule:evenodd;stroke-linejoin:round;stroke-miterlimit:2;">
    <g transform="matrix(-1,0,0,1,86,0)">
        <path d="M84.277,0.3L43,0.3C19.417,0.3 0.3,19.418 0.3,43L0.3,84.277C0.3,85.063 0.937,85.7 1.723,85.7L43,85.7C66.583,85.7 85.7,66.582 85.7,43L85.7,1.723C85.7,0.937 85.063,0.3 84.277,0.3Z" style="fill:url(#_Linear1);fill-rule:nonzero;"/>
    </g>
    <g transform="matrix(0.982877,0,0,0.949764,8.50381,10.0021)">
        <g transform="matrix(0.100034,0,0,0.100034,22.4961,12.4301)">
            <path d="M132.378,481.095L132.378,61.811C132.378,44.742 146.214,30.906 163.283,30.906L379.621,30.906C396.69,30.906 410.526,44.742 410.526,61.811L410.526,481.095C410.526,498.164 396.69,512 379.621,512L163.284,512C146.215,512 132.378,498.164 132.378,481.095Z" style="fill:rgb(255,249,235);fill-rule:nonzero;"/>
        </g>
        <g transform="matrix(0.100034,0,0,0.100034,26.4961,16.4301)">
            <path d="M101.473,450.189L101.473,30.905C101.473,13.836 115.309,0 132.378,0L348.716,0C365.785,0 379.621,13.836 379.621,30.905L379.621,450.189C379.621,467.258 365.785,481.094 348.716,481.094L132.378,481.094C115.309,481.095 101.473,467.258 101.473,450.189Z" style="fill:rgb(211,205,191);fill-rule:nonzero;"/>
        </g>
        <g transform="matrix(0.100034,0,0,0.100034,24.4961,14.4301)">
            <path d="M132.378,481.095L132.378,61.811C132.378,44.742 146.214,30.906 163.283,30.906L379.621,30.906C396.69,30.906 410.526,44.742 410.526,61.811L410.526,481.095C410.526,498.164 396.69,512 379.621,512L163.284,512C146.215,512 132.378,498.164 132.378,481.095Z" style="fill:rgb(255,249,235);fill-rule:nonzero;"/>
        </g>
        <g transform="matrix(0.100034,0,0,0.100034,28.4961,18.4301)">
            <path d="M101.473,450.189L101.473,30.905C101.473,13.836 115.309,0 132.378,0L348.716,0C365.785,0 379.621,13.836 379.621,30.905L379.621,450.189C379.621,467.258 365.785,481.094 348.716,481.094L132.378,481.094C115.309,481.095 101.473,467.258 101.473,450.189Z" style="fill:rgb(211,205,191);fill-rule:nonzero;"/>
        </g>
        <g transform="matrix(0.100034,0,0,0.100034,26.4961,16.4301)">
            <path d="M132.378,481.095L132.378,61.811C132.378,44.742 146.214,30.906 163.283,30.906L379.621,30.906C396.69,30.906 410.526,44.742 410.526,61.811L410.526,481.095C410.526,498.164 396.69,512 379.621,512L163.284,512C146.215,512 132.378,498.164 132.378,481.095Z" style="fill:rgb(255,249,235);fill-rule:nonzero;"/>
        </g>
        <g transform="matrix(0.100034,0,0,0.100034,26.4961,16.4301)">
            <path d="M163.284,512L379.622,512C396.691,512 410.527,498.164 410.527,481.095L410.527,61.811C410.527,50.374 404.309,40.395 395.074,35.05C385.839,40.395 379.621,50.374 379.621,61.811L379.621,392.757C379.621,441.545 340.07,481.095 291.283,481.095L163.283,481.095C151.846,481.095 141.867,487.313 136.522,496.548C141.867,505.782 151.847,512 163.284,512Z" style="fill:rgb(233,227,213);fill-rule:nonzero;"/>
        </g>
        <g transform="matrix(0.100034,0,0,0.100034,26.4961,16.4301)">
            <path d="M379.622,105.893C379.622,99.089 375.265,93.164 368.885,90.8C360.65,87.748 353.845,81.189 350.629,72.526C348.272,66.152 342.339,61.811 335.544,61.811L216.337,61.811L163.284,114.864L163.284,436.878C163.284,443.573 167.353,449.726 173.659,451.975C181.534,454.783 187.932,460.698 191.388,468.242C191.761,469.057 192.1,469.89 192.404,470.74C194.638,477.009 200.702,481.094 207.356,481.094L324.506,481.094L379.622,425.978L379.622,105.893Z" style="fill:rgb(108,122,136);fill-rule:nonzero;"/>
        </g>
        <g transform="matrix(0.100034,0,0,0.100034,26.4961,16.4301)">
            <path d="M229.78,61.811L207.361,61.811C200.932,61.811 194.808,65.74 192.239,72.627C189.102,81.02 182.423,87.685 174.02,90.8C167.884,93.075 163.283,98.649 163.283,106.454C163.283,125.583 163.283,101.088 163.283,128.308L229.78,61.811Z" style="fill:rgb(77,89,103);fill-rule:nonzero;"/>
        </g>
        <g transform="matrix(0.100034,0,0,0.100034,26.4961,16.4301)">
            <path d="M251.633,61.811L163.284,150.161L163.284,172.014L273.487,61.811L251.633,61.811Z" style="fill:rgb(77,89,103);fill-rule:nonzero;"/>
        </g>
        <g transform="matrix(0.100034,0,0,0.100034,26.4961,16.4301)">
            <path d="M295.341,61.811L163.284,193.868L163.284,215.722L317.195,61.811L295.341,61.811Z" style="fill:rgb(77,89,103);fill-rule:nonzero;"/>
        </g>
        <g transform="matrix(0.100034,0,0,0.100034,26.4961,16.4301)">
            <path d="M338.713,62.145L163.283,237.575L163.283,259.429L350.5,72.213C348.46,67.018 344.028,63.237 338.713,62.145Z" style="fill:rgb(77,89,103);fill-rule:nonzero;"/>
        </g>
        <g transform="matrix(0.100034,0,0,0.100034,26.4961,16.4301)">
            <path d="M359.398,85.167L163.284,281.282L163.284,303.136L373.235,93.185C368.96,89.941 365.841,90.752 359.398,85.167Z" style="fill:rgb(77,89,103);fill-rule:nonzero;"/>
        </g>
        <g transform="matrix(0.100034,0,0,0.100034,26.4961,16.4301)">
            <path d="M163.284,324.988L163.284,346.842L379.622,130.504L379.622,108.65L163.284,324.988Z" style="fill:rgb(77,89,103);fill-rule:nonzero;"/>
        </g>
        <g transform="matrix(0.100034,0,0,0.100034,26.4961,16.4301)">
            <path d="M163.284,390.549L379.622,174.211L379.622,152.357L163.284,368.695L163.284,390.549Z" style="fill:rgb(77,89,103);fill-rule:nonzero;"/>
        </g>
        <g transform="matrix(0.100034,0,0,0.100034,26.4961,16.4301)">
            <path d="M163.284,434.255L379.622,217.917L379.622,196.063L163.284,412.401L163.284,434.255Z" style="fill:rgb(77,89,103);fill-rule:nonzero;"/>
        </g>
        <g transform="matrix(0.100034,0,0,0.100034,26.4961,16.4301)">
            <path d="M183.504,457.741L379.622,261.624L379.622,239.77L169.612,449.779C173.467,452.696 177.154,452.233 183.504,457.741Z" style="fill:rgb(77,89,103);fill-rule:nonzero;"/>
        </g>
        <g transform="matrix(0.100034,0,0,0.100034,26.4961,16.4301)">
            <path d="M192.404,470.74C194.276,475.992 198.84,479.702 204.183,480.77L379.622,305.331L379.622,283.477L192.39,470.708C192.395,470.72 192.4,470.729 192.404,470.74Z" style="fill:rgb(77,89,103);fill-rule:nonzero;"/>
        </g>
        <g transform="matrix(0.100034,0,0,0.100034,26.4961,16.4301)">
            <path d="M247.565,481.095L379.622,349.038L379.622,327.183L225.711,481.095L247.565,481.095Z" style="fill:rgb(77,89,103);fill-rule:nonzero;"/>
        </g>
        <g transform="matrix(0.100034,0,0,0.100034,26.4961,16.4301)">
            <path d="M291.272,481.095L379.622,392.745L379.622,370.891L269.418,481.095L291.272,481.095Z" style="fill:rgb(77,89,103);fill-rule:nonzero;"/>
        </g>
        <g transform="matrix(0.100034,0,0,0.100034,26.4961,16.4301)">
            <path d="M335.55,481.095C342.205,481.095 348.269,477.009 350.502,470.741C353.611,462.015 360.513,455.092 369.247,451.976C375.066,449.9 379.622,444.249 379.622,436.452L379.622,414.598L313.125,481.095C319.084,481.095 305.624,481.095 335.55,481.095Z" style="fill:rgb(77,89,103);fill-rule:nonzero;"/>
        </g>
    </g>
    <g transform="matrix(0.0980543,0,0,0.0947509,-2.14356,8.25983)">
        <path d="M132.378,481.095L132.378,61.811C132.378,44.742 146.214,30.906 163.283,30.906L379.621,30.906C396.69,30.906 410.526,44.742 410.526,61.811L410.526,481.095C410.526,498.164 396.69,512 379.621,512L163.284,512C146.215,512 132.378,498.164 132.378,481.095Z" style="fill:rgb(255,249,235);fill-rule:nonzero;"/>
        <path d="M163.284,512L379.622,512C396.691,512 410.527,498.164 410.527,481.095L410.527,61.811C410.527,50.374 404.309,40.395 395.074,35.05C385.839,40.395 379.621,50.374 379.621,61.811L379.621,481.095L163.284,481.095C151.847,481.095 141.868,487.313 136.523,496.548C141.867,505.782 151.847,512 163.284,512Z" style="fill:rgb(233,227,213);fill-rule:nonzero;"/>
        <path d="M184.29,322.327C207.782,348.283 247.288,348.828 271.453,323.961C295.617,348.828 335.123,348.283 358.616,322.327C380.993,297.603 379.274,258.678 356.058,234.787L303.565,180.768C285.83,162.518 257.077,162.518 239.342,180.768L186.849,234.787C163.633,258.678 161.914,297.604 184.29,322.327Z" style="fill:rgb(108,122,136);fill-rule:nonzero;"/>
        <g>
            <path d="M356.056,234.788L303.563,180.768C295.788,172.768 285.896,168.276 275.744,167.29C270.239,178.656 272.088,192.725 281.399,202.307L333.892,256.327C334.252,256.696 334.601,257.073 334.94,257.455C351.159,275.736 337.084,304.728 312.654,304.07C303.686,303.828 294.761,301.547 286.589,297.224C277.19,292.251 265.836,292.156 256.449,297.153C233.037,309.615 203.377,305.302 184.289,284.212C184.227,284.144 184.166,284.076 184.106,284.008C178.42,277.668 167.914,282.502 169.282,290.907C171.14,302.327 176.1,313.278 184.29,322.328C204.901,345.1 237.836,348.308 261.924,331.96L241.788,357.472C235.923,364.904 241.216,375.825 250.684,375.825L292.221,375.825C301.688,375.825 306.981,364.904 301.117,357.472L280.98,331.958C305.079,348.311 338.02,345.072 358.609,322.334C380.881,297.736 379.357,258.766 356.056,234.788Z" style="fill:rgb(77,89,103);fill-rule:nonzero;"/>
            <path d="M192.146,70.418C191.015,67.403 188.132,65.404 184.912,65.404C181.692,65.404 178.808,67.402 177.678,70.418L160.294,116.776C158.795,120.771 160.82,125.225 164.815,126.723C168.809,128.22 173.265,126.197 174.762,122.202L175.779,119.49L194.044,119.49L195.061,122.202C196.224,125.304 199.168,127.218 202.296,127.218C203.197,127.218 204.114,127.059 205.007,126.725C209.002,125.226 211.027,120.774 209.528,116.778L192.146,70.418ZM181.575,104.036L184.913,95.135L188.251,104.036L181.575,104.036Z" style="fill:rgb(77,89,103);fill-rule:nonzero;"/>
            <path d="M382.612,467.059L365.228,420.701C364.097,417.686 361.214,415.687 357.994,415.687C354.774,415.687 351.89,417.685 350.76,420.701L333.376,467.059C331.877,471.054 333.902,475.508 337.897,477.006C341.893,478.504 346.347,476.48 347.844,472.485L348.861,469.773L367.126,469.773L368.143,472.485C369.306,475.587 372.25,477.501 375.378,477.501C376.279,477.501 377.196,477.342 378.089,477.008C382.086,475.509 384.11,471.055 382.612,467.059ZM354.655,454.32L357.993,445.419L361.331,454.32L354.655,454.32Z" style="fill:rgb(77,89,103);fill-rule:nonzero;"/>
        </g>
    </g>
    <defs>
        <linearGradient id="_Linear1" x1="0" y1="0" x2="1" y2="0" gradientUnits="userSpaceOnUse" gradientTransform="matrix(84.5662,-84.5662,84.5662,84.5662,0.7169,85.2831)"><stop offset="0" style="stop-color:rgb(0,128,0);stop-opacity:1"/><stop offset="1" style="stop-color:rgb(0,179,0);stop-opacity:1"/></linearGradient>
    </defs>
</svg>
