<?xml version="1.0" encoding="UTF-8"?>
<svg width="86px" height="86px" enable-background="new 0 0 86 86" version="1.1" viewBox="0 0 86 86" xml:space="preserve" xmlns="http://www.w3.org/2000/svg" xmlns:cc="http://creativecommons.org/ns#" xmlns:dc="http://purl.org/dc/elements/1.1/" xmlns:rdf="http://www.w3.org/1999/02/22-rdf-syntax-ns#" xmlns:xlink="http://www.w3.org/1999/xlink"><metadata><rdf:RDF><cc:Work rdf:about=""><dc:format>image/svg+xml</dc:format><dc:type rdf:resource="http://purl.org/dc/dcmitype/StillImage"/><dc:title/></cc:Work></rdf:RDF></metadata>

<path d="m0.3 1.723c0-0.786 0.637-1.423 1.423-1.423h41.276c23.584 0 42.701 19.117 42.701 42.7 0 23.582-19.117 42.7-42.7 42.7s-42.7-19.118-42.7-42.7v-41.277z" fill="#008000"/>
<g id="back" transform="matrix(.037987 0 0 .037987 9.9572 -24.559)"><rect x="37.366" y="945.99" width="201.08" height="313.58" rx="8.6761" ry="8.6761" fill="#fff" fill-rule="evenodd" stroke="#000" stroke-linecap="round" stroke-linejoin="round" stroke-width="1.4"/><g transform="matrix(.9639 0 0 .9771 4.9827 25.308)"><rect x="40.537" y="949.16" width="194.74" height="307.23" rx="9.0013" ry="9.0013" fill="#005" fill-rule="evenodd" stroke="#fff" stroke-linecap="round" stroke-linejoin="round" stroke-width="1.5"/><path id="path3670" d="m234.93 1238.2-10.173 17.798m-183.87-118.94 107.01-187.59m57.515 306.53 29.516-51.768m-68.264 51.768 68.264-119.68m-107.01 119.68 107.01-187.59m-145.7 187.59 145.7-255.44m-184.45 255.44 174.85-306.53m-184.45 255.44 145.7-255.44m-145.7 119.68 68.265-119.68m-68.265 51.768 29.517-51.768m-19.344 0-10.173 17.828m48.891-17.828-48.891 85.708m87.639-85.708-87.639 153.62m126.36-153.62-126.36 221.53m165.07-221.53-165.07 289.41m194.04-272.28-165.07 289.41m165.07-221.5-126.36 221.5m126.36-153.62-87.638 153.62m87.638-85.708-48.89 85.708" fill="none" stroke="#fff" stroke-linejoin="round" stroke-width="1.5"/><use transform="matrix(-1 0 0 1 275.81 0)" width="2632.5" height="1575" fill="none" xlink:href="#path3670"/></g></g><g transform="matrix(.037987 0 0 .037987 18.957 -3.9086)"><rect x="37.366" y="945.99" width="201.08" height="313.58" rx="8.6761" ry="8.6761" fill="#fff" fill-rule="evenodd" stroke="#000" stroke-linecap="round" stroke-linejoin="round" stroke-width="1.4"/><g transform="matrix(.9639 0 0 .9771 4.9827 25.308)"><rect x="40.537" y="949.16" width="194.74" height="307.23" rx="9.0013" ry="9.0013" fill="#005" fill-rule="evenodd" stroke="#fff" stroke-linecap="round" stroke-linejoin="round" stroke-width="1.5"/><path id="path3670-3" d="m234.93 1238.2-10.173 17.798m-183.87-118.94 107.01-187.59m57.515 306.53 29.516-51.768m-68.264 51.768 68.264-119.68m-107.01 119.68 107.01-187.59m-145.7 187.59 145.7-255.44m-184.45 255.44 174.85-306.53m-184.45 255.44 145.7-255.44m-145.7 119.68 68.265-119.68m-68.265 51.768 29.517-51.768m-19.344 0-10.173 17.828m48.891-17.828-48.891 85.708m87.639-85.708-87.639 153.62m126.36-153.62-126.36 221.53m165.07-221.53-165.07 289.41m194.04-272.28-165.07 289.41m165.07-221.5-126.36 221.5m126.36-153.62-87.638 153.62m87.638-85.708-48.89 85.708" fill="none" stroke="#fff" stroke-linejoin="round" stroke-width="1.5"/><use transform="matrix(-1 0 0 1 275.81 0)" width="2632.5" height="1575" fill="none" xlink:href="#path3670-3"/></g></g><g transform="matrix(.037987 0 0 .037987 27.957 -3.9086)"><rect x="37.366" y="945.99" width="201.08" height="313.58" rx="8.6761" ry="8.6761" fill="#fff" fill-rule="evenodd" stroke="#000" stroke-linecap="round" stroke-linejoin="round" stroke-width="1.4"/><g transform="matrix(.9639 0 0 .9771 4.9827 25.308)"><rect x="40.537" y="949.16" width="194.74" height="307.23" rx="9.0013" ry="9.0013" fill="#005" fill-rule="evenodd" stroke="#fff" stroke-linecap="round" stroke-linejoin="round" stroke-width="1.5"/><path id="path3670-2" d="m234.93 1238.2-10.173 17.798m-183.87-118.94 107.01-187.59m57.515 306.53 29.516-51.768m-68.264 51.768 68.264-119.68m-107.01 119.68 107.01-187.59m-145.7 187.59 145.7-255.44m-184.45 255.44 174.85-306.53m-184.45 255.44 145.7-255.44m-145.7 119.68 68.265-119.68m-68.265 51.768 29.517-51.768m-19.344 0-10.173 17.828m48.891-17.828-48.891 85.708m87.639-85.708-87.639 153.62m126.36-153.62-126.36 221.53m165.07-221.53-165.07 289.41m194.04-272.28-165.07 289.41m165.07-221.5-126.36 221.5m126.36-153.62-87.638 153.62m87.638-85.708-48.89 85.708" fill="none" stroke="#fff" stroke-linejoin="round" stroke-width="1.5"/><use transform="matrix(-1 0 0 1 275.81 0)" width="2632.5" height="1575" fill="none" xlink:href="#path3670-2"/></g></g><g transform="matrix(.037987 0 0 .037987 36.957 -3.9086)"><rect x="37.366" y="945.99" width="201.08" height="313.58" rx="8.6761" ry="8.6761" fill="#fff" fill-rule="evenodd" stroke="#000" stroke-linecap="round" stroke-linejoin="round" stroke-width="1.4"/><g transform="matrix(.9639 0 0 .9771 4.9827 25.308)"><rect x="40.537" y="949.16" width="194.74" height="307.23" rx="9.0013" ry="9.0013" fill="#005" fill-rule="evenodd" stroke="#fff" stroke-linecap="round" stroke-linejoin="round" stroke-width="1.5"/><path id="path3670-0" d="m234.93 1238.2-10.173 17.798m-183.87-118.94 107.01-187.59m57.515 306.53 29.516-51.768m-68.264 51.768 68.264-119.68m-107.01 119.68 107.01-187.59m-145.7 187.59 145.7-255.44m-184.45 255.44 174.85-306.53m-184.45 255.44 145.7-255.44m-145.7 119.68 68.265-119.68m-68.265 51.768 29.517-51.768m-19.344 0-10.173 17.828m48.891-17.828-48.891 85.708m87.639-85.708-87.639 153.62m126.36-153.62-126.36 221.53m165.07-221.53-165.07 289.41m194.04-272.28-165.07 289.41m165.07-221.5-126.36 221.5m126.36-153.62-87.638 153.62m87.638-85.708-48.89 85.708" fill="none" stroke="#fff" stroke-linejoin="round" stroke-width="1.5"/><use transform="matrix(-1 0 0 1 275.81 0)" width="2632.5" height="1575" fill="none" xlink:href="#path3670-0"/></g></g><g transform="matrix(.037987 0 0 .037987 45.957 -3.9086)"><rect x="37.366" y="945.99" width="201.08" height="313.58" rx="8.6761" ry="8.6761" fill="#fff" fill-rule="evenodd" stroke="#000" stroke-linecap="round" stroke-linejoin="round" stroke-width="1.4"/><g transform="matrix(.9639 0 0 .9771 4.9827 25.308)"><rect x="40.537" y="949.16" width="194.74" height="307.23" rx="9.0013" ry="9.0013" fill="#005" fill-rule="evenodd" stroke="#fff" stroke-linecap="round" stroke-linejoin="round" stroke-width="1.5"/><path id="path3670-9" d="m234.93 1238.2-10.173 17.798m-183.87-118.94 107.01-187.59m57.515 306.53 29.516-51.768m-68.264 51.768 68.264-119.68m-107.01 119.68 107.01-187.59m-145.7 187.59 145.7-255.44m-184.45 255.44 174.85-306.53m-184.45 255.44 145.7-255.44m-145.7 119.68 68.265-119.68m-68.265 51.768 29.517-51.768m-19.344 0-10.173 17.828m48.891-17.828-48.891 85.708m87.639-85.708-87.639 153.62m126.36-153.62-126.36 221.53m165.07-221.53-165.07 289.41m194.04-272.28-165.07 289.41m165.07-221.5-126.36 221.5m126.36-153.62-87.638 153.62m87.638-85.708-48.89 85.708" fill="none" stroke="#fff" stroke-linejoin="round" stroke-width="1.5"/><use transform="matrix(-1 0 0 1 275.81 0)" width="2632.5" height="1575" fill="none" xlink:href="#path3670-9"/></g></g><g transform="matrix(.037987 0 0 .037987 54.957 -3.9086)"><rect x="37.366" y="945.99" width="201.08" height="313.58" rx="8.6761" ry="8.6761" fill="#fff" fill-rule="evenodd" stroke="#000" stroke-linecap="round" stroke-linejoin="round" stroke-width="1.4"/><g transform="matrix(.9639 0 0 .9771 4.9827 25.308)"><rect x="40.537" y="949.16" width="194.74" height="307.23" rx="9.0013" ry="9.0013" fill="#005" fill-rule="evenodd" stroke="#fff" stroke-linecap="round" stroke-linejoin="round" stroke-width="1.5"/><path id="path3670-22" d="m234.93 1238.2-10.173 17.798m-183.87-118.94 107.01-187.59m57.515 306.53 29.516-51.768m-68.264 51.768 68.264-119.68m-107.01 119.68 107.01-187.59m-145.7 187.59 145.7-255.44m-184.45 255.44 174.85-306.53m-184.45 255.44 145.7-255.44m-145.7 119.68 68.265-119.68m-68.265 51.768 29.517-51.768m-19.344 0-10.173 17.828m48.891-17.828-48.891 85.708m87.639-85.708-87.639 153.62m126.36-153.62-126.36 221.53m165.07-221.53-165.07 289.41m194.04-272.28-165.07 289.41m165.07-221.5-126.36 221.5m126.36-153.62-87.638 153.62m87.638-85.708-48.89 85.708" fill="none" stroke="#fff" stroke-linejoin="round" stroke-width="1.5"/><use transform="matrix(-1 0 0 1 275.81 0)" width="2632.5" height="1575" fill="none" xlink:href="#path3670-22"/></g></g><g transform="matrix(.037987 0 0 .037987 63.957 -3.9086)"><rect x="37.366" y="945.99" width="201.08" height="313.58" rx="8.6761" ry="8.6761" fill="#fff" fill-rule="evenodd" stroke="#000" stroke-linecap="round" stroke-linejoin="round" stroke-width="1.4"/><g transform="matrix(.9639 0 0 .9771 4.9827 25.308)"><rect x="40.537" y="949.16" width="194.74" height="307.23" rx="9.0013" ry="9.0013" fill="#005" fill-rule="evenodd" stroke="#fff" stroke-linecap="round" stroke-linejoin="round" stroke-width="1.5"/><path id="path3670-93" d="m234.93 1238.2-10.173 17.798m-183.87-118.94 107.01-187.59m57.515 306.53 29.516-51.768m-68.264 51.768 68.264-119.68m-107.01 119.68 107.01-187.59m-145.7 187.59 145.7-255.44m-184.45 255.44 174.85-306.53m-184.45 255.44 145.7-255.44m-145.7 119.68 68.265-119.68m-68.265 51.768 29.517-51.768m-19.344 0-10.173 17.828m48.891-17.828-48.891 85.708m87.639-85.708-87.639 153.62m126.36-153.62-126.36 221.53m165.07-221.53-165.07 289.41m194.04-272.28-165.07 289.41m165.07-221.5-126.36 221.5m126.36-153.62-87.638 153.62m87.638-85.708-48.89 85.708" fill="none" stroke="#fff" stroke-linejoin="round" stroke-width="1.5"/><use transform="matrix(-1 0 0 1 275.81 0)" width="2632.5" height="1575" fill="none" xlink:href="#path3670-93"/></g></g><g transform="matrix(.037987 0 0 .037987 27.957 -1.9086)"><rect x="37.366" y="945.99" width="201.08" height="313.58" rx="8.6761" ry="8.6761" fill="#fff" fill-rule="evenodd" stroke="#000" stroke-linecap="round" stroke-linejoin="round" stroke-width="1.4"/><g transform="matrix(.9639 0 0 .9771 4.9827 25.308)"><rect x="40.537" y="949.16" width="194.74" height="307.23" rx="9.0013" ry="9.0013" fill="#005" fill-rule="evenodd" stroke="#fff" stroke-linecap="round" stroke-linejoin="round" stroke-width="1.5"/><path id="path3670-36" d="m234.93 1238.2-10.173 17.798m-183.87-118.94 107.01-187.59m57.515 306.53 29.516-51.768m-68.264 51.768 68.264-119.68m-107.01 119.68 107.01-187.59m-145.7 187.59 145.7-255.44m-184.45 255.44 174.85-306.53m-184.45 255.44 145.7-255.44m-145.7 119.68 68.265-119.68m-68.265 51.768 29.517-51.768m-19.344 0-10.173 17.828m48.891-17.828-48.891 85.708m87.639-85.708-87.639 153.62m126.36-153.62-126.36 221.53m165.07-221.53-165.07 289.41m194.04-272.28-165.07 289.41m165.07-221.5-126.36 221.5m126.36-153.62-87.638 153.62m87.638-85.708-48.89 85.708" fill="none" stroke="#fff" stroke-linejoin="round" stroke-width="1.5"/><use transform="matrix(-1 0 0 1 275.81 0)" width="2632.5" height="1575" fill="none" xlink:href="#path3670-36"/></g></g><g transform="matrix(.037987 0 0 .037987 36.957 -1.9086)"><rect x="37.366" y="945.99" width="201.08" height="313.58" rx="8.6761" ry="8.6761" fill="#fff" fill-rule="evenodd" stroke="#000" stroke-linecap="round" stroke-linejoin="round" stroke-width="1.4"/><g transform="matrix(.9639 0 0 .9771 4.9827 25.308)"><rect x="40.537" y="949.16" width="194.74" height="307.23" rx="9.0013" ry="9.0013" fill="#005" fill-rule="evenodd" stroke="#fff" stroke-linecap="round" stroke-linejoin="round" stroke-width="1.5"/><path id="path3670-5" d="m234.93 1238.2-10.173 17.798m-183.87-118.94 107.01-187.59m57.515 306.53 29.516-51.768m-68.264 51.768 68.264-119.68m-107.01 119.68 107.01-187.59m-145.7 187.59 145.7-255.44m-184.45 255.44 174.85-306.53m-184.45 255.44 145.7-255.44m-145.7 119.68 68.265-119.68m-68.265 51.768 29.517-51.768m-19.344 0-10.173 17.828m48.891-17.828-48.891 85.708m87.639-85.708-87.639 153.62m126.36-153.62-126.36 221.53m165.07-221.53-165.07 289.41m194.04-272.28-165.07 289.41m165.07-221.5-126.36 221.5m126.36-153.62-87.638 153.62m87.638-85.708-48.89 85.708" fill="none" stroke="#fff" stroke-linejoin="round" stroke-width="1.5"/><use transform="matrix(-1 0 0 1 275.81 0)" width="2632.5" height="1575" fill="none" xlink:href="#path3670-5"/></g></g><g transform="matrix(.037987 0 0 .037987 45.957 -1.9086)"><rect x="37.366" y="945.99" width="201.08" height="313.58" rx="8.6761" ry="8.6761" fill="#fff" fill-rule="evenodd" stroke="#000" stroke-linecap="round" stroke-linejoin="round" stroke-width="1.4"/><g transform="matrix(.9639 0 0 .9771 4.9827 25.308)"><rect x="40.537" y="949.16" width="194.74" height="307.23" rx="9.0013" ry="9.0013" fill="#005" fill-rule="evenodd" stroke="#fff" stroke-linecap="round" stroke-linejoin="round" stroke-width="1.5"/><path id="path3670-7" d="m234.93 1238.2-10.173 17.798m-183.87-118.94 107.01-187.59m57.515 306.53 29.516-51.768m-68.264 51.768 68.264-119.68m-107.01 119.68 107.01-187.59m-145.7 187.59 145.7-255.44m-184.45 255.44 174.85-306.53m-184.45 255.44 145.7-255.44m-145.7 119.68 68.265-119.68m-68.265 51.768 29.517-51.768m-19.344 0-10.173 17.828m48.891-17.828-48.891 85.708m87.639-85.708-87.639 153.62m126.36-153.62-126.36 221.53m165.07-221.53-165.07 289.41m194.04-272.28-165.07 289.41m165.07-221.5-126.36 221.5m126.36-153.62-87.638 153.62m87.638-85.708-48.89 85.708" fill="none" stroke="#fff" stroke-linejoin="round" stroke-width="1.5"/><use transform="matrix(-1 0 0 1 275.81 0)" width="2632.5" height="1575" fill="none" xlink:href="#path3670-7"/></g></g><g transform="matrix(.037987 0 0 .037987 54.957 -1.9086)"><rect x="37.366" y="945.99" width="201.08" height="313.58" rx="8.6761" ry="8.6761" fill="#fff" fill-rule="evenodd" stroke="#000" stroke-linecap="round" stroke-linejoin="round" stroke-width="1.4"/><g transform="matrix(.9639 0 0 .9771 4.9827 25.308)"><rect x="40.537" y="949.16" width="194.74" height="307.23" rx="9.0013" ry="9.0013" fill="#005" fill-rule="evenodd" stroke="#fff" stroke-linecap="round" stroke-linejoin="round" stroke-width="1.5"/><path id="path3670-30" d="m234.93 1238.2-10.173 17.798m-183.87-118.94 107.01-187.59m57.515 306.53 29.516-51.768m-68.264 51.768 68.264-119.68m-107.01 119.68 107.01-187.59m-145.7 187.59 145.7-255.44m-184.45 255.44 174.85-306.53m-184.45 255.44 145.7-255.44m-145.7 119.68 68.265-119.68m-68.265 51.768 29.517-51.768m-19.344 0-10.173 17.828m48.891-17.828-48.891 85.708m87.639-85.708-87.639 153.62m126.36-153.62-126.36 221.53m165.07-221.53-165.07 289.41m194.04-272.28-165.07 289.41m165.07-221.5-126.36 221.5m126.36-153.62-87.638 153.62m87.638-85.708-48.89 85.708" fill="none" stroke="#fff" stroke-linejoin="round" stroke-width="1.5"/><use transform="matrix(-1 0 0 1 275.81 0)" width="2632.5" height="1575" fill="none" xlink:href="#path3670-30"/></g></g><g transform="matrix(.037987 0 0 .037987 63.957 -1.9086)"><rect x="37.366" y="945.99" width="201.08" height="313.58" rx="8.6761" ry="8.6761" fill="#fff" fill-rule="evenodd" stroke="#000" stroke-linecap="round" stroke-linejoin="round" stroke-width="1.4"/><g transform="matrix(.9639 0 0 .9771 4.9827 25.308)"><rect x="40.537" y="949.16" width="194.74" height="307.23" rx="9.0013" ry="9.0013" fill="#005" fill-rule="evenodd" stroke="#fff" stroke-linecap="round" stroke-linejoin="round" stroke-width="1.5"/><path id="path3670-92" d="m234.93 1238.2-10.173 17.798m-183.87-118.94 107.01-187.59m57.515 306.53 29.516-51.768m-68.264 51.768 68.264-119.68m-107.01 119.68 107.01-187.59m-145.7 187.59 145.7-255.44m-184.45 255.44 174.85-306.53m-184.45 255.44 145.7-255.44m-145.7 119.68 68.265-119.68m-68.265 51.768 29.517-51.768m-19.344 0-10.173 17.828m48.891-17.828-48.891 85.708m87.639-85.708-87.639 153.62m126.36-153.62-126.36 221.53m165.07-221.53-165.07 289.41m194.04-272.28-165.07 289.41m165.07-221.5-126.36 221.5m126.36-153.62-87.638 153.62m87.638-85.708-48.89 85.708" fill="none" stroke="#fff" stroke-linejoin="round" stroke-width="1.5"/><use transform="matrix(-1 0 0 1 275.81 0)" width="2632.5" height="1575" fill="none" xlink:href="#path3670-92"/></g></g><g transform="matrix(.037987 0 0 .037987 36.957 .091372)"><rect x="37.366" y="945.99" width="201.08" height="313.58" rx="8.6761" ry="8.6761" fill="#fff" fill-rule="evenodd" stroke="#000" stroke-linecap="round" stroke-linejoin="round" stroke-width="1.4"/><g transform="matrix(.9639 0 0 .9771 4.9827 25.308)"><rect x="40.537" y="949.16" width="194.74" height="307.23" rx="9.0013" ry="9.0013" fill="#005" fill-rule="evenodd" stroke="#fff" stroke-linecap="round" stroke-linejoin="round" stroke-width="1.5"/><path id="path3670-04" d="m234.93 1238.2-10.173 17.798m-183.87-118.94 107.01-187.59m57.515 306.53 29.516-51.768m-68.264 51.768 68.264-119.68m-107.01 119.68 107.01-187.59m-145.7 187.59 145.7-255.44m-184.45 255.44 174.85-306.53m-184.45 255.44 145.7-255.44m-145.7 119.68 68.265-119.68m-68.265 51.768 29.517-51.768m-19.344 0-10.173 17.828m48.891-17.828-48.891 85.708m87.639-85.708-87.639 153.62m126.36-153.62-126.36 221.53m165.07-221.53-165.07 289.41m194.04-272.28-165.07 289.41m165.07-221.5-126.36 221.5m126.36-153.62-87.638 153.62m87.638-85.708-48.89 85.708" fill="none" stroke="#fff" stroke-linejoin="round" stroke-width="1.5"/><use transform="matrix(-1 0 0 1 275.81 0)" width="2632.5" height="1575" fill="none" xlink:href="#path3670-04"/></g></g><g transform="matrix(.037987 0 0 .037987 45.957 .091372)"><rect x="37.366" y="945.99" width="201.08" height="313.58" rx="8.6761" ry="8.6761" fill="#fff" fill-rule="evenodd" stroke="#000" stroke-linecap="round" stroke-linejoin="round" stroke-width="1.4"/><g transform="matrix(.9639 0 0 .9771 4.9827 25.308)"><rect x="40.537" y="949.16" width="194.74" height="307.23" rx="9.0013" ry="9.0013" fill="#005" fill-rule="evenodd" stroke="#fff" stroke-linecap="round" stroke-linejoin="round" stroke-width="1.5"/><path id="path3670-6" d="m234.93 1238.2-10.173 17.798m-183.87-118.94 107.01-187.59m57.515 306.53 29.516-51.768m-68.264 51.768 68.264-119.68m-107.01 119.68 107.01-187.59m-145.7 187.59 145.7-255.44m-184.45 255.44 174.85-306.53m-184.45 255.44 145.7-255.44m-145.7 119.68 68.265-119.68m-68.265 51.768 29.517-51.768m-19.344 0-10.173 17.828m48.891-17.828-48.891 85.708m87.639-85.708-87.639 153.62m126.36-153.62-126.36 221.53m165.07-221.53-165.07 289.41m194.04-272.28-165.07 289.41m165.07-221.5-126.36 221.5m126.36-153.62-87.638 153.62m87.638-85.708-48.89 85.708" fill="none" stroke="#fff" stroke-linejoin="round" stroke-width="1.5"/><use transform="matrix(-1 0 0 1 275.81 0)" width="2632.5" height="1575" fill="none" xlink:href="#path3670-6"/></g></g><g transform="matrix(.037987 0 0 .037987 54.957 .091372)"><rect x="37.366" y="945.99" width="201.08" height="313.58" rx="8.6761" ry="8.6761" fill="#fff" fill-rule="evenodd" stroke="#000" stroke-linecap="round" stroke-linejoin="round" stroke-width="1.4"/><g transform="matrix(.9639 0 0 .9771 4.9827 25.308)"><rect x="40.537" y="949.16" width="194.74" height="307.23" rx="9.0013" ry="9.0013" fill="#005" fill-rule="evenodd" stroke="#fff" stroke-linecap="round" stroke-linejoin="round" stroke-width="1.5"/><path id="path3670-77" d="m234.93 1238.2-10.173 17.798m-183.87-118.94 107.01-187.59m57.515 306.53 29.516-51.768m-68.264 51.768 68.264-119.68m-107.01 119.68 107.01-187.59m-145.7 187.59 145.7-255.44m-184.45 255.44 174.85-306.53m-184.45 255.44 145.7-255.44m-145.7 119.68 68.265-119.68m-68.265 51.768 29.517-51.768m-19.344 0-10.173 17.828m48.891-17.828-48.891 85.708m87.639-85.708-87.639 153.62m126.36-153.62-126.36 221.53m165.07-221.53-165.07 289.41m194.04-272.28-165.07 289.41m165.07-221.5-126.36 221.5m126.36-153.62-87.638 153.62m87.638-85.708-48.89 85.708" fill="none" stroke="#fff" stroke-linejoin="round" stroke-width="1.5"/><use transform="matrix(-1 0 0 1 275.81 0)" width="2632.5" height="1575" fill="none" xlink:href="#path3670-77"/></g></g><g transform="matrix(.037987 0 0 .037987 63.957 .091372)"><rect x="37.366" y="945.99" width="201.08" height="313.58" rx="8.6761" ry="8.6761" fill="#fff" fill-rule="evenodd" stroke="#000" stroke-linecap="round" stroke-linejoin="round" stroke-width="1.4"/><g transform="matrix(.9639 0 0 .9771 4.9827 25.308)"><rect x="40.537" y="949.16" width="194.74" height="307.23" rx="9.0013" ry="9.0013" fill="#005" fill-rule="evenodd" stroke="#fff" stroke-linecap="round" stroke-linejoin="round" stroke-width="1.5"/><path id="path3670-65" d="m234.93 1238.2-10.173 17.798m-183.87-118.94 107.01-187.59m57.515 306.53 29.516-51.768m-68.264 51.768 68.264-119.68m-107.01 119.68 107.01-187.59m-145.7 187.59 145.7-255.44m-184.45 255.44 174.85-306.53m-184.45 255.44 145.7-255.44m-145.7 119.68 68.265-119.68m-68.265 51.768 29.517-51.768m-19.344 0-10.173 17.828m48.891-17.828-48.891 85.708m87.639-85.708-87.639 153.62m126.36-153.62-126.36 221.53m165.07-221.53-165.07 289.41m194.04-272.28-165.07 289.41m165.07-221.5-126.36 221.5m126.36-153.62-87.638 153.62m87.638-85.708-48.89 85.708" fill="none" stroke="#fff" stroke-linejoin="round" stroke-width="1.5"/><use transform="matrix(-1 0 0 1 275.81 0)" width="2632.5" height="1575" fill="none" xlink:href="#path3670-65"/></g></g><g transform="matrix(.037987 0 0 .037987 45.957 2.0914)"><rect x="37.366" y="945.99" width="201.08" height="313.58" rx="8.6761" ry="8.6761" fill="#fff" fill-rule="evenodd" stroke="#000" stroke-linecap="round" stroke-linejoin="round" stroke-width="1.4"/><g transform="matrix(.9639 0 0 .9771 4.9827 25.308)"><rect x="40.537" y="949.16" width="194.74" height="307.23" rx="9.0013" ry="9.0013" fill="#005" fill-rule="evenodd" stroke="#fff" stroke-linecap="round" stroke-linejoin="round" stroke-width="1.5"/><path id="path3670-90" d="m234.93 1238.2-10.173 17.798m-183.87-118.94 107.01-187.59m57.515 306.53 29.516-51.768m-68.264 51.768 68.264-119.68m-107.01 119.68 107.01-187.59m-145.7 187.59 145.7-255.44m-184.45 255.44 174.85-306.53m-184.45 255.44 145.7-255.44m-145.7 119.68 68.265-119.68m-68.265 51.768 29.517-51.768m-19.344 0-10.173 17.828m48.891-17.828-48.891 85.708m87.639-85.708-87.639 153.62m126.36-153.62-126.36 221.53m165.07-221.53-165.07 289.41m194.04-272.28-165.07 289.41m165.07-221.5-126.36 221.5m126.36-153.62-87.638 153.62m87.638-85.708-48.89 85.708" fill="none" stroke="#fff" stroke-linejoin="round" stroke-width="1.5"/><use transform="matrix(-1 0 0 1 275.81 0)" width="2632.5" height="1575" fill="none" xlink:href="#path3670-90"/></g></g><g transform="matrix(.037987 0 0 .037987 54.957 2.0914)"><rect x="37.366" y="945.99" width="201.08" height="313.58" rx="8.6761" ry="8.6761" fill="#fff" fill-rule="evenodd" stroke="#000" stroke-linecap="round" stroke-linejoin="round" stroke-width="1.4"/><g transform="matrix(.9639 0 0 .9771 4.9827 25.308)"><rect x="40.537" y="949.16" width="194.74" height="307.23" rx="9.0013" ry="9.0013" fill="#005" fill-rule="evenodd" stroke="#fff" stroke-linecap="round" stroke-linejoin="round" stroke-width="1.5"/><path id="path3670-1" d="m234.93 1238.2-10.173 17.798m-183.87-118.94 107.01-187.59m57.515 306.53 29.516-51.768m-68.264 51.768 68.264-119.68m-107.01 119.68 107.01-187.59m-145.7 187.59 145.7-255.44m-184.45 255.44 174.85-306.53m-184.45 255.44 145.7-255.44m-145.7 119.68 68.265-119.68m-68.265 51.768 29.517-51.768m-19.344 0-10.173 17.828m48.891-17.828-48.891 85.708m87.639-85.708-87.639 153.62m126.36-153.62-126.36 221.53m165.07-221.53-165.07 289.41m194.04-272.28-165.07 289.41m165.07-221.5-126.36 221.5m126.36-153.62-87.638 153.62m87.638-85.708-48.89 85.708" fill="none" stroke="#fff" stroke-linejoin="round" stroke-width="1.5"/><use transform="matrix(-1 0 0 1 275.81 0)" width="2632.5" height="1575" fill="none" xlink:href="#path3670-1"/></g></g><g transform="matrix(.037987 0 0 .037987 63.957 2.0914)"><rect x="37.366" y="945.99" width="201.08" height="313.58" rx="8.6761" ry="8.6761" fill="#fff" fill-rule="evenodd" stroke="#000" stroke-linecap="round" stroke-linejoin="round" stroke-width="1.4"/><g transform="matrix(.9639 0 0 .9771 4.9827 25.308)"><rect x="40.537" y="949.16" width="194.74" height="307.23" rx="9.0013" ry="9.0013" fill="#005" fill-rule="evenodd" stroke="#fff" stroke-linecap="round" stroke-linejoin="round" stroke-width="1.5"/><path id="path3670-304" d="m234.93 1238.2-10.173 17.798m-183.87-118.94 107.01-187.59m57.515 306.53 29.516-51.768m-68.264 51.768 68.264-119.68m-107.01 119.68 107.01-187.59m-145.7 187.59 145.7-255.44m-184.45 255.44 174.85-306.53m-184.45 255.44 145.7-255.44m-145.7 119.68 68.265-119.68m-68.265 51.768 29.517-51.768m-19.344 0-10.173 17.828m48.891-17.828-48.891 85.708m87.639-85.708-87.639 153.62m126.36-153.62-126.36 221.53m165.07-221.53-165.07 289.41m194.04-272.28-165.07 289.41m165.07-221.5-126.36 221.5m126.36-153.62-87.638 153.62m87.638-85.708-48.89 85.708" fill="none" stroke="#fff" stroke-linejoin="round" stroke-width="1.5"/><use transform="matrix(-1 0 0 1 275.81 0)" width="2632.5" height="1575" fill="none" xlink:href="#path3670-304"/></g></g><g transform="matrix(.037987 0 0 .037987 54.957 4.0914)"><rect x="37.366" y="945.99" width="201.08" height="313.58" rx="8.6761" ry="8.6761" fill="#fff" fill-rule="evenodd" stroke="#000" stroke-linecap="round" stroke-linejoin="round" stroke-width="1.4"/><g transform="matrix(.9639 0 0 .9771 4.9827 25.308)"><rect x="40.537" y="949.16" width="194.74" height="307.23" rx="9.0013" ry="9.0013" fill="#005" fill-rule="evenodd" stroke="#fff" stroke-linecap="round" stroke-linejoin="round" stroke-width="1.5"/><path id="path3670-96" d="m234.93 1238.2-10.173 17.798m-183.87-118.94 107.01-187.59m57.515 306.53 29.516-51.768m-68.264 51.768 68.264-119.68m-107.01 119.68 107.01-187.59m-145.7 187.59 145.7-255.44m-184.45 255.44 174.85-306.53m-184.45 255.44 145.7-255.44m-145.7 119.68 68.265-119.68m-68.265 51.768 29.517-51.768m-19.344 0-10.173 17.828m48.891-17.828-48.891 85.708m87.639-85.708-87.639 153.62m126.36-153.62-126.36 221.53m165.07-221.53-165.07 289.41m194.04-272.28-165.07 289.41m165.07-221.5-126.36 221.5m126.36-153.62-87.638 153.62m87.638-85.708-48.89 85.708" fill="none" stroke="#fff" stroke-linejoin="round" stroke-width="1.5"/><use transform="matrix(-1 0 0 1 275.81 0)" width="2632.5" height="1575" fill="none" xlink:href="#path3670-96"/></g></g><g transform="matrix(.037987 0 0 .037987 63.957 4.0914)"><rect x="37.366" y="945.99" width="201.08" height="313.58" rx="8.6761" ry="8.6761" fill="#fff" fill-rule="evenodd" stroke="#000" stroke-linecap="round" stroke-linejoin="round" stroke-width="1.4"/><g transform="matrix(.9639 0 0 .9771 4.9827 25.308)"><rect x="40.537" y="949.16" width="194.74" height="307.23" rx="9.0013" ry="9.0013" fill="#005" fill-rule="evenodd" stroke="#fff" stroke-linecap="round" stroke-linejoin="round" stroke-width="1.5"/><path id="path3670-59" d="m234.93 1238.2-10.173 17.798m-183.87-118.94 107.01-187.59m57.515 306.53 29.516-51.768m-68.264 51.768 68.264-119.68m-107.01 119.68 107.01-187.59m-145.7 187.59 145.7-255.44m-184.45 255.44 174.85-306.53m-184.45 255.44 145.7-255.44m-145.7 119.68 68.265-119.68m-68.265 51.768 29.517-51.768m-19.344 0-10.173 17.828m48.891-17.828-48.891 85.708m87.639-85.708-87.639 153.62m126.36-153.62-126.36 221.53m165.07-221.53-165.07 289.41m194.04-272.28-165.07 289.41m165.07-221.5-126.36 221.5m126.36-153.62-87.638 153.62m87.638-85.708-48.89 85.708" fill="none" stroke="#fff" stroke-linejoin="round" stroke-width="1.5"/><use transform="matrix(-1 0 0 1 275.81 0)" width="2632.5" height="1575" fill="none" xlink:href="#path3670-59"/></g></g><g transform="matrix(.037987 0 0 .037987 63.957 6.0914)"><rect x="37.366" y="945.99" width="201.08" height="313.58" rx="8.6761" ry="8.6761" fill="#fff" fill-rule="evenodd" stroke="#000" stroke-linecap="round" stroke-linejoin="round" stroke-width="1.4"/><g transform="matrix(.9639 0 0 .9771 4.9827 25.308)"><rect x="40.537" y="949.16" width="194.74" height="307.23" rx="9.0013" ry="9.0013" fill="#005" fill-rule="evenodd" stroke="#fff" stroke-linecap="round" stroke-linejoin="round" stroke-width="1.5"/><path id="path3670-4" d="m234.93 1238.2-10.173 17.798m-183.87-118.94 107.01-187.59m57.515 306.53 29.516-51.768m-68.264 51.768 68.264-119.68m-107.01 119.68 107.01-187.59m-145.7 187.59 145.7-255.44m-184.45 255.44 174.85-306.53m-184.45 255.44 145.7-255.44m-145.7 119.68 68.265-119.68m-68.265 51.768 29.517-51.768m-19.344 0-10.173 17.828m48.891-17.828-48.891 85.708m87.639-85.708-87.639 153.62m126.36-153.62-126.36 221.53m165.07-221.53-165.07 289.41m194.04-272.28-165.07 289.41m165.07-221.5-126.36 221.5m126.36-153.62-87.638 153.62m87.638-85.708-48.89 85.708" fill="none" stroke="#fff" stroke-linejoin="round" stroke-width="1.5"/><use transform="matrix(-1 0 0 1 275.81 0)" width="2632.5" height="1575" fill="none" xlink:href="#path3670-4"/></g></g><g transform="matrix(.037987 0 0 .037987 -3.8815 32.034)"><rect x="1823.2" y="315.71" width="201.08" height="313.58" rx="8.6761" ry="8.6761" fill="#fff" fill-rule="evenodd" stroke="#000" stroke-linecap="round" stroke-linejoin="round" stroke-width="1.4"/><g fill="#d00" fill-rule="evenodd"><path d="m1850.8 379.67c-5.062 4.14-6.172 5.523-8.81 11.523-2.638-6-3.748-7.383-8.81-11.523 5.062-4.14 6.172-5.524 8.81-11.523 2.638 5.999 3.748 7.383 8.81 11.523z"/><path d="m1996.7 565.56c5.062-4.14 6.172-5.523 8.81-11.523 2.638 6 3.748 7.383 8.81 11.523-5.062 4.14-6.172 5.524-8.81 11.523-2.638-5.999-3.748-7.383-8.81-11.523z"/><path d="m1897.2 438.93c-10.522 8.606-12.829 11.482-18.313 23.953-5.483-12.471-7.79-15.347-18.313-23.953 10.523-8.605 12.83-11.482 18.313-23.953 5.484 12.471 7.791 15.348 18.313 23.953z"/><path d="m1987 438.93c-10.522 8.606-12.829 11.482-18.313 23.953-5.483-12.471-7.79-15.347-18.313-23.953 10.523-8.605 12.83-11.482 18.313-23.953 5.484 12.471 7.791 15.348 18.313 23.953z"/><path d="m1897.2 506.07c-10.522-8.606-12.829-11.482-18.313-23.953-5.483 12.471-7.79 15.347-18.313 23.953 10.523 8.605 12.83 11.482 18.313 23.953 5.484-12.471 7.791-15.348 18.313-23.953z"/><path d="m1987 506.07c-10.522-8.606-12.829-11.482-18.313-23.953-5.483 12.471-7.79 15.347-18.313 23.953 10.523 8.605 12.83 11.482 18.313 23.953 5.484-12.471 7.791-15.348 18.313-23.953z"/><path d="m1897.2 371.8c-10.522 8.606-12.829 11.482-18.313 23.953-5.483-12.471-7.79-15.347-18.313-23.953 10.523-8.605 12.83-11.482 18.313-23.953 5.484 12.471 7.791 15.348 18.313 23.953z"/><path d="m1897.2 573.2c-10.522-8.606-12.829-11.482-18.313-23.953-5.483 12.471-7.79 15.347-18.313 23.953 10.523 8.605 12.83 11.482 18.313 23.953 5.484-12.471 7.791-15.348 18.313-23.953z"/><path d="m1987 371.8c-10.522 8.606-12.829 11.482-18.313 23.953-5.483-12.471-7.79-15.347-18.313-23.953 10.523-8.605 12.83-11.482 18.313-23.953 5.484 12.471 7.791 15.348 18.313 23.953z"/><path d="m1987 573.2c-10.522-8.606-12.829-11.482-18.313-23.953-5.483 12.471-7.79 15.347-18.313 23.953 10.523 8.605 12.83 11.482 18.313 23.953 5.484-12.471 7.791-15.348 18.313-23.953z"/><path id="use14541" d="m1942.1 405.37c-10.522 8.606-12.829 11.482-18.313 23.953-5.483-12.471-7.79-15.347-18.313-23.953 10.523-8.605 12.83-11.482 18.313-23.953 5.484 12.471 7.791 15.348 18.313 23.953z" fill="#d00" fill-rule="evenodd"/></g><use transform="matrix(1 0 0 -1 0 945)" width="2878.937" height="1565.9353" xlink:href="#use14541"/><g id="g5992" transform="matrix(.5504 0 0 .5504 729.4 322.51)"><path d="m2038 51.745v-14.908c0-9.606-4.883-17.402-10.898-17.402-6.016 0-10.898 7.796-10.898 17.402v14.908c0 9.606 4.882 17.402 10.898 17.402 6.015 0 10.898-7.796 10.898-17.402z" fill="none" stroke="#d00" stroke-linecap="round" stroke-width="5.4"/><path d="m2005 20.454v47.674" fill="none" stroke="#d00" stroke-linecap="square" stroke-linejoin="bevel" stroke-width="5.4"/></g><use transform="rotate(180 1923.8 472.5)" width="2878.937" height="1565.9353" xlink:href="#g5992"/></g><g id="diamond_queen" transform="matrix(.037987 0 0 .037987 -28.266 30.034)"><rect transform="scale(-1)" x="-2429.3" y="-629.29" width="201.08" height="313.58" rx="8.6761" ry="8.6761" fill="#fff" fill-rule="evenodd" stroke="#000" stroke-linecap="round" stroke-linejoin="round" stroke-width="1.4"/><g transform="matrix(.2407 0 0 .2675 2239.2 12.435)"><g transform="translate(4e-4 1193.7)" fill-rule="evenodd"><path d="m368.12 240.74c-79.711 108.58-175.54 198.44-279.45 278.79l-0.088 164.74 153.78 180.99 133.61-53.646c79.767-108.6 175.54-198.44 279.45-278.79 0 0-103.91 80.348 0 0l0.088-164.74-153.78-180.99z" color="#000000" enable-background="accumulate"/><path d="m287.09 493.66c-9.072 20.397-22.372 38.795-39.844 53.188-5.294 4.362-10.847 8.305-16.625 11.844h226.38c9.071-20.395 22.373-38.765 39.844-53.157 5.312-4.377 10.888-8.327 16.687-11.875z" fill="#fff"/></g><g id="g64690"><path d="m277.91 1543.1-32.657 33.604c17.741 101.14-51.778 171.09-156.59 147.41v36.282c142.22 33.678 239.67-72.697 189.25-217.29z" color="#000000" enable-background="accumulate" fill="#00d" fill-rule="evenodd"/><path d="m110.59 1736.9s2.008 6.712 2.008 6.712c6.785 3.347 2.088 9.019-4.127 10.747-5.62-3.165-8.749-9.988-1.321-11.421 0 0 3.44-6.038 3.44-6.038v0m36.895 1.13s3.301 6.18 3.301 6.18c7.314 1.932 3.837 8.423-1.91 11.352-6.137-1.986-10.554-8.105-3.545-10.954l2.154-6.578v0m35.489-7.013s4.802 5.102 4.802 5.102c7.565-0.048 5.907 7.127 1.125 11.456-6.443-0.312-12.321-5.135-6.28-9.69 0 0 0.353-6.868 0.353-6.868v0m31.689-16.676 5.902 3.543c7.138-2.507 7.887 5.063 4.563 10.591-6.257 1.566-13.142-1.045-8.895-7.306 0 0-1.57-6.828-1.57-6.828v0m24.134-25.758 6.747 1.374c5.901-4.733 9.12 2.155 7.824 8.474-5.38 3.558-12.742 3.386-10.819-3.931 0 0-3.752-5.917-3.752-5.917v0m14.63-32.401s6.878-0.812 6.878-0.812c4.148-6.327 9.296-0.801 10.042 5.606-3.996 5.063-11.261 7.072-11.47-0.491l-5.45-4.303v0m5.068-35.96 6.438-2.515c2.472-7.15 8.827-3.071 11.144 2.949-2.611 5.898-8.904 9.724-11.232 2.525l-6.35-2.959v0m-3.332-36.53 5.752-4c1.065-7.49 7.918-4.795 11.498 0.571-1.255 6.327-6.783 11.431-10.46 4.819l-6.79-1.39v0m-3.453-11.258s3.865 5.403 3.865 5.403c1.837-15.823 16.67-10.337 24.207 0.961-2.643 13.322-14.322 24.076-22.065 10.155l-3.454 13.273 5.826 12.406c5.204-15.055 18.62-6.466 23.499 6.209-5.497 12.419-19.249 20.337-23.698 5.042l-6.256 12.013 2.728 13.306c8.734-13.321 19.643-1.668 21.214 11.823-8.414 10.66-23.803 14.86-24.243-1.063 0 0-9.278 9.792-9.278 9.792l-1.161 13.299c12.055-10.414 19.427 4.28 16.699 17.585-11.327 7.493-27.279 6.634-22.662-8.611 0 0-11.837 6.237-11.837 6.237l-5.408 12.124c14.818-5.843 16.912 10.487 9.913 22.126-13.175 3.297-27.936-2.828-18.504-15.664l-13.237 1.967s-9.121 9.766-9.121 9.766c15.915-0.665 12.764 14.95 2.696 24.066-13.566-0.657-25.973-11.386-12.932-20.533l-13.719-1.901-11.582 6.893c15.52 3.588 8.371 17.778-3.73 23.944-12.922-4.181-22.225-17.118-7.468-23.118l-12.66-5.07-13.326 4.243c14.47 6.662 4.635 19.071-8.45 22.711-11.834-6.664-18.414-21.095-2.773-24.111l-14-7.911" enable-background="accumulate" fill="none" stroke="#fff" stroke-linecap="round" stroke-linejoin="round" stroke-width="2.2"/><path d="m499.09 1403.5c-17.887 40.086-44.199 48.339-62.625 63.937-1.217 1.031-2.487 1.94-3.781 2.75 29.762 0.028 58.861-7.788 82.875-25.719-6.293-13.177-11.836-27.102-16.469-40.968zm-129.25 30.281-1.719 0.687c-4.553 6.202-9.156 12.325-13.812 18.407 11.04 4.944 22.63 8.938 34.469 11.843-6.769-7.225-14.276-17.917-18.938-30.937z" color="#000000" enable-background="accumulate" fill="#fff" fill-rule="evenodd"/><path d="m542 1428.2c-31.254 26.546-70.064 42.282-112.09 42.282-26.792 0-52.286-6.396-75.344-17.907-12.837 16.769-26.076 33.062-39.656 48.969 31.743 19.931 71.667 31.813 115 31.813 61.342 0 115.8-23.805 149.97-60.563zm45.75 53.813c-39.51 36.303-95.29 58.937-157.09 58.937-45.049 0-86.911-12.013-121.59-32.593-7.363 8.493-14.847 16.862-22.406 25.125 40.894 24.775 90.514 39.312 144 39.312 69.909 0 133.22-24.817 179.06-64.906z" fill="#fd0" fill-rule="evenodd" stroke="#000" stroke-linecap="square" stroke-width="2.4"/><path d="m516.26 1492.2-7.059-16.118c-1.841-4.205-0.63-8.767 3.782-11.014 4.413-2.247 9.26-0.647 11.459 3.382l8.427 15.447m-11.971-10.182 7.985 15.68c2.083 4.09 8.485 5.75 13.52 2.002m-42.96-7.982 6.577 16.321c1.716 4.257 7.37 6.054 11.906 4.067s7.057-7.329 5.093-11.477l-7.529-15.905m-22.4 24.75-5.577-16.69c-1.455-4.353 0.653-8.94 5.299-10.652 4.647-1.711 9.219 0.379 10.935 4.637l6.577 16.321m-33.045-4.217 4.533 17.003c1.182 4.434 6.584 6.849 11.327 5.425s8.311-6.668 6.724-10.975l-6.082-16.512m-49.869 25.331-1.225-17.554c-0.319-4.578 2.832-8.564 7.758-9.067s8.312 2.551 9.069 7.077l2.904 17.355m6.386-1.158-3.454-17.254c-0.901-4.5 1.731-8.828 6.553-9.953 4.823-1.125 8.611 1.541 9.931 5.937l5.06 16.854m-32.433-8.01 2.348 17.439c0.612 4.549 5.676 7.588 10.56 6.771 4.883-0.817 9.094-5.673 8.051-10.143l-3.998-17.136m-40.145 4.736 0.094 17.596c0.025 4.59 5.266 8.342 10.205 7.997 4.94-0.345 9.157-4.481 8.691-9.047l-1.788-17.505m-29.685 15.297 1.032-17.566c0.27-4.582 3.31-8.025 8.262-8.052 4.951-0.026 8.509 3.576 8.682 8.162l0.659 17.584m-29.37-15.687-2.146 17.465c-0.559 4.556 4.151 8.897 9.094 9.188 4.943 0.29 9.654-3.295 9.777-7.883l0.47-17.59m-55.583 5.763 4.806-16.927c1.254-4.415 5.575-6.977 10.377-5.769s7.384 5.542 6.401 10.025l-3.767 17.188m6.366 1.231 3.234-17.297c0.844-4.511 4.327-7.591 9.242-6.988 4.915 0.604 7.995 4.609 7.58 9.18 0 0-1.591 17.524-1.591 17.524m-27.186-19.145-4.291 17.065c-1.12 4.452 2.992 9.279 7.859 10.19 4.868 0.91 9.985-2.078 10.687-6.613l2.694-17.389m-39.489-10.012-5.802 16.612c-1.513 4.334 1.558 9.394 6.279 10.889 4.721 1.494 10.152-0.885 11.406-5.3l4.806-16.927m-32.761-23.132c1.653 2.01 1.825 6.339 0.885 8.432l-7.206 16.054m5.92 2.596 6.751-16.25c1.761-4.239 6.398-6.315 11.024-4.547 4.625 1.767 6.295 6.207 4.91 10.583l-5.31 16.776m-22.413-24.888-7.649 15.847c-1.995 4.134 0.478 9.442 4.996 11.47 4.517 2.028 10.588 0.37 12.227-3.917l6.282-16.437" fill="none" stroke="#000" stroke-linecap="round" stroke-linejoin="round" stroke-width="2.5"/><g transform="matrix(.1729 1.2288 -1.0848 .2169 778.42 1351)"><path d="m178.55 638.36c-2.475-3.969-20.351-19.126-11.554-12.6 8.798 6.525 15.66 9.036 16.123 10.971zm-12.167-18.099c3.346 10.16 17.404 6.002 12.115-3.739-2.58-4.752-3.526-0.304-5.801 1.731-2.559 2.287-4.812-6.643-4.794-14.569-2.822 5.274-3.646 10.121-1.52 16.577v0m9.127-8.246c-8.625 2.239-5.053-4.923-2.22-10.518 5.494-10.853-7.296-28.705-15.358-30.759 11.073-1.157 15.596-9.106 14.594-1.833 7.843-0.266 0.416 5.821-4.025 3.549 10.348 11.924 29.055 28.102 7.009 39.561v0m-29.026-39.249c-5.803 2.9-1.46 8.751 4.108 5.089 2.716-1.786 0.357-1.997-0.991-2.896-1.516-1.011 3.663-2.988 8.348-3.771-3.199-0.916-7.779-0.265-11.465 1.578v0m21.487 19.703c1.026 5.563-8.81 9.707-11.529-0.599-0.904-3.426 1.384-4.467 4.411-4.053 3.403 0.465-3.867-9.072-3.844-17.905 5.432 6.807 9.735 15.899 10.962 22.557v0m-5.669-41.686c-0.732-7.935-11.757-4.441-9.635 3.396 1.035 3.823 1.848 1.676 3.722 0.285 2.108-1.564 2.817 10.419 1.828 16.321 2.662-3.705 4.551-14.96 4.085-20.002v0m-28.818-3.476c8.444 6.759-4.194-25.456 7.482-21.45 7.417 2.545 2.857 10.31-0.272 13.772-4.15 4.59 11.306 26.305 18.728 29.611-10.769-2.168-20.74-3.215-26.105-7.44-2.239-2.833 1.631-5.669 5.332-2.972-1.488-1.442-6.493-12.585-5.165-11.521v0m-7.93-19.589c-4.501-6.375-12.527 1.642-6.999 7.445 2.697 2.831 2.735 1.118 3.779-0.942 1.175-2.315 7.942 8.355 9.688 13.926 0.788-4.385-3.607-16.378-6.468-20.429v0" fill="#fd0" fill-rule="evenodd" stroke="#000" stroke-linecap="round" stroke-linejoin="round" stroke-width=".9"/><g transform="translate(-425.9 130.98)"><path d="m586.67 434.04c-2.467-0.826-3.957-0.429-4.429 0.555-0.477 0.994-0.503 2.75 2.418 4.002-1.423 2.722-0.149 3.646 0.557 3.883 0.801 0.268 2.209 0.653 3.457-2.632 3.515 1.957 4.092 0.257 4.42-0.413 0.328-0.671 1.005-2.299-2.286-3.539 1.341-2.803-0.147-4.286-0.902-4.592-0.801-0.325-2.049 0.127-3.235 2.736v0" fill="#fd0" fill-rule="evenodd" stroke="#000" stroke-linecap="round" stroke-linejoin="round" stroke-width=".9"/><path d="m585.88 437.78c0.272 0.632 0.84 1.016 1.569 1.06 0.729 0.045 1.404-0.264 1.861-0.851 0.458-0.588 0.564-1.28 0.292-1.912-0.271-0.632-0.84-1.016-1.569-1.06-0.729-0.045-1.403 0.264-1.861 0.851-0.458 0.588-0.563 1.28-0.292 1.912" fill-rule="evenodd"/></g></g><path d="m567.56 1512.2c-2.368 4.038 1.105 15.421-2.568 17.394-3.674 1.973-14.415-9.678-18.144-7.812-3.729 1.867-0.873 17.389-4.655 19.145-3.783 1.756-13.662-10.732-17.544-9.209-3.883 1.522-2.425 17.314-6.353 18.714s-12.549-11.824-16.559-10.68c-4.01 1.145-4.065 17.064-8.129 18.08s-11.602-13.001-15.679-12.125-5.497 16.59-9.624 17.186-10.192-14.078-14.337-13.625c-4.146 0.454-7.178 16.005-11.345 16.167-4.167 0.163-8.662-15.033-12.832-15.018-4.17 0.016-8.825 15.222-12.986 14.943s-7.026-15.834-11.175-16.259c-4.148-0.426-10.391 14.27-14.5 13.554-4.108-0.715-5.331-16.449-9.412-17.307-4.08-0.857-11.539 13.083-15.588 12.085s-3.891-16.894-7.863-18.164-12.826 11.897-16.754 10.496c-3.927-1.402-2.238-17.076-6.066-18.729-3.828-1.654-13.954 10.661-17.728 8.887s-0.792-17.36-4.51-19.25c-3.717-1.89-16.638 9.247-20.296 7.245" fill="none" stroke="#000" stroke-width="2"/><path d="m453.98 1255.2c33.291 43.419 70.78 138.42 91.465 187.94 12.374 29.622 25.267 54.023 40.137 76.145-36.939-7.042-68.489-62.006-86.477-115.84-17.886 40.086-44.213 48.344-62.639 63.942-15.155 12.828-37.093 8.075-46.334-1.312-10.181-10.34-22.702-29.051-24.57-51.846-0.798-9.738-10.218-28.346-3.568-94.977 0.832-8.341 0.652-50.69 0.27-64.047z" fill="#fff" fill-rule="evenodd"/><path transform="matrix(-.9354 -.8634 -.9898 .9136 1256.1 901.95)" d="m221.56 681.82a4.829 4.829 0 1 1-9.657 0 4.829 4.829 0 1 1 9.657 0z" fill="none" stroke="#00d" stroke-width="2"/><path d="m373.45 1340c1.901 2.444 1.201-1.917 3.587-3.656 2.386-1.74 6.958-0.203 5.057-2.648-1.901-2.444-5.077-2.406-7.462-0.666-2.386 1.739-3.082 4.525-1.182 6.97z" fill="#00d" fill-rule="evenodd" stroke="#00d" stroke-width="2.2"/><path transform="matrix(-.4658 -.4299 -.4952 .4571 817.25 1120)" d="m221.56 681.82a4.829 4.829 0 1 1-9.657 0 4.829 4.829 0 1 1 9.657 0z" fill-rule="evenodd"/><path d="m400.6 1314.1 0.547 6.086c-11.17-3.665-18.748-6.112-37.548-1.115l-0.472-1.25c12.832-2.205 16.354-6.78 37.473-3.721zm22.171 0.169-4.685 7.034c21.548-10.245 34.861 4.088 54.956-0.465-25.577-0.882-24.348-10.844-50.271-6.569z" fill="#00d" fill-rule="evenodd" stroke="#00d" stroke-miterlimit="1" stroke-width="2"/><path transform="matrix(.9354 -.8634 .9898 .9136 -439.57 902.16)" d="m221.56 681.82a4.829 4.829 0 1 1-9.657 0 4.829 4.829 0 1 1 9.657 0z" fill="none" stroke="#00d" stroke-width="2"/><path d="m442.51 1333.8c2.639 2.435-2.511 0.995-5.004 3.296s-1.391 7.477-4.029 5.042-2.069-5.856 0.424-8.158c2.494-2.301 5.971-2.615 8.609-0.18z" fill="#00d" fill-rule="evenodd" stroke="#00d" stroke-width="2.6"/><path transform="matrix(.4658 -.4299 .4952 .4571 -.6751 1120.2)" d="m221.56 681.82a4.829 4.829 0 1 1-9.657 0 4.829 4.829 0 1 1 9.657 0z" fill-rule="evenodd"/><path d="m425.77 1330.4c8.284-5.43 9.049-5.648 17.993-3.238 6.982 1.881 12.932 5.233 19.775 9.887l0.24 2.881c-13.847-3.952-20.88-9.656-35.537-7.425zm-36.373-0.213c-6.014-4.044-10.323-5.596-14.656-4.751-3.319 0.648-9.427 6.318-12.108 7.984l-0.818 3.095c8.181-2.138 11.86-6.455 26.518-4.223z" color="#000000" enable-background="accumulate" fill="#00d" fill-rule="evenodd" stroke="#00d" stroke-linecap="round" stroke-linejoin="round" stroke-width="1.4"/><path d="m404.99 1430.7c1.048 0.468 4.191 0.656 5.042-0.093 5.242 2.874 6.508 3.399 14.944 3.987-10.094 3.142-11.004 2.32-15.831 2.418-5.126 0.104-9.313-0.6-18.003-2.679 6.785-0.604 9.989-1.694 13.848-3.633z" color="#000000" enable-background="accumulate" fill="#00d" fill-rule="evenodd" stroke="#00d" stroke-linecap="round" stroke-linejoin="round" stroke-width="2"/><path d="m419.44 1402.7c7.953 5.03 0.556 14.065-6.353 10.868-4.176-1.932-2.453-4.65-8.229-1.822m-0.717-87.193c-4.883 71.521-3.7 64.314-8.903 72.762-6.902 11.207-1.267 15.156 3.263 16.69l0.23 11.282m21.345-87.117c8.408-2.001 11.941-8.416 18.814-7.897 7.25 0.547 12.505 6.495 22.246 8.784-12.293 0.438-17.499 8.219-24.012 7.092-6.561-1.135-8.644-5.171-17.048-7.979zm16.256 12.763c9.818 1.531 13.778-0.579 21.442-5.227m-94.938-8.037-0.231 3.202c10.399 3.955 11.486 6.405 17.999 5.278s7.488-5.385 15.892-8.192c-8.408-2.001-12.173-7.99-19.046-7.471-7.249 0.548-9.267 5.321-14.614 7.183zm17.655 14.06c-9.061 0.017-11.358-0.686-18.803-5.169m38.386 102.37c6.15-5.061 9.255-2.119 12.58 0m86.325-45.329c-17.76 39.978-44.087 48.236-62.513 63.834-15.155 12.828-37.093 8.075-46.334-1.312-10.181-10.34-22.702-29.051-24.57-51.846-0.798-9.738-10.218-28.346-3.568-94.977 0.832-8.341 0.652-50.69 0.27-64.047m11.124 0c-2.463 4.515-5.194 8.257-10.648 10.179m22.241-10.179c-4.222 10.97-12.453 16.493-21.428 20.175m32.688-20.175c-7.544 16.165-15.843 24.824-33.294 31.015m43.479-31.015c-10.818 25.019-20.462 33.047-43.782 41.585m83.758-41.585c2.463 4.515 8.562 9.617 14.016 11.539m-24.54-11.539c4.222 10.97 23.629 20.231 32.605 23.913m-43.865-23.913c7.544 16.165 33.316 29.831 50.768 36.022m-61.732-36.022c8.548 22.748 42.975 41.325 69.229 46.929m24.404 48.446c-0.01 18.959 38.647 111.65 48.547 115.25m-63.453-144.76c-7.503 22.522 24.686 155.19 84.78 185.19m-92.068-199.68c-10.742 46.534 36.98 200.57 100.4 212.73m-18.538-31.293c-27.537-10.627-70.68-121.11-67.931-152.95" fill="none" stroke="#00d" stroke-linecap="round" stroke-linejoin="round" stroke-width="2.8"/><path d="m631.02 1430.8c-14.627-2.874-78.447 1.153-86.495 6.935-19.465-50.013-57.246-139.11-90.537-182.52h123.46c3.51 53.981 22.249 121.61 53.572 175.59z" fill="#fd0" fill-rule="evenodd" stroke="#000" stroke-linecap="round" stroke-linejoin="round" stroke-width="2.5"/><path d="m360.81 1332.7c-51.935 43.181-69.687 122.11-66.125 191.84 10.257-11.428 20.345-23.062 30.219-34.937 4.639-42.803 17.504-80.341 35.531-107.09-0.991-11.778-1.277-27.751 0.375-49.812zm147.54-29.079c21.173 40.158 41.716 96.114 57.775 125.21 30.884 55.951 78.644 104.05 89.387 107.06v62.138c-51.343-47.476-82.033-87.785-110.06-154.88-20.685-49.515-58.174-144.52-91.465-187.94h27.528c11.045 14.995 14.08 24.212 26.838 48.41z" fill-rule="evenodd"/><g id="g5433" transform="matrix(-.2396 -.4666 -.4784 .2456 592.31 1085.8)"><path d="m-302.11 258.26c0.834-13.718 5.633-20.093 11.265-20.287 5.691-0.195 14.604 4.058 14.395 20.867 15.855-0.58 18.013 8.277 17.524 12.172-0.554 4.413-1.877 11.399-20.027 9.853 1.877 21.253-8.032 0.935-11.892 0.839-3.859-0.097-12.308 18.868-11.265 0.32-16.064 0-19.402-9.598-19.402-13.911 0-4.575 4.59-9.66 19.402-9.853z" fill-rule="evenodd" stroke="#d00" stroke-linecap="round" stroke-linejoin="round" stroke-width="3.6"/><path transform="matrix(.2638 0 0 .2683 -229.93 197.81)" d="m-198.2 267.48a30.694 30.694 0 1 1-61.388 0 30.694 30.694 0 1 1 61.388 0z" fill-rule="evenodd" stroke="#d00" stroke-linecap="round" stroke-linejoin="round" stroke-width="12.8"/></g><path d="m484.14 1257.8c44.324 75.545 64.735 140.66 83.919 172.66l22.296-2.401c-6.492-1.072-25.049-21.546-15.69-34.715-15.702-0.76-31.56-37.948-24.816-49.544-11.618 0.876-33.017-36.474-26.247-51.042-13.541-1-24.637-18.902-20.34-34.963z" fill="#d00" fill-rule="evenodd" stroke="#00d" stroke-width="2.5"/><path d="m628.33 1428.8c-26.755-45.036-49.951-119.6-51.964-172.13l-9.461 0.197c2.142 8.335 0.205 12.064-5.517 22.783 16.321 4.129 22.753 32.554 16.188 52.213 9.338 3.169 20.76 28.604 20.513 51.026 12.366 9.123 17.876 32.524 13.357 45.479z" fill="#00d" fill-rule="evenodd"/><path d="m360.44 1382.5c-18.027 26.753-30.892 64.291-35.531 107.09 14.849-17.86 29.243-36.235 43.156-55.188l0.125-0.031c-3.136-16.653-6.039-34.449-7.75-51.875z" fill="#d00" fill-rule="evenodd"/><path id="path5540" d="m327.83 1719.9c-9.958 8.143-12.141 10.865-17.33 22.666-5.189-11.801-7.373-14.523-17.33-22.666 9.957-8.144 12.141-10.866 17.33-22.667 5.189 11.801 7.372 14.523 17.33 22.667z" fill="#d00" fill-rule="evenodd"/><path d="m245.25 1576.7c17.741 101.14-51.778 171.09-156.59 147.41" enable-background="accumulate" fill="none" stroke="#d00" stroke-linecap="round" stroke-linejoin="round" stroke-width="5"/><path d="m88.671 1713.2c103.91-80.348 199.68-170.19 279.39-278.78" enable-background="accumulate" fill="none" stroke="#000" stroke-linecap="round" stroke-linejoin="round" stroke-width="5"/><path d="m531.62 1560.9c-9.28 46.009-28.133 80.57-63.312 116.88h53.062c8.54-10.18 18.029-19.607 26.063-30.219 25.469-32.999 39.335-73.838 41.687-115.31" fill="#00d" fill-rule="evenodd" stroke="#fff" stroke-linecap="square" stroke-width="5"/><path d="m507.42 1682c49.147-46.613 71.2-94.633 73.008-145.75m-41.424 20.337c-6.186 46.638-33.703 95.709-64.078 123.95" fill="none" stroke="#000" stroke-linecap="square" stroke-width="5"/><path d="m515.46 1668.3c-6.985-0.09-9.117 0.305-15.598 2.964 2.429-6.591 2.48-8.222 1.183-15.111 6.985 0.09 8.861-0.038 14.928-3.547-1.525 6.859-1.81 8.805-0.513 15.694" fill="#d00" fill-rule="evenodd"/><path d="m557.2 1610c-9.27 2.409-11.659 3.922-19.365 9.645 0.991-9.547 0.123-11.826-4.077-20.433 9.269-2.409 11.39-3.276 17.949-10.284 0.73 9.571 1.293 12.465 5.493 21.072" fill="#d00" fill-rule="evenodd"/><path d="m570.79 1568.3c-8.623 5.177-10.701 7.496-16.959 15.398-1.592-9.954-3.072-11.884-9.858-19.308 8.623-5.177 10.62-7.037 15.965-15.582 2.684 9.716 4.066 12.068 10.852 19.492" fill="#d00" fill-rule="evenodd"/><path d="m537.07 1644c-8.703 0.714-11.087 1.7-18.903 5.636 2.383-8.421 1.959-10.604-0.468-18.993 8.703-0.714 10.744-1.162 17.731-6.432-0.84 8.712-0.787 11.4 1.64 19.789" fill="#d00" fill-rule="evenodd"/><path d="m594.88 1532.2c-3.617 68.497-32.572 111.66-68.281 148.06 23.135-11.429 49.121-17.415 74.75-17.125 11.275-0.138 22.569 0.577 33.719 2.219 6.388 1.986 14.029 1.433 20.406 3.562l0.031-70.875c-24.168-22.347-43.738-43.126-60.625-65.843zm-298.31 104.25h195.41c14.711-22.06 25.643-46.625 30.969-72.563-56.949 19.305-116.58 18.118-174.19 3.33z" fill="#d00" fill-rule="evenodd"/><path d="m156.17 1509c1.094 30.764-26.958 50.275-21.818 78.426" enable-background="accumulate" fill="none" stroke="#000" stroke-linecap="round" stroke-linejoin="round" stroke-width="5"/><path d="m134.5 1568.5c-6.213-18.213-0.18-22.045-18.482-38.259 3.693 22.59 3.533 32.968 18.482 38.259zm0.547 7.905c16.068-27.01 27.144-24.228 43.544-26.995-11.572 16.449-28.867 23.639-43.544 26.995z" color="#000000" enable-background="accumulate" fill="#fd0" fill-rule="evenodd" stroke="#000" stroke-linecap="round" stroke-linejoin="round" stroke-width="2.5"/><path d="m148.48 1585.6c-0.081 0.232-0.428 1.707-2.531 4.563-2.783 3.777-11.293 1.626-1.188 13.5l-22.219 40.312c8.355 3.054 18.477 11.34 29.624 16.03l33.223-27.495c-12.771-10.237-36.815-46.429-36.909-46.91z" fill="#fff" fill-rule="evenodd" stroke="#000" stroke-linecap="round" stroke-linejoin="round" stroke-width="3"/><path d="m126.77 1610.6c-2.261 2.606-1.81 6.705 1.007 9.149 11.107 9.637 6.291 3.264 9.326 0.202 3.258-3.286 8.281-3.013-1.134-9.643-3.053-2.15-6.938-2.313-9.199 0.292zm-5.634 13.084c-2.008 2.805-1.204 6.824 1.793 8.968 11.818 8.457 6.503 2.615 9.236-0.719 2.934-3.579 7.922-3.803-1.962-9.446-3.206-1.83-7.06-1.609-9.067 1.197zm13.763-24.629c-2.363 2.514-2.189 6.521 0.389 8.943 10.163 9.554 5.898 3.269 9.042 0.321 3.375-3.165 8.234-2.832-0.481-9.428-2.826-2.14-6.588-2.35-8.95 0.164zm-17.713 37.237c-1.737 2.428-1.237 5.765 1.116 7.449 9.28 6.641 5.184 1.945 7.531-0.953 2.519-3.111 6.58-3.489-1.235-7.844-2.535-1.412-5.674-1.08-7.412 1.348z" fill="#fff" fill-rule="evenodd" stroke="#000" stroke-linecap="round" stroke-linejoin="round" stroke-width="3"/><path d="m112.59 1598.3c-2.261 2.606-1.098 7.321 2.593 10.525 14.558 12.631 7.909 4.667 11.011 1.664 3.33-3.225 9.285-2.142-2.819-11.106-3.925-2.906-8.524-3.688-10.785-1.083zm-6.541 14.59c-2.008 2.806-0.448 7.365 3.48 10.176 15.49 11.084 8.224 3.846 11.028 0.563 3.01-3.524 8.991-3.038-3.754-10.729-4.134-2.494-8.747-2.816-10.754-0.01zm15.874-26.029c-2.363 2.514-1.538 7.132 1.84 10.308 13.322 12.522 7.378 4.66 10.583 1.769 3.441-3.103 9.154-1.968-2.022-10.877-3.624-2.889-8.038-3.713-10.401-1.2zm-16.585 40.955c-1.737 2.428-0.643 6.19 2.441 8.397 12.164 8.704 6.535 2.912 8.938 0.054 2.579-3.068 7.42-2.888-2.643-8.851-3.263-1.934-6.998-2.028-8.736 0.4z" fill="#fff" fill-rule="evenodd" stroke="#000" stroke-linecap="round" stroke-linejoin="round" stroke-width="3"/><path d="m137.43 1619.5c-2.261 2.605-2.071 6.477 0.423 8.641 2.495 2.165 6.355 1.807 8.615-0.799 2.261-2.606 2.072-6.477-0.423-8.642-2.494-2.164-6.354-1.806-8.615 0.8zm-4.984 11.953c-2.008 2.806-1.483 6.624 1.172 8.524 2.654 1.899 6.438 1.163 8.445-1.642 2.008-2.806 1.483-6.624-1.171-8.524-2.655-1.899-6.438-1.164-8.446 1.642zm12.232-23.57c-2.363 2.514-2.428 6.296-0.145 8.441 2.283 2.146 6.053 1.847 8.416-0.667 2.363-2.513 2.428-6.295 0.145-8.441-2.283-2.145-6.053-1.847-8.416 0.667zm-18.598 34.496c-1.738 2.428-1.456 5.609 0.628 7.101 2.084 1.491 5.186 0.731 6.923-1.697 1.738-2.428 1.456-5.609-0.628-7.1-2.084-1.492-5.186-0.732-6.923 1.696zm20.491-52.391c2.068-3.217 1.755-7.425-0.699-9.394-2.454-1.968-6.125-0.955-8.193 2.262-2.069 3.217-1.756 7.425 0.699 9.394 2.454 1.968 6.124 0.955 8.193-2.262z" fill="#fff" fill-rule="evenodd" stroke="#000" stroke-linecap="round" stroke-linejoin="round" stroke-width="3"/><path d="m153.82 1514.2c-4.876 6.188-18.819 7.42-30.056 12.114 2.001-8.495 16.532-18.689 26.581-18.188-7.751-2.086-25.676-6.737-31.673-12.696 9.24-5.451 30.158-0.205 33.329 3.186-0.667-6.3-0.369-18.402 10.198-20.811 3.243 6.848 1.738 15.779 0.827 21.592 6.094-3.513 23.042-4.106 32.948 2.614-9.993 2.788-22.745 5.255-30.115 4.998 7.004 2.3 22.055 12.712 24.057 21.207-10.872-3.719-21.908-7.483-27.19-13.94-1.989 7.934-0.979 18.62-6.885 27.371-7.595-11.38-2.932-21.633-2.021-27.447z" fill="#fff" fill-rule="evenodd" stroke="#00d" stroke-width="2.5"/><path transform="matrix(1.4814 0 0 1.4814 -76.192 1045)" d="m161.13 310.56a3.6535 3.0764 0 1 1-7.307 0 3.6535 3.0764 0 1 1 7.307 0z" fill="#fd0" fill-rule="evenodd"/><use id="use56866" transform="matrix(.948 0 0 .948 53.92 118.37)" width="744.09448" height="1052.3622" xlink:href="#g5433"/><use transform="matrix(.9039 0 0 .9039 77.814 178.58)" width="744.09448" height="1052.3622" xlink:href="#use56866"/><use transform="translate(41.029)" width="744.09448" height="1052.3622" xlink:href="#path5540"/><path d="m168.4 1512.2c-2.881-3.432-5.184-7.292-11.149-7.331 4.329-7.042 18-10.346 25.633-9.258m-11.177-13.518c-3.489 3.048-12.407 16.273-14.456 22.776m-23.672 0.754c4.377-2.632 15.531-9.868 23.672-0.754-3.356-11.087-9.194-16.257-17.696-21.193" enable-background="accumulate" fill="none" stroke="#fff" stroke-linecap="round" stroke-linejoin="round" stroke-width="2.2"/><path d="m157.13 1506.1c-3.356-11.087 1.767-27.461 1.303-34.712" enable-background="accumulate" fill="none" stroke="#fff" stroke-linecap="round" stroke-linejoin="round" stroke-width="2.2"/><path d="m169.23 1512.1-0.759 0.842m14.826-18.23 7e-3 0.962m-11.766-14.832 0.56 0.66m-32.941 2.338 0.471-0.555m-7.147 23.305-0.608-1.2" stroke="#fd0" stroke-linecap="round" stroke-linejoin="round" stroke-width="4"/></g><use transform="rotate(180 372.05 1719.9)" width="744.09448" height="1052.3622" xlink:href="#g64690"/></g><path id="path4742" d="m2300.6 379.67c-9.918 8.011-12.093 10.689-17.261 22.299-5.169-11.61-7.344-14.288-17.262-22.299 9.918-8.011 12.093-10.689 17.262-22.299 5.168 11.61 7.343 14.288 17.261 22.299z" fill="#d00" fill-rule="evenodd"/><use transform="rotate(180 2328.8 472.5)" width="2632.5" height="1575" xlink:href="#path4742"/><path d="m2255.8 379.67c-5.062 4.14-6.172 5.523-8.81 11.523-2.638-6-3.748-7.383-8.81-11.523 5.062-4.14 6.172-5.524 8.81-11.523 2.638 5.999 3.748 7.383 8.81 11.523z" fill="#d00" fill-rule="evenodd"/><path d="m2401.7 565.56c5.062-4.14 6.172-5.523 8.81-11.523 2.638 6 3.748 7.383 8.81 11.523-5.062 4.14-6.172 5.524-8.81 11.523-2.638-5.999-3.748-7.383-8.81-11.523z" fill="#d00" fill-rule="evenodd"/><g id="g5998" transform="matrix(.1923 0 0 .2054 2430.2 431.47)"><path d="m-904.92-391.79v-39.946c0-25.738-19.801-46.627-44.2-46.627-24.398 0-44.2 20.889-44.2 46.627v39.946c0 25.738 19.802 46.627 44.2 46.627 24.399 0 44.2-20.889 44.2-46.627z" fill="none" stroke="#d00" stroke-linecap="round" stroke-width="15.1"/><path d="m-1000.9-413.53c59.826 0 58.32 56.136 95.622 66.131" fill="none" stroke="#d00" stroke-linecap="square" stroke-linejoin="bevel" stroke-width="15.1"/></g><use transform="rotate(180 2328.8 472.5)" width="2878.937" height="1565.9353" xlink:href="#g5998"/><rect transform="scale(-1)" x="-2396.8" y="-596.35" width="136.1" height="247.7" fill="none" stroke="#000" stroke-linecap="round" stroke-linejoin="round" stroke-width="1.6"/></g><g transform="matrix(.037987 0 0 .037987 24.273 40)"><rect x="608.21" y=".70864" width="201.08" height="313.58" rx="8.6761" ry="8.6761" fill="#fff" fill-rule="evenodd" stroke="#000" stroke-linecap="round" stroke-linejoin="round" stroke-width="1.4"/><path d="m749.8 77.42c0.047-1.276 0.094-2.551 0.141-3.826 1.664 0.679 1.512 2.624 1.751 4.094 0.797 4.647 4.955 8.813 9.863 8.528 5.233-0.19 9.149-5.181 9.302-10.192 0.378-5.23-3.261-10.858-8.732-11.431-3.857-0.482-7.534 1.935-9.339 5.238-0.392 0.858-2.9 1.427-2.245-0.055 0.578-1.931 2.991-1.847 4.221-3.187 5.406-4.307 5.265-13.623-0.298-17.733-3.526-2.853-9.09-2.29-12.065 1.1-4.589 4.691-3.916 13.38 1.549 17.106 1.233 1.006 3.536 1.098 3.652 3.09 0.036 1.185-2.371 0.221-2.579-0.731-2.162-3.945-7.341-6.098-11.548-4.165-5.892 2.489-7.893 10.421-4.814 15.784 2.091 4.197 7.556 6.514 11.901 4.394 3.826-1.694 5.994-5.872 6.107-9.924 0.052-1.189 1.936-2.791 1.553-0.776 0.367 5.065 0.127 10.233-1.143 15.163 0.108 1.052-2.357 3.533-0.165 3.149h5.196c-0.721-2.496-1.892-5.367-2.022-8.184-0.268-2.471-0.29-4.96-0.286-7.442z"/><path d="m749.8 237.58c0.047 1.276 0.094 2.551 0.141 3.826 1.664-0.679 1.512-2.624 1.751-4.094 0.797-4.647 4.955-8.813 9.863-8.528 5.233 0.19 9.149 5.181 9.302 10.192 0.378 5.23-3.261 10.858-8.732 11.431-3.857 0.482-7.534-1.935-9.339-5.238-0.392-0.858-2.9-1.427-2.245 0.055 0.578 1.931 2.991 1.847 4.221 3.187 5.406 4.307 5.265 13.623-0.298 17.733-3.526 2.853-9.09 2.29-12.065-1.1-4.589-4.691-3.916-13.38 1.549-17.106 1.233-1.006 3.536-1.098 3.652-3.09 0.036-1.185-2.371-0.221-2.579 0.731-2.162 3.945-7.341 6.098-11.548 4.165-5.892-2.489-7.893-10.421-4.814-15.784 2.091-4.197 7.556-6.514 11.901-4.394 3.826 1.694 5.994 5.872 6.107 9.924 0.052 1.189 1.936 2.791 1.553 0.776 0.367-5.065 0.127-10.233-1.143-15.163 0.108-1.052-2.357-3.533-0.165-3.149h5.196c-0.721 2.496-1.892 5.367-2.022 8.184-0.268 2.471-0.29 4.96-0.286 7.442z"/><use transform="rotate(180 708.8 157.5)" width="2878.937" height="1565.9353" xlink:href="#path22583"/><path d="m627.45 67.951 0.069-1.863c0.81 0.331 0.736 1.278 0.853 1.994 0.388 2.263 2.413 4.292 4.802 4.153 2.549-0.093 4.456-2.523 4.53-4.964 0.184-2.546-1.588-5.287-4.252-5.565-1.878-0.235-3.669 0.942-4.548 2.55-0.191 0.418-1.412 0.695-1.093-0.027 0.282-0.94 1.457-0.899 2.056-1.552 2.632-2.097 2.563-6.634-0.145-8.635-1.717-1.389-4.427-1.115-5.876 0.536-2.234 2.284-1.906 6.515 0.755 8.33 0.6 0.49 1.721 0.534 1.778 1.504 0.018 0.577-1.154 0.108-1.256-0.356-1.052-1.921-3.575-2.969-5.623-2.028-2.869 1.212-3.844 5.074-2.344 7.686 1.018 2.044 3.679 3.172 5.795 2.14 1.863-0.825 2.919-2.86 2.974-4.833 0.025-0.579 0.943-1.359 0.756-0.378 0.179 2.467 0.062 4.983-0.557 7.384 0.053 0.512-1.147 1.72-0.08 1.534h2.53c-0.351-1.216-0.921-2.614-0.984-3.986-0.131-1.203-0.141-2.415-0.14-3.624z"/><path d="m790.15 247.05-0.069 1.863c-0.81-0.331-0.736-1.278-0.853-1.994-0.388-2.263-2.413-4.292-4.802-4.153-2.549 0.093-4.456 2.523-4.53 4.964-0.184 2.546 1.588 5.287 4.252 5.565 1.878 0.235 3.669-0.942 4.548-2.55 0.191-0.418 1.412-0.695 1.093 0.027-0.282 0.94-1.457 0.899-2.056 1.552-2.632 2.097-2.563 6.634 0.145 8.635 1.717 1.389 4.427 1.115 5.876-0.536 2.234-2.284 1.906-6.515-0.755-8.33-0.6-0.49-1.721-0.534-1.778-1.504-0.018-0.577 1.154-0.108 1.256 0.356 1.052 1.921 3.575 2.969 5.623 2.028 2.869-1.212 3.844-5.074 2.344-7.686-1.018-2.044-3.679-3.172-5.795-2.14-1.863 0.825-2.919 2.86-2.974 4.833-0.025 0.579-0.943 1.359-0.756 0.378-0.179-2.467-0.062-4.983 0.557-7.384-0.053-0.512 1.147-1.72 0.08-1.534h-2.53c0.351 1.216 0.921 2.614 0.984 3.986 0.131 1.203 0.141 2.415 0.14 3.624z"/><path d="m669.19 237.58c0.047 1.276 0.094 2.551 0.141 3.826 1.664-0.679 1.512-2.624 1.751-4.094 0.797-4.647 4.955-8.813 9.863-8.528 5.233 0.19 9.149 5.181 9.302 10.192 0.378 5.23-3.261 10.858-8.732 11.431-3.857 0.482-7.534-1.935-9.339-5.238-0.392-0.858-2.9-1.427-2.245 0.055 0.578 1.931 2.991 1.847 4.221 3.187 5.406 4.307 5.265 13.623-0.298 17.733-3.526 2.853-9.09 2.29-12.065-1.1-4.589-4.691-3.916-13.38 1.549-17.106 1.233-1.006 3.536-1.098 3.652-3.09 0.036-1.185-2.371-0.221-2.579 0.731-2.162 3.945-7.341 6.098-11.548 4.165-5.892-2.489-7.893-10.421-4.814-15.784 2.091-4.197 7.556-6.514 11.901-4.394 3.826 1.694 5.994 5.872 6.107 9.924 0.052 1.189 1.936 2.791 1.553 0.776 0.367-5.065 0.127-10.233-1.143-15.163 0.108-1.052-2.357-3.533-0.165-3.149h5.196c-0.721 2.496-1.892 5.367-2.022 8.184-0.268 2.471-0.29 4.96-0.286 7.442z"/><path d="m669.19 77.42c0.047-1.276 0.094-2.551 0.141-3.826 1.664 0.679 1.512 2.624 1.751 4.094 0.797 4.647 4.955 8.813 9.863 8.528 5.233-0.19 9.149-5.181 9.302-10.192 0.378-5.23-3.261-10.858-8.732-11.431-3.857-0.482-7.534 1.935-9.339 5.238-0.392 0.858-2.9 1.427-2.245-0.055 0.578-1.931 2.991-1.847 4.221-3.187 5.406-4.307 5.265-13.623-0.298-17.733-3.526-2.853-9.09-2.29-12.065 1.1-4.589 4.691-3.916 13.38 1.549 17.106 1.233 1.006 3.536 1.098 3.652 3.09 0.036 1.185-2.371 0.221-2.579-0.731-2.162-3.945-7.341-6.098-11.548-4.165-5.892 2.489-7.893 10.421-4.814 15.784 2.091 4.197 7.556 6.514 11.901 4.394 3.826-1.694 5.994-5.872 6.107-9.924 0.052-1.189 1.936-2.791 1.553-0.776 0.367 5.065 0.127 10.233-1.143 15.163 0.108 1.052-2.357 3.533-0.165 3.149h5.196c-0.721-2.496-1.892-5.367-2.022-8.184-0.268-2.471-0.29-4.96-0.286-7.442z"/><path id="path22583" d="m632.18 45.679v-28.086l-14.102 21.542h18.019m-7.189 7.052h6.778" fill="none" stroke="#000" stroke-linecap="square" stroke-linejoin="bevel" stroke-width="3"/></g><g transform="matrix(.037987 0 0 .037987 38.35 2.102)"><rect x=".70866" y="945.71" width="201.08" height="313.58" rx="8.6761" ry="8.6761" fill="#fff" fill-rule="evenodd" stroke="#000" stroke-linecap="round" stroke-linejoin="round" stroke-width="1.4"/><path id="path37946" d="m18.155 1022h2.942l0.089-0.096c-0.827-1.39-1.237-3.896-1.237-7.513l0.023-0.377c0.697 2.166 2.303 3.672 4.659 3.672 2.822 0 4.88-2.618 4.925-5.404 0-4.274-5.644-7.373-9.93-14.916-4.286 7.543-9.929 10.642-9.929 14.916 0.044 2.786 2.102 5.404 4.924 5.404 2.356 0 3.962-1.506 4.659-3.672l0.023 0.377c0 3.617-0.41 6.123-1.236 7.513z"/><use transform="rotate(180 101.32 1102.5)" width="2878.937" height="1565.9353" xlink:href="#path37946"/><path d="m95.219 1152.9h12.044l0.36036-0.3938c-3.3811-5.691-5.0628-15.949-5.0628-30.753l0.0945-1.5419c2.8553 8.8653 9.4285 15.031 19.072 15.031 11.553 0 19.976-10.716 20.157-22.122 0-17.492-23.099-30.176-40.642-61.053-17.544 30.877-40.644 43.561-40.644 61.053 0.18117 11.406 8.6054 22.122 20.157 22.122 9.6451 0 16.216-6.1656 19.072-15.031l0.09452 1.5419c0 14.804-1.6817 25.062-5.0628 30.753z" stroke-width="1.9692"/><path d="m79.959 1231.2c-0.044 0.213-0.14 0.378-0.289 0.493-0.146 0.114-0.335 0.171-0.566 0.171-0.304 0-0.548-0.098-0.73-0.293-0.181-0.195-0.271-0.456-0.271-0.781 0-0.327 0.091-0.589 0.273-0.786 0.184-0.197 0.427-0.296 0.728-0.296 0.13 0 0.258 0.016 0.383 0.047 0.127 0.029 0.262 0.075 0.403 0.139v0.52h-0.205c-0.028-0.178-0.088-0.308-0.181-0.391-0.092-0.083-0.224-0.124-0.395-0.124-0.194 0-0.34 0.075-0.44 0.224-0.097 0.148-0.146 0.371-0.146 0.667 0 0.294 0.049 0.516 0.146 0.664 0.098 0.146 0.243 0.22 0.435 0.22 0.158 0 0.282-0.039 0.374-0.115 0.092-0.078 0.156-0.198 0.19-0.359h0.291m-0.86-2.227c0.248 0 0.478 0.045 0.691 0.135 0.215 0.089 0.411 0.223 0.588 0.4 0.178 0.177 0.311 0.373 0.398 0.586 0.088 0.213 0.132 0.445 0.132 0.696 0 0.247-0.044 0.478-0.132 0.691-0.087 0.211-0.22 0.406-0.398 0.583-0.177 0.178-0.373 0.311-0.588 0.401-0.213 0.089-0.443 0.134-0.691 0.134-0.247 0-0.478-0.045-0.693-0.134-0.213-0.09-0.409-0.223-0.586-0.401-0.178-0.177-0.31-0.372-0.398-0.583-0.088-0.213-0.132-0.444-0.132-0.691 0-0.251 0.044-0.483 0.132-0.696s0.22-0.409 0.398-0.586c0.177-0.177 0.373-0.311 0.586-0.4 0.215-0.09 0.446-0.135 0.693-0.135m0 0.252c-0.213 0-0.412 0.038-0.596 0.115-0.183 0.076-0.352 0.191-0.505 0.344-0.151 0.151-0.266 0.32-0.344 0.508-0.077 0.185-0.115 0.385-0.115 0.598 0 0.211 0.038 0.409 0.115 0.593 0.078 0.184 0.193 0.352 0.344 0.505 0.153 0.153 0.322 0.269 0.505 0.347 0.184 0.077 0.383 0.115 0.596 0.115 0.215 0 0.414-0.038 0.598-0.115 0.186-0.078 0.355-0.194 0.508-0.347 0.151-0.151 0.265-0.319 0.339-0.502 0.077-0.184 0.115-0.383 0.115-0.596 0-0.217-0.038-0.417-0.115-0.601-0.076-0.185-0.189-0.354-0.339-0.505-0.153-0.153-0.322-0.268-0.508-0.344-0.184-0.077-0.383-0.115-0.598-0.115m4.732 0.598h-0.274v-0.649c0.174-0.093 0.349-0.164 0.525-0.213 0.177-0.049 0.351-0.073 0.52-0.073 0.379 0 0.679 0.092 0.899 0.276 0.219 0.184 0.329 0.434 0.329 0.749 0 0.357-0.249 0.783-0.747 1.28-0.039 0.037-0.068 0.066-0.088 0.085l-0.92 0.92h1.521v-0.449h0.285v0.85h-2.351v-0.266l1.106-1.104c0.244-0.244 0.419-0.468 0.523-0.671 0.104-0.205 0.156-0.42 0.156-0.645 0-0.245-0.064-0.437-0.193-0.576-0.127-0.138-0.303-0.207-0.527-0.207-0.233 0-0.413 0.057-0.54 0.173s-0.202 0.289-0.224 0.52m4.133 2.605c0.249 0 0.435-0.137 0.559-0.41 0.124-0.274 0.186-0.686 0.186-1.238 0-0.553-0.062-0.967-0.186-1.24-0.124-0.274-0.31-0.41-0.559-0.41s-0.435 0.136-0.559 0.41c-0.124 0.273-0.186 0.687-0.186 1.24 0 0.552 0.062 0.964 0.186 1.238 0.124 0.273 0.31 0.41 0.559 0.41m0 0.242c-0.396 0-0.705-0.166-0.928-0.498-0.221-0.332-0.332-0.796-0.332-1.392 0-0.597 0.111-1.062 0.332-1.394 0.223-0.332 0.532-0.498 0.928-0.498 0.397 0 0.706 0.166 0.928 0.498 0.221 0.332 0.332 0.797 0.332 1.394 0 0.596-0.111 1.06-0.332 1.392-0.222 0.332-0.531 0.498-0.928 0.498m3.183-0.242c0.25 0 0.436-0.137 0.56-0.41 0.123-0.274 0.185-0.686 0.185-1.238 0-0.553-0.062-0.967-0.185-1.24-0.124-0.274-0.31-0.41-0.56-0.41-0.249 0-0.435 0.136-0.559 0.41-0.123 0.273-0.185 0.687-0.185 1.24 0 0.552 0.062 0.964 0.185 1.238 0.124 0.273 0.31 0.41 0.559 0.41m0 0.242c-0.395 0-0.704-0.166-0.927-0.498-0.222-0.332-0.332-0.796-0.332-1.392 0-0.597 0.11-1.062 0.332-1.394 0.223-0.332 0.532-0.498 0.927-0.498 0.398 0 0.707 0.166 0.928 0.498 0.222 0.332 0.332 0.797 0.332 1.394 0 0.596-0.11 1.06-0.332 1.392-0.221 0.332-0.53 0.498-0.928 0.498m4.415-3.467-1.426 3.396h-0.364l1.36-3.245h-1.685v0.449h-0.285v-0.849h2.4v0.249m2.956 2.075h1.338l-0.669-1.733-0.669 1.733m-1.03 1.321v-0.259h0.32l1.298-3.386h0.411l1.301 3.386h0.359v0.259h-1.326v-0.259h0.405l-0.305-0.801h-1.533l-0.305 0.801h0.4v0.259h-1.025m4.128-3.401c0-0.075 0.027-0.14 0.081-0.195 0.055-0.056 0.121-0.083 0.198-0.083 0.074 0 0.139 0.027 0.192 0.083 0.056 0.055 0.083 0.12 0.083 0.195 0 0.077-0.026 0.142-0.08 0.195-0.054 0.054-0.119 0.081-0.195 0.081-0.077 0-0.143-0.027-0.198-0.081-0.054-0.053-0.081-0.118-0.081-0.195m0.574 3.142h0.425v0.259h-1.304v-0.259h0.43v-2.075h-0.43v-0.261h0.879v2.336m1.973 0.259h-1.26v-0.259h0.405v-3.281h-0.432v-0.259h0.881v2.473l1.094-1.008h-0.373v-0.261h1.174v0.261h-0.444l-0.772 0.713 0.986 1.362h0.374v0.259h-1.279v-0.259h0.371l-0.777-1.067-0.354 0.33v0.737h0.406v0.259m4.306-1.25h-1.936v0.019c0 0.35 0.066 0.615 0.198 0.794 0.132 0.177 0.326 0.266 0.583 0.266 0.197 0 0.359-0.051 0.484-0.154 0.127-0.104 0.216-0.258 0.266-0.461h0.361c-0.071 0.285-0.204 0.499-0.398 0.642-0.192 0.143-0.445 0.215-0.759 0.215-0.379 0-0.684-0.125-0.915-0.374-0.23-0.251-0.345-0.583-0.345-0.996 0-0.41 0.113-0.741 0.34-0.991 0.226-0.251 0.523-0.376 0.891-0.376 0.392 0 0.693 0.121 0.903 0.364 0.21 0.241 0.319 0.591 0.327 1.052m-0.53-0.259c-9e-3 -0.303-0.074-0.531-0.192-0.684-0.118-0.154-0.287-0.231-0.508-0.231-0.207 0-0.37 0.077-0.488 0.231-0.119 0.155-0.192 0.383-0.218 0.684h1.406m4.766-0.3c0.114 0.031 0.212 0.084 0.293 0.158 0.083 0.074 0.157 0.177 0.222 0.311l0.53 1.081h0.444v0.259h-0.859l-0.569-1.16c-0.109-0.224-0.209-0.369-0.3-0.434-0.091-0.067-0.217-0.1-0.376-0.1h-0.545v1.435h0.516v0.259h-1.475v-0.259h0.464v-3.125h-0.464v-0.261h1.848c0.355 0 0.628 0.084 0.82 0.254 0.194 0.169 0.291 0.409 0.291 0.72 0 0.251-0.071 0.448-0.212 0.593-0.14 0.143-0.35 0.233-0.628 0.269m-1.16-0.147h0.721c0.245 0 0.427-0.057 0.544-0.173 0.117-0.117 0.176-0.298 0.176-0.542s-0.059-0.424-0.176-0.54c-0.117-0.115-0.299-0.173-0.544-0.173h-0.721v1.428m5.245 0.706h-1.936v0.019c0 0.35 0.065 0.615 0.197 0.794 0.132 0.177 0.327 0.266 0.584 0.266 0.197 0 0.358-0.051 0.483-0.154 0.127-0.104 0.216-0.258 0.266-0.461h0.362c-0.072 0.285-0.205 0.499-0.398 0.642-0.192 0.143-0.445 0.215-0.76 0.215-0.379 0-0.684-0.125-0.915-0.374-0.23-0.251-0.344-0.583-0.344-0.996 0-0.41 0.113-0.741 0.339-0.991 0.226-0.251 0.523-0.376 0.891-0.376 0.392 0 0.693 0.121 0.903 0.364 0.21 0.241 0.319 0.591 0.328 1.052m-0.53-0.259c-0.01-0.303-0.074-0.531-0.193-0.684-0.117-0.154-0.287-0.231-0.508-0.231-0.207 0-0.369 0.077-0.488 0.231-0.119 0.155-0.191 0.383-0.217 0.684h1.406m1.858 1.985 0.171-0.432-0.97-2.378h-0.295v-0.261h1.194v0.261h-0.415l0.73 1.785 0.73-1.785h-0.388v-0.261h0.974v0.261h-0.291l-1.189 2.92c-0.081 0.202-0.172 0.339-0.271 0.412-0.099 0.075-0.239 0.113-0.42 0.113-0.076 0-0.155-0.01-0.237-0.02-0.079-0.013-0.16-0.032-0.241-0.056v-0.496h0.229c0.01 0.111 0.038 0.19 0.083 0.237 0.047 0.049 0.12 0.073 0.218 0.073 0.089 0 0.161-0.025 0.214-0.075 0.056-0.049 0.113-0.148 0.174-0.298m4.453-1.726h-1.936v0.019c0 0.35 0.066 0.615 0.198 0.794 0.131 0.177 0.326 0.266 0.583 0.266 0.197 0 0.358-0.051 0.483-0.154 0.127-0.104 0.216-0.258 0.267-0.461h0.361c-0.072 0.285-0.204 0.499-0.398 0.642-0.192 0.143-0.445 0.215-0.759 0.215-0.38 0-0.685-0.125-0.916-0.374-0.229-0.251-0.344-0.583-0.344-0.996 0-0.41 0.113-0.741 0.339-0.991 0.226-0.251 0.524-0.376 0.891-0.376 0.393 0 0.694 0.121 0.904 0.364 0.21 0.241 0.319 0.591 0.327 1.052m-0.53-0.259c-0.01-0.303-0.074-0.531-0.193-0.684-0.117-0.154-0.286-0.231-0.508-0.231-0.206 0-0.369 0.077-0.488 0.231-0.119 0.155-0.191 0.383-0.217 0.684h1.406m3.169-1.091v0.649h-0.259c-8e-3 -0.128-0.044-0.224-0.107-0.288-0.064-0.063-0.156-0.095-0.279-0.095-0.221 0-0.391 0.076-0.51 0.229-0.117 0.153-0.176 0.373-0.176 0.66v1.186h0.52v0.259h-1.374v-0.259h0.405v-2.08h-0.429v-0.256h0.878v0.461c0.088-0.181 0.201-0.314 0.34-0.4 0.138-0.088 0.307-0.132 0.505-0.132 0.073 0 0.15 0.01 0.23 0.017 0.081 0.011 0.166 0.028 0.256 0.049"/><path d="m26.841 990.57-7.215-27.915-7.215 27.547m-1.916 0.923h3.833m10.597 0h3.832m-5.786-11.023h-6.69" fill="none" stroke="#000" stroke-linecap="square" stroke-linejoin="bevel" stroke-width="3"/><path d="m175.8 1214.4 7.215 27.915 7.215-27.547m1.916-0.923h-3.833m-10.597 0h-3.832m5.786 11.023h6.69" fill="none" stroke="#000" stroke-linecap="square" stroke-linejoin="bevel" stroke-width="3"/></g><g id="diamond_jack" transform="matrix(.037987 0 0 .037987 -47.574 24.034)"><rect transform="scale(-1)" x="-2226.8" y="-629.29" width="201.08" height="313.58" rx="8.6761" ry="8.6761" fill="#fff" fill-rule="evenodd" stroke="#000" stroke-linecap="round" stroke-linejoin="round" stroke-width="1.4"/><g transform="matrix(.2407 0 0 .2666 1847.2 -99.127)"><path d="m1442.9 2183.6 0.088-112.21-120.88-168.57h-238.92l-207.04 202.25-0.088 112.21 120.88 168.57h238.92z" color="#000000" enable-background="accumulate" fill-rule="evenodd"/><path d="m1187.1 2144.3c-19.296-44.538-7.615-101.38 37.11-207.17h-135.17c-51.932 122.85 27.358 171.01 43.028 207.17 19.297 44.539 7.616 101.38-37.11 207.17h135.17c51.932-122.84-27.358-171.01-43.028-207.17z" color="#000000" enable-background="accumulate" fill="#00d" fill-rule="evenodd" stroke="#fff" stroke-linejoin="round" stroke-width="10"/><g id="g8618" transform="matrix(1 0 0 1.0014 787.51 -774.63)"><path d="m375.82 2891.7c-4.219 8.402-4.801 10.851-4.773 20.274-6.963-6.349-9.288-7.479-18.361-9.947 4.22-8.403 4.891-10.849 4.767-20.272 7.027 6.279 9.295 7.476 18.367 9.945m-11.722-40.652c-6.41 9.332-7.777 11.895-8.443 23.222-7.896-8.148-10.426-10.261-20.845-14.692 6.41-9.332 7.319-12.635 10.004-23.659 6.308 9.431 8.866 10.698 19.284 15.129m-3.717-44.533c-9.955 8.248-12.356 10.461-16.157 22.848-6.558-11.175-8.617-14.506-18.677-22.626 9.955-8.249 12.093-11.374 18.059-22.876 4.442 12.172 6.716 14.533 16.775 22.654m12.702-54.999c-15.177 7.187-18.874 9.489-28.269 23.453-3.939-16.363-5.591-20.903-15.646-34.353 15.177-7.186 18.907-10.356 29.987-23.024 1.845 16.728 3.873 20.475 13.928 33.924" fill="#d00" fill-rule="evenodd"/><path d="m542.41 2684.5c-18.872 26.323-52.973 93.908-23.281 173.03 21.755 53.069 69.775 91.941 124.06 108.47l12.25-11.938 0.031-61.343c-64.181-22.124-92.856-78.253-68.063-145.5z" color="#000000" enable-background="accumulate" fill="#d00" fill-rule="evenodd"/><path d="m551.81 2697.6c-63.653 107.2-6.17 222.76 103.62 254.94l0.031-51.375c-52.302-19.142-107.86-74.212-72.281-159.88z" color="#000000" enable-background="accumulate" fill-rule="evenodd" stroke="#00d" stroke-linecap="round" stroke-linejoin="round" stroke-width="5"/><path d="m567.22 2832.1c1.742 10.555-12.643 13.382-12.468 2.3 0.085-5.407 2.983-1.903 5.942-1.155 3.328 0.842 1.187-8.115-2.501-15.131 4.944 3.367 7.92 7.28 9.027 13.986v0m-11.909-3.079c8.681-2.012 2.198-6.704-2.905-10.35-9.898-7.072-6.834-28.818-0.641-34.373-10.349 4.104-18.041-0.844-13.782 5.136-7.074 3.399 2.327 5.352 5.211 1.281-3.646 15.362-12.729 38.365 12.117 38.306v0m7.539-48.23c6.485-0.119 5.348 7.079-1.283 6.413-3.235-0.324-1.242-1.604-0.464-3.026 0.875-1.598-4.63-0.951-9.144 0.526 2.41-2.294 6.77-3.838 10.891-3.913v0m-9.914 27.416c1.669 5.405 12.305 4.521 9.94-5.873-0.786-3.455-3.296-3.317-5.787-1.548-2.8 1.989-0.776-9.831-4.889-17.648-1.66 8.549-1.261 18.6 0.736 25.069v0m-14.289-39.569c-3.028-7.371 8.362-9.382 10.112-1.454 0.854 3.867-0.862 2.341-3.167 1.977-2.592-0.41 2.332 10.538 5.942 15.31-4.075-2.05-10.964-11.149-12.887-15.833v0m23.928-16.432c-4.352 9.902-8.077-24.503-16.568-15.543-5.395 5.692 2.244 10.461 6.621 12.079 5.804 2.145 2.168 28.549-2.878 34.918 8.539-6.91 16.891-12.458 19.688-18.687 0.671-3.549-4.072-4.269-6.103-0.164 0.651-1.967-0.076-14.161-0.76-12.603v0m-2.049-21.034c1.036-7.734 11.863-4.348 9.652 3.355-1.078 3.758-1.905 2.258-3.785 0.917-2.114-1.508-3.167 11.083-2.133 16.829-2.73-3.52-4.392-16.186-3.734-21.101v0m84.444 180.61c9.3 5.285 2.449 18.246-6.056 11.139-4.15-3.467 0.397-3.516 2.841-5.346 2.748-2.057-5.563-6.027-13.336-7.574 5.727-1.725 10.641-1.577 16.551 1.781v0m-9.886 7.321c3.898-8.014-3.828-5.926-9.872-4.253-11.724 3.245-26.701-12.816-27.124-21.125-3.319 10.627-12.005 13.493-4.677 13.945-1.808 7.637 5.625 1.557 4.274-3.245 9.648 12.498 21.816 34.029 37.399 14.678v0m-32.749-36.201c3.988-5.116 8.867 0.296 4.179 5.032-2.288 2.31-2.029-0.044-2.644-1.543-0.692-1.686-3.653 3.001-5.344 7.44-0.267-3.317 1.275-7.678 3.809-10.929v0m15.076 24.953c5.251 2.103 11.255-6.721 1.687-11.421-3.18-1.562-4.652 0.476-4.843 3.525-0.216 3.427-8.131-5.581-16.795-7.302 5.602 6.669 13.666 12.681 19.951 15.198v0m-39.748-13.783c-7.635-2.284-2.033-12.402 5.23-8.776 3.544 1.769 1.278 2.143-0.455 3.705-1.949 1.758 9.659 4.818 15.64 5.013-4.158 1.878-15.564 1.509-20.415 0.058v0m2.278-28.938c4.96 9.612-24.128-9.135-22.504 3.102 1.031 7.774 9.544 4.836 13.555 2.451 5.318-3.162 23.556 16.275 25.333 24.203 0-10.985 0.941-20.967-2.142-27.059-2.336-2.755-5.88 0.48-3.966 4.64-1.12-1.743-11.056-8.849-10.276-7.337v0m-17.639-11.639c-5.361-5.67 4.082-11.957 8.68-5.393 2.243 3.203 0.556 2.902-1.669 3.52-2.501 0.694 6.624 9.434 11.741 12.245-4.454-0.093-15.345-6.768-18.752-10.372v0" fill="#fd0" fill-rule="evenodd" stroke="#000" stroke-linecap="round" stroke-linejoin="round"/><g transform="matrix(-.8862 .4633 .4633 .8862 869.07 2124.2)"><path d="m586.67 434.04c-2.467-0.826-3.957-0.429-4.429 0.555-0.477 0.994-0.503 2.75 2.418 4.002-1.423 2.722-0.149 3.646 0.557 3.883 0.801 0.268 2.209 0.653 3.457-2.632 3.515 1.957 4.092 0.257 4.42-0.413 0.328-0.671 1.005-2.299-2.286-3.539 1.341-2.803-0.147-4.286-0.902-4.592-0.801-0.325-2.049 0.127-3.235 2.736v0" fill="#fd0" fill-rule="evenodd" stroke="#000" stroke-linecap="round" stroke-linejoin="round"/><path d="m585.88 437.78c0.272 0.632 0.84 1.016 1.569 1.06 0.729 0.045 1.404-0.264 1.861-0.851 0.458-0.588 0.564-1.28 0.292-1.912-0.271-0.632-0.84-1.016-1.569-1.06-0.729-0.045-1.403 0.264-1.861 0.851-0.458 0.588-0.563 1.28-0.292 1.912" fill-rule="evenodd"/></g><g transform="matrix(-.1973 .9803 .9803 .1973 284.58 2231.8)"><path d="m586.67 434.04c-2.467-0.826-3.957-0.429-4.429 0.555-0.477 0.994-0.503 2.75 2.418 4.002-1.423 2.722-0.149 3.646 0.557 3.883 0.801 0.268 2.209 0.653 3.457-2.632 3.515 1.957 4.092 0.257 4.42-0.413 0.328-0.671 1.005-2.299-2.286-3.539 1.341-2.803-0.147-4.286-0.902-4.592-0.801-0.325-2.049 0.127-3.235 2.736v0" fill="#fd0" fill-rule="evenodd" stroke="#000" stroke-linecap="round" stroke-linejoin="round"/><path d="m585.88 437.78c0.272 0.632 0.84 1.016 1.569 1.06 0.729 0.045 1.404-0.264 1.861-0.851 0.458-0.588 0.564-1.28 0.292-1.912-0.271-0.632-0.84-1.016-1.569-1.06-0.729-0.045-1.403 0.264-1.861 0.851-0.458 0.588-0.563 1.28-0.292 1.912" fill-rule="evenodd"/></g><path d="m88.671 2875.6 207.04-201.97m238.92 0 120.88 168.33" color="#000000" enable-background="accumulate" fill="#fd0" fill-rule="evenodd" stroke="#000" stroke-linecap="round" stroke-linejoin="round" stroke-width="5"/><path d="m589.59 2782.5c0-38.066 24.513-33.294 33.96-30.963v61.927c-9.28-1.869-33.96 6.947-33.96-30.964z" fill="#fff" fill-rule="evenodd" stroke="#000" stroke-linecap="round" stroke-linejoin="round" stroke-width="3"/><path d="m288.94 2686.9-136.72 133.34c13.489 7.826 26.201 15.987 38.031 24.563l97.844-95.438c2.786-12.784 7.114-26.543 13.406-41.406h8.469z" color="#000000" enable-background="accumulate" fill="#00d" fill-rule="evenodd" stroke="#fff" stroke-linecap="round" stroke-linejoin="round" stroke-width="5"/><path d="m182.19 2804.5 7.002 3.474c6.734-2.547 9.067 5.117 7.096 10.991-5.923 1.819-13.525-0.709-10.806-7.376zm25.909-25.251 7.002 3.473c6.734-2.546 9.067 5.118 7.096 10.992-5.923 1.819-13.525-0.709-10.806-7.376zm25.909-25.251 7.002 3.473c6.734-2.546 9.067 5.118 7.096 10.992-5.923 1.819-13.525-0.709-10.806-7.376zm25.909-25.251 7.002 3.473c6.734-2.546 9.067 5.118 7.096 10.992-5.923 1.819-13.525-0.709-10.806-7.376zm23.278-20.136-13.145 4.615-4.953 13.023c14.18-5.362 19.091 10.776 14.941 23.143-12.47 3.831-28.477-1.494-22.751-15.53l-13.146 4.615-4.953 13.023c14.18-5.362 19.091 10.776 14.941 23.143-12.47 3.831-28.477-1.494-22.751-15.53l-13.146 4.615-4.952 13.023c14.179-5.362 19.09 10.776 14.94 23.143-12.47 3.831-28.477-1.494-22.751-15.53l-13.146 4.615-4.952 13.023c14.179-5.362 19.09 10.776 14.94 23.143-12.47 3.831-28.477-1.494-22.751-15.53l-13.146 4.615-4.952 13.023" enable-background="accumulate" fill="none" stroke="#fff" stroke-linecap="round" stroke-linejoin="round" stroke-width="2.4"/><path d="m476.5 2691.7c-27.732 78.781-29.4 145.51-3.406 200.88 23.38 49.799 66.607 87.244 123.03 119.31l44.938-43.812c-58.729-30.981-95.977-63.343-113.66-101-17.906-38.139-18.9-85.618 5.688-155.47z" color="#000000" enable-background="accumulate" fill="#fd0" fill-rule="evenodd"/><path d="m605.06 2988.5 7.638-14.811c1.992-3.864 6.856-5.352 11.18-3.208m-22.69 0.294-8.118 14.554c-2.117 3.796 0.087 9.07 4.376 11.282 4.29 2.212 9.61 0.923 11.541-2.971l7.405-14.93m-32.391-1.821 8.616-14.265c2.247-3.72 6.903-5.029 11.118-2.678s5.748 7.163 3.694 10.994l-7.875 14.686m-18.215-26.649-9.131 13.941c-2.382 3.636-0.48 9.057 3.651 11.552 4.132 2.495 9.566 1.549 11.748-2.21l8.364-14.414m-51.422-18.676 10.757-12.728c2.805-3.32 7.483-3.948 11.298-0.993 3.816 2.955 4.583 7.887 1.993 11.378l-9.931 13.382m5.073 3.63 9.661-13.578c2.52-3.542 7.211-4.549 11.249-1.904 4.037 2.644 5.215 7.517 2.901 11.196l-8.871 14.108m-16.214-27.886-10.204 13.175c-2.661 3.437-1.141 9.041 2.791 11.838 3.933 2.798 9.454 2.267 11.905-1.323l9.393-13.765m-31.491-24.681-11.316 12.233c-2.952 3.191-1.916 9.005 1.771 12.12 3.686 3.116 9.247 3.074 11.981-0.306l10.479-12.957m-31-9.376 11.876-11.69c3.098-3.05 8.067-3.03 11.534 0.328 3.466 3.358 3.535 7.982 0.657 11.239l-11.036 12.486m-10.819-30.36-12.707 10.781c-3.315 2.813-2.838 8.694 0.464 12.214s9.185 4.291 12.21 1.169l11.596-11.968m-43.441-33.007 14.488-8.235c3.779-2.147 8.299-1.324 10.911 2.734s1.53 8.506-1.993 11.052c0 0-13.508 9.759-13.508 9.759m3.746 5.043 13.246-10.112c3.455-2.638 8.05-2.357 11.172 1.323 3.123 3.68 2.615 8.325-0.555 11.299l-12.155 11.4m-7.379-31.581s-13.764 9.395-13.764 9.395c-3.59 2.451-3.847 8.508-0.919 12.344 2.929 3.836 8.414 5.036 11.799 2.309l12.978-10.453m-21.395-33.18-14.926 7.41c-3.893 1.934-4.938 7.931-2.554 12.127 2.385 4.196 7.693 6.131 11.412 3.879l14.254-8.631m-25.625-19.934 15.5-6.119c4.043-1.595 8.399-0.176 10.423 4.206 2.023 4.381 0.347 8.591-3.491 10.632l-14.712 7.827m1.263-32.341-15.822 5.23c-4.127 1.364-6.004 7.167-4.232 11.656s6.766 7.156 10.762 5.447c0 0 15.321-6.556 15.321-6.556m-26.813-47.469 16.583-1.646c4.326-0.43 8.144 2.183 8.876 6.953 0.733 4.77-2.044 8.375-6.298 9.268 0 0-16.308 3.427-16.308 3.427m1.396 6.134 16.207-3.877c4.227-1.012 8.341 1.017 9.725 5.64 1.385 4.623-0.871 8.55-4.958 10.03 0 0-15.668 5.676-15.668 5.676m5.799-31.852-16.396 2.977c-4.277 0.776-6.946 6.236-5.823 10.929 1.123 4.694 5.688 8.033 9.886 6.903 0 0 16.092-4.329 16.092-4.329m-6.205-39s-16.646 0.784-16.646 0.784c-4.341 0.204-7.685 5.202-7.209 10.004 0.477 4.803 4.601 9.084 8.898 8.424l16.471-2.529m-15.538-28.168s16.665 0.051 16.665 0.051c4.346 0.014 7.837 3.504 7.942 8.329s-3.1 8.089-7.436 8.405l-16.62 1.212m13.776-29.24-16.618-1.244c-4.335-0.325-8.19 4.151-8.323 8.975-0.132 4.825 3.453 9.532 7.799 9.438l16.66-0.362m-8.141-53.713s16.318 3.378 16.318 3.378c4.257 0.881 6.964 5.078 6.082 9.823s-4.793 7.396-9.096 6.782c0 0-16.497-2.355-16.497-2.355m-0.829 6.196 16.545 1.994c4.315 0.52 7.356 4.032 6.996 8.845s-4.05 8.133-8.391 7.91l-16.642-0.855m16.89-27.612-16.443-2.705c-4.289-0.706-8.466 2.957-9.148 7.735s2.422 9.802 6.748 10.226l16.585 1.623m7.06-39.266s-16.097-4.313-16.097-4.313c-4.198-1.125-8.745 2.404-9.816 7.11-1.072 4.706 1.517 9.889 5.791 10.684 0 0 16.383 3.046 16.383 3.046m21.441-38.064c-1.572 4.564-6.023 6.923-10.156 5.576 0 0-15.845-5.162-15.845-5.162m-1.835 5.942s15.932 4.889 15.932 4.889c4.155 1.275 6.575 5.453 5.325 10.115-1.249 4.662-5.502 7.303-9.721 6.257 0 0-16.175-4.011-16.175-4.011m21.366-24.206s-15.756-5.427-15.756-5.427c-4.11-1.416-8.888 1.715-10.304 6.329s0.827 9.66 5.005 10.861c0 0 16.015 4.605 16.015 4.605" fill="none" stroke="#000" stroke-linecap="round" stroke-linejoin="round" stroke-width="2.5"/><path d="m286.97 2682.2-31.406 30.625h307.19l-22-30.625z" fill="#fd0" stroke="#000" stroke-width="3"/><path d="m279.09 2689.8c5.184 0.117 10.378 15.312 15.562 15.312 5.205 0 10.421-15.312 15.625-15.312 5.205 0 10.389 15.312 15.594 15.312s10.42-15.312 15.625-15.312 10.42 15.312 15.625 15.312 10.389-15.312 15.594-15.312c5.204 0 10.42 15.312 15.625 15.312 5.204 0 10.42-15.312 15.625-15.312 5.204 0 10.389 15.312 15.594 15.312 5.204 0 10.42-15.312 15.625-15.312 5.204 0 10.389 15.312 15.593 15.312 5.205 0 10.421-15.312 15.625-15.312 5.205 0 10.428 15.312 15.657 15.312 5.228 0 10.42-15.312 15.625-15.312 5.204 0 10.42 15.312 15.625 15.312 5.204 0 10.389-15.312 15.593-15.312 5.205 0 10.421 15.312 15.625 15.312 2.509 0 5.023-3.566 7.532-7.25" fill="none" stroke="#000" stroke-width="2"/><path d="m448.66 2515.6-126.53 11.5c-15.867 63.249 0.602 117.7 12.906 149.44 9.922 25.595 53.895 25.069 89.438 4.032h59.469v-36.875h-37.438z" fill="#fff" fill-rule="evenodd"/><path d="m520.78 2663.9c-4.217-25.341-4.903-118.48-13.531-142.83h-76.156c8.777 24.774 6.783 129.78 16.875 149.09 3.425 6.555 10.871 11.627 18 8.469 3.745 3.369 8.644 5.193 13.094 3.203 4.64 2.382 10.671 2.998 13.656 0.516 4.476 1.504 9.865 1.098 13.094-1.266 3.701 1.051 8.058 0.785 11.734-0.672 2.773 1.873 6.044 2.969 9.453 3.032 8.969 0.164 17.566-7.099 18-16.594 0.348-7.619-5.239-14.642-12.906-14.406-5.839 0.179-11.477 5.195-11.313 11.453zm-198.72-136.52-6.407 0.188c-5.903 51.908-8.675 110.93-16.25 128.75-2.116-0.64-2.58-4.037-12.25-0.719-6.952 3.568-9.311 12.417-5.968 19 6.364 10.25 17.547 10.242 26.156 2.937-0.32 4.359 5.384 8.704 9.812 5.188 2.497-1.983 3.979-4.228 5.532-7.719 0.166 8.453 7.41 13.045 15 6.688l0.031-0.032c-1.06-1.581-1.969-3.271-2.688-5.125-12.286-31.692-28.716-86.027-12.968-149.16z" fill="#fd0" fill-rule="evenodd"/><path d="m352.4 2650c5.017-1.303 23.811-1.036 30.879 0.635-0.279-6.539-9.441-2.395-15.398-6.437-6.082 3.64-15.343 1.35-15.481 5.802z" fill="#00d" fill-rule="evenodd" stroke="#00d" stroke-width="2.8"/><path transform="matrix(-.4079 0 0 .3707 526.72 2447)" d="m317.52 313.03a6.125 6.125 0 1 1-12.25 0 6.125 6.125 0 1 1 12.25 0z" fill="#00d" fill-rule="evenodd"/><path d="m388.65 2554.6c4.377 1.16 29.902 5.087 37.264 5.415-0.122 1.781-17.154 0.795-23.007 0.061-5.854-0.734-14.284-3.491-14.257-5.476z" fill="#00d" fill-rule="evenodd" stroke="#00d" stroke-width="2.8"/><path d="m421.26 2561.5c-7.055 8.901-21.626 10.879-35.808 2.756" fill="none" stroke="#00d" stroke-width="2.8"/><path transform="matrix(-.8998 0 0 .8176 679.88 2307.1)" d="m317.52 313.03a6.125 6.125 0 1 1-12.25 0 6.125 6.125 0 1 1 12.25 0z" fill="none" stroke="#00d" stroke-linecap="round" stroke-linejoin="round" stroke-width="1.7"/><path transform="matrix(.3449 0 0 .3218 238.51 2461.4)" d="m317.52 313.03a6.125 6.125 0 1 1-12.25 0 6.125 6.125 0 1 1 12.25 0z" fill="#00d" fill-rule="evenodd"/><path d="m355.23 2554.8c-3.701 1.007-25.281 4.416-31.505 4.701 0.103 1.546 14.502 0.69 19.451 0.053 4.949-0.638 12.077-3.031 12.054-4.754z" fill="#00d" fill-rule="evenodd" stroke="#00d" stroke-width="2.8"/><path d="m327.67 2560.8c5.964 7.727 18.284 9.445 30.274 2.393" fill="none" stroke="#00d" stroke-width="2.8"/><path transform="matrix(.7607 0 0 .7098 109.01 2339.9)" d="m317.52 313.03a6.125 6.125 0 1 1-12.25 0 6.125 6.125 0 1 1 12.25 0z" fill="none" stroke="#00d" stroke-linecap="round" stroke-linejoin="round" stroke-width="2"/><path d="m385.36 2543.1c21.827-7.437 39.961 2.389 39.961 2.389m-66.696-0.796c-14.605-9.675-28.224-2.052-32.319 0.33" fill="none" stroke="#00d" stroke-width="5.1"/><path d="m494.56 2521.1c9.078 25.782 8.862 125.94 15.131 147.16 0.237 1.564 0.911 3.59 1.881 5.445 4.638 8.871 15.933 12.646 24.944 7.173 7.406-4.499 10.921-14.52 6.611-22.04-3.403-5.938-11.3-8.429-17.354-4.294-4.496 3.071-6.613 9.568-3.439 14.091 2.124 3.025 6.735 4.286 9.765 1.415 1.619-1.535 2.481-4.869 0.266-6.141m-210.31-30.421c-3.217 29.662-7.994 40.57-20.043 47.662-2.744 1.292-5.967 1.847-9.08 1.484-8.186-0.953-14.525-8.44-13.098-16.876 1.169-6.916 7.728-12.485 14.769-11.384 5.539 0.866 9.835 6.12 8.523 11.889-0.968 4.259-5.243 7.72-9.617 6.608-2.894-0.735-5.228-3.832-3.948-6.902 0.665-1.596 2.917-3.183 4.465-1.832m83.465-4.275c-7.944 3.664-12.814 3.244-19.218 0.843m20.727-41.012c3.17 15.759-10.929 8.357-14.017 5.539-10.338 8.231-16.717-0.638-14.339-8.839 1.912-6.595 8.304-43.485 8.046-50.792m65.062-6.156c0.645-4.308-13.85-8.38-18.098-9.043-2.159-0.336-16.004-0.212-17.944 0.95-1.67 3.565-4.294 13.329-2.817 17.519 2.827 8.022 7.107 8.721 11.34 11.993m-70.67-21.841c-0.545-3.739 11.71-7.274 15.302-7.849 1.825-0.293 13.53-0.184 15.17 0.824 1.412 3.095 3.637 11.555 2.383 15.209-2.385 6.947-6.01 7.571-9.588 10.411m-33.165-50.014c-5.904 51.908-8.67 110.91-16.245 128.73m29.552 2.853c-5.887 14.296-6.739 19.537-11.825 23.575-4.428 3.516-9.966-0.465-9.726-4.462m30.258 3.426c-7.59 6.358-14.786 1.799-14.952-6.654m-24.369-2.709c16.599-7.581 11.715-47.607 18.151-71.751m5.614-73.498c-15.868 63.249 0.618 117.7 12.922 149.44 12.092 31.194 74.761 23.636 111.11-12.636m74.807 1.396c-4.42-23.342-4.928-119.44-13.706-144.22m10.896 159.11c-7.14 3.192-17.133 1.067-19.974-5.025-9.252-19.838-7.526-129.31-16.303-154.09m23.909 160.15c-5.513 4.036-17.268 2.02-20.16-4.635-8.754-20.139-7.663-130.74-16.44-155.51m9.704 160.93c-7.14 3.192-14.941-3.853-18.372-10.419-10.092-19.317-7.936-125.74-16.713-150.52m49.273 160.95c-4.516 4.511-17.165 0.043-20.006-6.05-9.251-19.838-7.799-130.13-16.577-154.9m9.524 157.53c-7.14 3.192-14.624-1.861-18.055-8.428-10.092-19.316-8.073-124.33-16.85-149.1m-56.982 152.39c-4.941-1.191-7.969-1.054-11.952-0.274" fill="none" stroke="#00d" stroke-width="2.8"/><path d="m281.47 2764.1c-24.931 24.648-50.042 49.222-75.375 73.437-2.884 2.229-5.403 5.276-8.125 7.938 41.233 30.74 76.165 72.769 88.75 123.53 12.215 47.41 6.637 97.273-6.844 143.88h27.094c13.251-33.268 26.955-66.588 35.406-101.47 7.984-32.188 12.228-68.745-3.75-99.25-15.222-24.157-35.888-45.131-47.062-71.781-10.771-23.99-13.294-50.434-10.094-76.281z" fill="#d00" stroke="#000" stroke-width="5"/><path d="m508.8 2523.3 41.987-73.076h-286.88l51.423 76.15c58.251-4.716 125.8-10.649 193.47-3.074z" fill="#d00" fill-rule="evenodd" stroke="#000" stroke-linecap="round" stroke-linejoin="round" stroke-width="4.7"/><path d="m530.66 2450.2-28.85 49.337-46.444-2.442 9.31-46.895m-181.02 0 36.17 49.337 46.445-2.442-19.244-46.895m20.154 0 19.957 46.409h48.327l9.661-46.409" enable-background="accumulate" fill="none" stroke="#fff" stroke-linejoin="round" stroke-width="4.8"/><path d="m407.42 2501.9c35.075-0.088 71.591 2.053 109.38 6.522l-8.004 14.884c-67.667-7.576-135.2-1.658-193.45 3.058l-9.947-17.506c32.454-4.507 66.497-6.869 102.02-6.958z" fill-rule="evenodd"/></g><use transform="rotate(180 1159.6 2144.3)" width="744.09448" height="1052.3622" xlink:href="#g8618"/><g id="g8519" transform="matrix(1 0 0 1.0014 787.51 -774.63)"><path d="m655.5 2491.6c-30.856 14.966-15.671 74.753-25.219 104.16l-6.531 12.063h31.75z" fill="#d00" stroke="#000" stroke-width="3"/><path d="m651.47 2576.2c-6.329 0.193-13.03 3.247-19.781 5.969-7.236 1.554-15.936 1.231-22.563 2.281 12.874 4.266 26.639 6.594 40.938 6.594 1.815 0 3.64-0.051 5.437-0.125v-14.375c-1.317-0.253-2.674-0.385-4.031-0.344z" fill="#fd0" fill-rule="evenodd" stroke="#000" stroke-linecap="round" stroke-linejoin="round" stroke-width="2"/><g transform="translate(0 2388.7)"><path d="m649.06 93.188c-8.015 0-14.5 6.516-14.5 14.531-1e-3 8.014 6.485 14.531 14.5 14.531 2.308 0 4.499-0.572 6.437-1.531v-26c-1.94-0.962-4.126-1.531-6.437-1.531z" fill="#fd0" fill-rule="evenodd" stroke="#000" stroke-linecap="round" stroke-linejoin="round" stroke-width="2.5"/><path d="m635.61 107.58h20.514m-19.839 6.393h14.102m-14.102-12.521h14.102" fill="none" stroke="#000" stroke-width="2.5"/><path d="m623.75 219.16v489.62l31.75 31.719v-521.34z" fill="#fd0" stroke="#000" stroke-width="3"/><path d="m642.82 727.31c2.827-2.131 7.19-2.542 7.19-7.746 0-5.205-15.303-10.409-15.303-15.638 0-5.228 15.303-10.432 15.303-15.637s-15.303-10.409-15.303-15.614c0-5.204 15.303-10.409 15.303-15.613 0-5.205-15.303-10.409-15.303-15.614s15.303-10.409 15.303-15.614c0-5.204-15.303-10.409-15.303-15.613 0-5.205 15.303-10.41 15.303-15.754s-15.303-10.548-15.303-15.753c0-5.204 15.303-10.409 15.303-15.614 0-5.204-15.303-10.409-15.303-15.613 0-5.205 15.303-10.409 15.303-15.614 0-5.204-15.303-10.409-15.303-15.614 0-5.204 15.303-10.409 15.303-15.613 0-5.205-15.303-10.409-15.303-15.638 0-5.228 15.303-10.432 15.303-15.637s-15.303-10.409-15.303-15.614c0-5.204 15.303-10.409 15.303-15.613 0-5.205-15.303-10.409-15.303-15.614s15.303-10.409 15.303-15.614c0-5.204-15.303-10.409-15.303-15.613 0-5.205 15.303-10.41 15.303-15.614 0-5.205-15.303-10.409-15.303-15.614 0-5.204 15.303-10.409 15.303-15.613 0-5.205-15.303-10.41-15.303-15.614 0-5.205 15.303-10.409 15.303-15.614 0-5.204-15.303-10.409-15.303-15.614 0-5.204 15.303-10.409 15.303-15.613 0-5.205-15.303-10.409-15.303-15.614 0-5.204 15.303-10.409 15.303-15.614 0-5.204-15.303-10.409-15.303-15.613" fill="none" stroke="#000" stroke-width="2"/><path d="m629.21 236.38v468.88" color="#000000" enable-background="accumulate" fill="#fd0" fill-rule="evenodd" stroke="#00d" stroke-linecap="round" stroke-linejoin="round" stroke-width="5"/><g transform="matrix(.7691 -.6392 .6392 .7691 -118.08 436.5)"><path d="m622.52 425.48c2.002-4.451 6.542-6.505 10.133-4.584 3.591 1.92 4.88 7.09 2.877 11.541s-6.542 6.504-10.133 4.584-4.88-7.091-2.877-11.541z" fill="#fff" fill-rule="evenodd" stroke="#000" stroke-linecap="round" stroke-linejoin="round" stroke-width="3"/><path d="m607.61 417.04c2.003-4.45 6.92-6.302 10.974-4.134 15.989 8.55 6.53 6.146 4.344 11.86-2.347 6.136 0.182 12.427-11.6 4.265-3.82-2.646-5.72-7.54-3.718-11.991z" fill="#fff" fill-rule="evenodd" stroke="#000" stroke-linecap="round" stroke-linejoin="round" stroke-width="3"/></g></g><path d="m580.72 2571c8.433 30.382 36.287 52.719 69.344 52.719 1.823 0 3.647-0.085 5.437-0.219v-32.625c-1.797 0.074-3.622 0.125-5.437 0.125-25.482 0-49.254-7.344-69.344-20z" fill="#fd0" stroke="#000" stroke-width="3"/></g><use transform="rotate(180 1159.6 2144.3)" width="744.09448" height="1052.3622" xlink:href="#g8519"/></g><path id="path31670" d="m2098.1 379.67c-9.915 7.994-12.09 10.666-17.257 22.251-5.167-11.585-7.342-14.257-17.257-22.251 9.915-7.994 12.09-10.666 17.257-22.251 5.167 11.585 7.342 14.257 17.257 22.251z" fill="#d00" fill-rule="evenodd"/><use transform="rotate(180 2126.2 472.5)" width="2632.5" height="1575" xlink:href="#path31670"/><use transform="translate(1619.9)" width="2878.937" height="1565.9353" xlink:href="#use41541"/><use transform="translate(1620)" width="2878.937" height="1565.9353" xlink:href="#use41543"/><path id="path6006" d="m2036.8 354.11c0 4.19 3.009 6.464 6.717 6.464s6.717-2.637 6.717-6.464v-20.897m-1.916 0h3.832" fill="none" stroke="#d00" stroke-linecap="square" stroke-width="3"/><use transform="rotate(180 2126.3 472.5)" width="2878.937" height="1565.9353" xlink:href="#path6006"/><rect transform="scale(-1)" x="-2194.3" y="-596.35" width="136.1" height="247.7" fill="none" stroke="#000" stroke-linecap="round" stroke-linejoin="round" stroke-width="1.6"/></g><g transform="matrix(.037987 0 0 .037987 4.965 22.034)"><rect x="405.71" y="315.71" width="201.08" height="313.58" rx="8.6761" ry="8.6761" fill="#fff" fill-rule="evenodd" stroke="#000" stroke-linecap="round" stroke-linejoin="round" stroke-width="1.4"/><g fill="#d00" fill-rule="evenodd"><path id="use41541" d="m433.41 379.67c-5.062 4.14-6.172 5.523-8.81 11.523-2.638-6-3.748-7.383-8.81-11.523 5.062-4.14 6.172-5.524 8.81-11.523 2.638 5.999 3.748 7.383 8.81 11.523z" fill="#d00" fill-rule="evenodd"/><path id="use41543" d="m579.2 565.56c5.062-4.14 6.172-5.523 8.81-11.523 2.638 6 3.748 7.383 8.81 11.523-5.062 4.14-6.172 5.524-8.81 11.523-2.638-5.999-3.748-7.383-8.81-11.523z" fill="#d00" fill-rule="evenodd"/><path d="m524.56 371.8c-10.522 8.606-12.829 11.482-18.313 23.953-5.483-12.471-7.79-15.347-18.313-23.953 10.523-8.605 12.83-11.482 18.313-23.953 5.484 12.471 7.791 15.348 18.313 23.953z"/><path d="m524.56 573.2c-10.522 8.606-12.829 11.482-18.313 23.953-5.483-12.471-7.79-15.347-18.313-23.953 10.523-8.605 12.83-11.482 18.313-23.953 5.484 12.471 7.791 15.348 18.313 23.953z"/><path d="m524.56 472.5c-10.522 8.606-12.829 11.482-18.313 23.953-5.483-12.471-7.79-15.347-18.313-23.953 10.523-8.605 12.83-11.482 18.313-23.953 5.484 12.471 7.791 15.348 18.313 23.953z"/></g><g id="g5970" transform="matrix(.2054 0 0 .1949 606.89 76.065)"><path d="m-921.72 1319h68.994l-62.293 62.589" fill="none" stroke="#d00" stroke-linecap="square" stroke-linejoin="bevel" stroke-width="15"/><path transform="matrix(.9057 0 0 1.0229 -164.31 1251.8)" d="m-829.66 127.49a44.205 44.205 0 1 1-12.947 31.257" fill="none" stroke="#d00" stroke-width="15.6"/></g><use transform="rotate(180 506.31 472.5)" width="2878.937" height="1565.9353" xlink:href="#g5970"/></g><g transform="matrix(.037987 0 0 .037987 -42.497 8.0679)"><rect x="1418.2" y="630.71" width="201.08" height="313.58" rx="8.6761" ry="8.6761" fill="#fff" fill-rule="evenodd" stroke="#000" stroke-linecap="round" stroke-linejoin="round" stroke-width="1.4"/><g fill="#d00"><path d="m1437 704.84c-4.286-7.544-9.974-12.035-9.93-14.922 0.045-2.787 2.103-5.402 4.925-5.402 2.931 0 4.7 2.328 5.005 5.362 0.305-3.034 2.074-5.362 5.005-5.362 2.822 0 4.881 2.615 4.925 5.402 0.044 2.887-5.644 7.378-9.93 14.922z"/><path d="m1600.5 870.32c4.286 7.544 9.974 12.035 9.93 14.922-0.045 2.787-2.103 5.402-4.925 5.402-2.931 0-4.7-2.328-5.005-5.362-0.305 3.034-2.074 5.362-5.005 5.362-2.822 0-4.881-2.615-4.925-5.402-0.044-2.887 5.644-7.378 9.93-14.922z"/><path d="m1476.9 705.09c-8.909-15.679-20.731-25.014-20.639-31.015 0.092-5.791 4.37-11.227 10.236-11.227 6.092 0 9.77 4.839 10.403 11.144 0.633-6.305 4.311-11.144 10.403-11.144 5.866 0 10.144 5.436 10.236 11.227 0.092 6.001-11.73 15.336-20.639 31.015z"/><path d="m1476.9 869.91c-8.909 15.679-20.731 25.014-20.639 31.015 0.092 5.791 4.37 11.227 10.236 11.227 6.092 0 9.77-4.839 10.403-11.144 0.633 6.305 4.311 11.144 10.403 11.144 5.866 0 10.144-5.436 10.236-11.227 0.092-6.001-11.73-15.336-20.639-31.015z"/><path d="m1560.6 705.09c-8.909-15.679-20.731-25.014-20.639-31.015 0.092-5.791 4.37-11.227 10.236-11.227 6.092 0 9.77 4.839 10.403 11.144 0.633-6.305 4.311-11.144 10.403-11.144 5.866 0 10.144 5.436 10.236 11.227 0.092 6.001-11.73 15.336-20.639 31.015z"/><path d="m1560.6 869.91c-8.909 15.679-20.731 25.014-20.639 31.015 0.092 5.791 4.37 11.227 10.236 11.227 6.092 0 9.77-4.839 10.403-11.144 0.633 6.305 4.311 11.144 10.403 11.144 5.866 0 10.144-5.436 10.236-11.227 0.092-6.001-11.73-15.336-20.639-31.015z"/><path d="m1476.9 774.11c-8.909-15.679-20.731-25.014-20.639-31.015 0.092-5.791 4.37-11.227 10.236-11.227 6.092 0 9.77 4.839 10.403 11.144 0.633-6.305 4.311-11.144 10.403-11.144 5.866 0 10.144 5.436 10.236 11.227 0.092 6.001-11.73 15.336-20.639 31.015z"/><path d="m1560.6 774.11c-8.909-15.679-20.731-25.014-20.639-31.015 0.092-5.791 4.37-11.227 10.236-11.227 6.092 0 9.77 4.839 10.403 11.144 0.633-6.305 4.311-11.144 10.403-11.144 5.866 0 10.144 5.436 10.236 11.227 0.092 6.001-11.73 15.336-20.639 31.015z"/><path d="m1560.6 800.89c-8.909 15.679-20.731 25.014-20.639 31.015 0.092 5.791 4.37 11.227 10.236 11.227 6.092 0 9.77-4.839 10.403-11.144 0.633 6.305 4.311 11.144 10.403 11.144 5.866 0 10.144-5.436 10.236-11.227 0.092-6.001-11.73-15.336-20.639-31.015z"/><path d="m1476.9 800.89c-8.909 15.679-20.731 25.014-20.639 31.015 0.092 5.791 4.37 11.227 10.236 11.227 6.092 0 9.77-4.839 10.403-11.144 0.633 6.305 4.311 11.144 10.403 11.144 5.866 0 10.144-5.436 10.236-11.227 0.092-6.001-11.73-15.336-20.639-31.015z"/></g><path d="m1446.1 668.01c0 4.175-4.068 7.564-9.08 7.564-5.013 0-9.081-3.389-9.081-7.564s4.068-7.563 9.081-7.563c5.012 0 9.08 3.388 9.08 7.563zm-1.73-13.676c0 3.38-3.293 6.123-7.35 6.123-4.058 0-7.351-2.743-7.351-6.123 0-3.379 3.293-6.122 7.351-6.122 4.057 0 7.35 2.743 7.35 6.122z" fill="none" stroke="#d00" stroke-linecap="round" stroke-width="3"/><path d="m1591.4 906.99c0-4.175 4.068-7.564 9.08-7.564 5.013 0 9.081 3.389 9.081 7.564s-4.068 7.563-9.081 7.563c-5.012 0-9.08-3.388-9.08-7.563zm1.73 13.676c0-3.38 3.293-6.123 7.35-6.123 4.058 0 7.351 2.743 7.351 6.123 0 3.379-3.293 6.122-7.351 6.122-4.057 0-7.35-2.743-7.35-6.122z" fill="none" stroke="#d00" stroke-linecap="round" stroke-width="3"/></g></svg>
